<svg xmlns:xlink="http://www.w3.org/1999/xlink" xmlns="http://www.w3.org/2000/svg" width="320" height="162.87103620077278" viewBox="0 0 320 162.87103620077278" class="css-1j8o68f"><defs id="SvgjsDefs6641"></defs><g id="SvgjsG6642" featurekey="nameFeature-0" transform="matrix(2.6367831113269227,0,0,2.6367831113269227,14.976926362386935,-25.088798582853805)" fill="#364F6B"><path d="M16 29.16 c0.88 -0.16 1.24 -0.04 2.04 -0.2 l0 0.12 c0.12 0.04 0.08 -0.16 0.16 -0.16 c0.16 -0.04 0.16 0.12 0.2 0.16 c0.4 -0.24 1 0.16 1.4 -0.04 c0.8 -0.04 1.44 0.4 1.24 1.32 c-0.2 0.16 -0.4 0.04 -0.56 0 c-0.4 -0.12 -0.76 0 -1.12 0 c-0.08 0 -0.12 -0.16 -0.2 -0.16 s-0.44 0.12 -0.72 0.08 c-0.36 0 -0.64 -0.08 -0.84 -0.08 c-1.76 0.04 -3.56 0.24 -5.68 0.44 c0 0.36 0.04 0.76 -0.24 0.92 c-0.04 0.16 0.16 0.04 0.12 0.16 c-0.28 0.24 0.04 0.84 -0.32 1.04 c0.16 0.28 0.08 0.6 -0.24 0.72 c0.04 0.08 0.12 0.16 0.2 0.16 c-0.16 0.76 -0.08 1.76 -0.36 2.8 c-0.12 2.68 -0.36 5.16 -0.32 8 c0.28 1.96 0.28 4.52 1.36 5.84 l0 0.28 c-0.16 0.08 -0.4 0 -0.64 0.04 c-0.08 -0.28 -0.56 -0.36 -0.52 -0.64 c-1.12 -0.96 -1.48 -2.68 -1.68 -4.48 c0.16 0.04 0.16 0.16 0.2 0.32 c0.2 0.08 0 -0.2 0.2 -0.16 c0.08 0.28 -0.12 0.24 -0.24 0.32 c0.28 0.64 0.32 1.92 0.72 2.64 c-0.12 -0.68 -0.32 -1.4 -0.36 -2.12 c-0.08 0 0 0.16 -0.04 0.24 c-0.04 -0.08 -0.2 -0.4 0 -0.4 c0.04 -0.16 -0.16 -0.12 -0.2 -0.24 c0.04 -0.12 0.16 -0.08 0.2 -0.04 c-0.08 -0.2 0 -0.56 -0.24 -0.56 c0.32 -0.12 -0.08 -0.44 0.12 -0.48 c-0.04 -0.16 -0.24 -0.16 -0.2 -0.4 c0.08 -0.04 0.16 0.12 0.12 -0.04 c0.04 -0.2 -0.04 -0.04 -0.12 -0.04 c0.04 -0.24 -0.08 -0.28 -0.04 -0.48 c0.16 0 0 0.16 0.08 0.32 c0.12 -0.16 0.08 -0.48 0 -0.72 c-0.08 0 -0.04 0.12 -0.04 0.2 c-0.08 -0.12 -0.12 -0.28 -0.12 -0.48 c0.12 0 0.12 0.08 0.12 0.2 c0.16 -0.12 0 -0.44 0.08 -0.64 c0 -0.16 -0.16 0.2 -0.2 0 c0.4 -0.8 0.12 -1.72 0.24 -2.68 c0.08 0 0.16 0 0.2 0.04 c0.04 -0.16 -0.08 -0.16 -0.24 -0.16 c0.24 -0.12 0 -0.56 0.12 -0.72 c-0.04 -0.12 -0.28 0 -0.24 -0.16 c0.08 0.08 0.16 0 0.28 0 c-0.12 -0.84 0.2 -1.96 0.2 -3.08 c0.08 -0.08 0.2 0.04 0.28 -0.12 c-0.08 -0.2 -0.08 0.08 -0.24 0 c0.08 -0.84 0.2 -1.88 0.28 -2.48 c0.24 0 0.08 0.12 0.08 0.28 c0.16 0 0.08 -0.28 0.16 -0.32 c-0.08 -0.08 -0.08 0.04 -0.24 0 c0.08 -0.36 0.08 -0.72 0.16 -1.08 c0.08 -0.12 0.24 0.08 0.28 -0.04 c0 -0.24 -0.24 0.08 -0.28 -0.08 c0.08 -0.48 0.16 -1 0.24 -1.48 c-0.16 -0.16 -0.2 0.08 -0.4 0 c-0.04 0.48 -0.12 0.92 -0.16 1.44 c-0.36 1.6 -0.32 3.2 -0.64 4.36 c0.16 0.88 -0.24 2.08 -0.12 3.12 c-0.12 1.16 0 2.68 -0.04 4.12 c0.04 0.44 0.32 1.08 0 1.36 c-0.48 -5.2 0.12 -9.72 0.8 -14.32 c-1.6 0.08 -3.28 0.52 -4.72 0.8 c-0.04 0.08 0.16 0.12 0.04 0.16 c-0.2 0 -0.12 0 -0.12 -0.16 c-0.12 -0.04 -0.12 0.08 -0.24 0.08 c0.04 0.04 0.04 0.12 0.12 0.08 c0 0.08 -0.16 0.04 -0.2 0.08 c-0.2 0.04 0 -0.04 -0.04 -0.12 c-0.24 0.12 -0.4 0.04 -0.68 0.12 c-0.04 0.16 0.16 0.04 0.08 0.2 c-0.16 0.08 -0.08 0.36 -0.28 0.4 c-0.84 2.28 -1.8 4.4 -2.72 6.56 c-0.28 1.28 -0.68 2.44 -1.16 3.52 c-0.2 1.24 -0.8 2.04 -0.92 3.36 c-0.04 0.24 -0.32 0.28 -0.28 0.6 c-0.44 0.2 -0.72 -0.04 -1.24 -0.12 c-0.32 -0.28 -0.72 -0.92 -0.24 -1.32 c0.12 -1.56 0.92 -2.68 1.2 -4.16 c0.28 -0.2 0.16 -0.56 0.52 -0.76 c0.04 -0.2 -0.04 -0.28 -0.08 -0.4 c0.04 0 0.08 0.04 0.12 0.04 c0.96 -2.28 2.04 -4.92 3.12 -7.32 l0.04 0 c0 -0.08 -0.04 -0.04 -0.04 0 c-2 0.36 -3.96 1.08 -6.04 1.32 c-0.96 0 -1.48 -0.72 -1.96 -1.36 c0.08 -0.16 -0.04 -0.56 0.12 -0.64 c0.44 0 0.76 0.12 0.96 0.28 c1.48 0.2 2.76 -0.4 3.84 -0.48 c0.08 -0.04 0.12 -0.08 0.16 -0.12 c0.4 0 0.92 0 1.2 -0.24 c0 0.04 -0.04 0.08 -0.04 0.12 c0.44 -0.04 1.04 -0.56 1.44 -0.24 c0.08 -0.12 0.32 0.04 0.32 -0.24 c0.16 0.08 0.36 0.08 0.36 -0.12 c0.04 0.04 0.04 0.16 0.12 0.16 c0.12 0 0.2 -0.08 0.36 -0.08 c0.04 -0.08 0.08 -0.2 0.08 -0.32 c0.04 -0.04 0.08 0.04 0.08 0.04 c0.08 -0.08 0.28 -0.52 0.44 -0.88 s0.36 -0.84 0.4 -1.04 c0.72 -0.92 1.04 -2.2 1.72 -3.12 c0 -0.24 0.16 -0.36 0.2 -0.6 c0.56 -0.64 0.76 -1.48 1.28 -2.04 c0.12 -0.56 0.6 -1.12 0.92 -1.64 c0.36 -0.76 0.88 -1.4 1.24 -2.16 c0.12 -0.04 0.16 -0.16 0.28 -0.2 c-0.04 -0.04 -0.04 -0.12 -0.04 -0.24 c0.4 -0.2 0.6 -0.96 1.08 -1.28 c-0.04 -0.16 0.04 -0.2 0.04 -0.28 c0.64 -0.8 1.2 -1.4 1.8 -2.12 c0.36 -0.04 0.4 0.28 0.72 0.28 c0 0.12 0.08 0.16 0.08 0.28 c0.04 0 0.08 -0.04 0.08 -0.12 c0.32 0.24 0.64 0.44 0.88 0.8 c0.08 1.96 -0.44 3.6 -0.68 5.28 c-0.2 0.08 -0.08 0.4 -0.28 0.44 c0 0.08 0.12 0.04 0.08 0.2 c-0.28 1.64 -0.68 2.8 -0.8 4.16 c-0.2 0.04 0 0.24 -0.24 0.24 c0.12 0.2 0.12 0.52 -0.16 0.56 c0 0.12 0.16 0.12 0.16 0.24 c-0.2 0.8 -0.4 1.48 -0.36 2.04 c1.6 -0.2 2.52 -0.24 3.84 -0.28 z M11.12 17.4 c-0.04 0.08 0 0.16 0.04 0.24 c-0.52 0.28 -0.64 1.04 -1.04 1.44 c0.08 0.16 -0.24 0.28 0 0.28 c0.36 -0.48 0.6 -1.04 1.04 -1.44 c0.28 -0.68 0.84 -1.04 1.16 -1.68 c0.2 -0.12 0.56 -0.52 0.44 -0.64 c-0.52 0.52 -1 1.28 -1.64 1.8 z M12.8 16.2 l0 0.08 c0.12 0.08 0.12 -0.16 0.04 -0.16 c0 0.04 0 0.08 -0.04 0.08 z M12.12 17.04 l-0.04 0 c-0.88 1.08 -1.68 2.16 -2.36 3.4 c0.08 0 0.08 0.04 0.08 0.12 c-0.04 -0.04 -0.08 -0.04 -0.12 -0.04 c-0.32 0.44 -0.72 0.76 -0.84 1.36 l-0.12 0 c-0.72 1.36 -1.44 2.48 -2.16 3.8 c0.04 0.2 -0.12 0.4 -0.28 0.48 c-0.4 1.24 -1.12 1.92 -1.52 3.28 c-0.12 0.04 -0.12 0.24 -0.32 0.28 c0.08 0.16 0.2 0.28 0.04 0.44 l0 -0.2 c-0.28 0.16 -0.36 0.56 -0.44 0.8 c0.2 0.04 0.12 -0.2 0.24 -0.24 c0.6 -0.08 0.56 -0.92 0.96 -1.2 l0 0.12 c0.04 0 0.08 0.04 0.12 0.04 c0 -0.12 0 -0.24 -0.12 -0.16 c0.04 -0.12 -0.12 -0.08 -0.08 -0.24 l0.2 0 c0.12 -0.6 0.4 -1 0.72 -1.44 c-0.04 0.4 -0.4 0.68 -0.36 0.96 c0.2 -0.2 0.32 -0.72 0.56 -0.76 c-0.48 0.88 -0.92 1.96 -1.36 2.68 c1.8 -0.32 3.4 -0.64 5.28 -0.84 c0 -0.28 0.08 -0.76 0.28 -0.96 c0 -0.16 -0.08 -0.2 -0.08 -0.36 c0.36 -1.8 0.8 -3.84 1.08 -5.68 c0.12 -0.04 0.12 -0.16 0.2 -0.2 c0.12 -1.72 0.76 -3.16 0.84 -4.76 c-0.28 0.48 -0.64 1.16 -1.08 1.36 c0.04 0.44 -0.36 0.6 -0.56 0.88 c-0.2 0.24 -0.12 0.52 -0.4 0.48 l0 0.24 c-0.08 0.08 -0.12 0.12 -0.24 0.16 c-0.56 1.12 -1.44 2.04 -1.76 3.2 c-0.2 0.04 -0.28 0.36 -0.44 0.32 c0.04 0.12 0 0.08 0 0.28 c-0.72 0.84 -1 2.16 -1.68 2.92 c-0.04 -0.28 0.24 -0.28 0.2 -0.56 c0.08 -0.04 0 -0.08 0 0 c-0.28 0.08 -0.2 0.56 -0.52 0.6 c0.16 -0.28 -0.08 -0.36 0 -0.56 c0.08 -0.04 -0.04 0.2 0.12 0.12 c0.24 -0.04 0.08 -0.32 0.12 -0.36 c0.28 0.08 0.76 -0.28 0.64 -0.64 c-0.08 0.08 -0.12 0.28 -0.16 0.4 c-0.16 -0.08 -0.2 0.16 -0.24 0.04 c0.16 -0.48 0.52 -0.64 0.4 -1.2 l0.32 0 c0.04 -0.16 -0.16 -0.08 -0.16 -0.2 c0.08 -0.08 0.16 -0.12 0.08 -0.28 c0.12 -0.08 0.12 -0.08 0.24 -0.04 c0.04 -0.16 -0.04 -0.2 -0.04 -0.28 c0.08 -0.08 0.28 0.04 0.36 -0.16 c-0.12 0 -0.24 0.04 -0.2 -0.08 c0.16 0 0.24 -0.08 0.36 -0.12 c0.24 -0.52 0.04 -1.12 0.64 -1.4 c0 -0.2 0.04 -0.36 0.2 -0.4 c0.16 0.12 0.2 -0.12 0.28 -0.2 c-0.08 0 -0.16 0 -0.16 -0.12 c0.08 -0.04 0.16 -0.16 0.32 -0.12 c-0.08 -0.32 0.12 -0.48 0.24 -0.84 c0.08 0.12 0.12 0.12 0.28 0.08 c0.04 -0.2 -0.24 -0.08 -0.2 -0.24 c0.04 -0.32 0.32 -0.36 0.52 -0.48 c-0.08 0 -0.16 -0.04 -0.12 -0.16 c0.24 -0.16 0.24 -0.6 0.56 -0.72 c-0.04 0.04 -0.04 0.08 -0.04 0.16 c0.32 -0.12 0.04 -0.76 0.52 -0.84 c-0.04 0.2 0.16 0.04 0 0 c0.04 -0.28 0.28 -0.76 0.68 -0.84 c-0.08 -0.24 0.08 -0.52 0.36 -0.56 c-0.12 -0.24 0.12 -0.28 0.16 -0.52 l0.04 0 c0 -0.04 0.08 -0.04 0.16 -0.04 c0.04 -0.32 0.36 -0.4 0.48 -0.68 c-0.28 0.2 -0.68 0.44 -0.68 0.72 z M12.36 17.2 c0 -0.08 -0.04 -0.12 -0.08 -0.16 c0 0.08 -0.04 0.16 0.08 0.16 z M9.8 19.68 l-0.04 0 c-0.08 0.2 -0.24 0.24 -0.32 0.4 c0 -0.16 -0.2 0.04 0 0 c-1.76 2.96 -3.52 6 -4.96 9.16 c-0.16 0.04 -0.08 0.28 -0.28 0.28 c0.12 0.44 -0.56 0.96 -0.44 1.24 c0.48 -0.56 0.68 -1.24 0.96 -1.92 c0.08 -0.16 0.28 -0.32 0.4 -0.52 c0.28 -0.52 0.48 -1.12 0.76 -1.68 c0.32 -0.6 0.64 -1.08 0.92 -1.76 c0.24 -0.56 0.68 -1.04 1 -1.6 c0.16 -0.28 0.24 -0.68 0.44 -1 s0.44 -0.6 0.68 -0.96 c0.32 -0.56 0.68 -1.04 0.88 -1.64 c0.12 -0.04 0.16 -0.16 0.2 -0.28 c-0.16 0 -0.12 0.16 -0.2 0.28 z M10.2 20.2 c-0.12 0.16 0.16 -0.08 0 0 l0 0 z M9.52 21.36 c-0.04 0.04 -0.08 0 -0.08 0.04 c0.04 0 0.08 0 0.08 -0.04 z M12.36 21.56 c0 -0.04 -0.08 -0.04 -0.08 0 c0.04 0 0.04 0.08 0.08 0 z M12.16 22.12 c-0.04 0.2 0.16 0.04 0 0 c0.16 -0.12 -0.16 -0.08 0 0 z M7.84 22.52 c0.04 0.04 0 0 0 0 l0 0 z M8.92 22.68 c0.08 0.04 0.2 -0.2 0.08 -0.2 c-0.04 0.08 -0.08 0.12 -0.08 0.2 z M12.08 22.52 c0 -0.04 -0.08 -0.04 -0.12 0 c0.08 0 0.08 0.08 0.12 0 z M8.68 22.68 c-0.12 0.16 0.16 -0.12 0 0 l0 0 z M11.96 23.16 l-0.04 0 c0 0.08 -0.12 0.04 -0.08 0.16 c0.12 0.04 0.2 0 0.24 -0.08 c-0.04 0 -0.08 -0.04 -0.12 -0.08 l0.08 0 c0 -0.2 -0.04 -0.32 0 -0.48 c-0.04 0.04 -0.12 0.04 -0.16 0.04 c0.08 0.16 -0.04 0.28 0.08 0.44 z M7.4 23.16 c0.04 0 0 -0.04 0 0 l0 0 z M12.8 23.16 c0.04 0.16 0.04 -0.2 0 0 l0 0 z M8.2 23.44 l0.12 0 l0 -0.16 l-0.12 0 l0 0.16 z M8.52 23.4 c-0.04 0 -0.04 0.04 -0.04 0.08 c-0.16 0 0.04 0.2 0 0 c0.04 0 0.04 -0.04 0.04 -0.08 c0.08 -0.04 0 -0.08 0 0 z M11.44 25.6 l0.04 0 c0.04 -0.08 0.08 -0.2 0.16 -0.24 c-0.12 -0.16 0 -0.52 0.16 -0.68 c-0.24 -0.48 0.4 -0.92 0 -1.24 c-0.04 0.2 -0.08 0.16 -0.2 0.28 c0.04 0.08 0.16 0 0.2 0.08 c-0.24 0.16 -0.12 0.76 -0.48 0.6 c0.12 0.16 -0.04 0.24 0.12 0.36 c-0.12 0.08 0.04 0.24 -0.2 0.32 c0.04 0.04 0.2 0 0.2 0.08 c-0.04 0.2 -0.28 0.48 -0.08 0.64 c-0.12 0 -0.16 0.08 -0.24 0 c0 0.08 0.24 0.24 -0.04 0.24 c0.16 0.28 -0.12 0.76 -0.08 1.12 c-0.08 0.08 -0.04 0 -0.16 0 c0.04 0.2 -0.08 0.56 0.12 0.68 c-0.16 0 -0.16 0.08 -0.28 0.12 c0.04 0.08 -0.04 0.32 0.04 0.32 c0 -0.08 0.2 0 0.2 0.04 c-0.12 0 -0.04 0.16 -0.16 0.16 c-0.08 0 -0.04 -0.16 -0.12 -0.16 c-0.12 0.44 -0.08 0.8 -0.2 1.12 c0.2 -0.08 0.08 0.16 0.2 0.2 c0 -0.12 0.08 0.04 0.2 0 c0 -0.16 -0.08 -0.24 -0.12 -0.36 l0.16 0 c0 -0.8 0.4 -1.6 0.28 -2.12 c0.12 -0.32 0.36 -1.08 0.28 -1.56 z M8.08 23.56 l0.12 0 l0 -0.08 l-0.12 0 l0 0.08 z M7.76 24.84 c0 -0.08 0.08 -0.12 0 -0.16 c0 0.04 -0.08 0.12 0 0.16 z M6.4 25 c-0.12 0.16 0.16 -0.08 0 0 l0 0 z M7.4 25.08 c-0.04 0 -0.04 -0.08 -0.08 -0.12 c-0.04 0.12 0.08 0.24 0.08 0.12 z M11.84 25 c0.12 0.2 0.08 -0.16 0 0 l0 0 z M6.32 25.2 c0.04 0.04 -0.04 0 0 0 l0 0 z M7 25.68 c0.08 0.04 0.2 -0.28 0.04 -0.24 c0.04 0.16 -0.08 0.12 -0.04 0.24 z M7.28 25.68 c-0.04 -0.16 0.08 -0.12 0.08 -0.24 c-0.12 -0.04 -0.2 0.2 -0.08 0.24 z M12.08 25.48 c-0.04 0.32 0 -0.16 0 0 l0 0 z M12.16 25.880000000000003 c0.16 0.04 0.2 -0.32 0.12 -0.4 c0 0.2 -0.08 0.16 -0.12 0.4 z M12.56 25.84 c0.04 0.2 0.04 -0.2 0 0 l0 0 z M7.08 25.96 c-0.2 0.04 0 0.24 0 0 c0.16 -0.04 -0.04 -0.24 0 0 z M5.88 26.16 c0.04 -0.04 0.2 -0.2 0.04 -0.28 c0 0.08 -0.16 0.24 -0.04 0.28 z M11.6 26.28 c-0.12 0.16 0.16 -0.12 0 0 l0 0 z M12.08 26.6 l-0.04 0 c-0.04 0.04 -0.08 0.12 0 0.16 c0 -0.04 0.04 -0.08 0.04 -0.16 c0.08 -0.04 0 -0.04 0 0 z M11.36 27.6 c0 -0.12 0.16 -0.52 0 -0.52 c0 0.2 -0.08 0.36 0 0.52 z M12.2 27.28 c-0.08 0.16 0.16 -0.12 0 0 l0 0 z M11.84 27.36 c0.12 0.2 0.08 -0.16 0 0 l0 0 z M11.68 27.52 c0 -0.04 0 -0.08 0.04 -0.04 c0 -0.08 0 -0.12 -0.08 -0.12 c0 0.08 0 0.16 0.04 0.16 z M11.92 27.52 c-0.04 0.28 0.04 -0.2 0 0 l0 0 z M11.8 27.52 c-0.16 0.28 0.2 0.16 0 0 l0 0 z M11.6 27.64 c0.04 0.04 -0.04 0 0 0 l0 0 z M11.6 27.72 c-0.04 0.28 0.2 0 0 0 l0 0 z M11.2 27.96 c0.04 0 0.08 0.04 0.12 0.04 c-0.04 -0.08 0 -0.16 -0.12 -0.16 l0 0.12 z M11.88 28.119999999999997 c0.04 0 0.04 0.04 0.08 0.08 c0 -0.08 0.04 -0.16 -0.08 -0.16 l0 0.08 z M11.2 28.2 c0.04 0 0 -0.04 0 0 l0 0 z M11.8 28.48 c0.04 -0.08 0.04 -0.12 0.04 -0.24 c-0.2 -0.04 -0.2 0.24 -0.04 0.24 z M11.12 28.68 l0.08 0 l0 -0.12 l-0.08 0 l0 0.12 z M11.44 28.6 c0.08 0.2 0.08 -0.16 0 0 l0 0 z M19.96 29.16 c0 0 -0.04 -0.04 0 0 l0 0 z M11.8 29.240000000000002 c0 0.04 -0.04 0 0 0 l0 0 z M11.32 29.28 c0 0.04 -0.04 0 0 0 l0 0 z M14.72 29.240000000000002 c-0.04 0 -0.12 0 -0.12 0.04 c0.04 0 0.12 0 0.12 -0.04 z M10.96 29.439999999999998 c0.04 0.04 0 -0.04 0 0 l0 0 z M15.2 29.8 c0.04 0 0.08 -0.04 0.12 -0.04 c0 0.12 -0.08 0.16 0.08 0.2 c0.12 -0.04 0.12 -0.12 0.12 -0.2 c0.12 0 0 0.24 0.16 0.16 c0.04 -0.24 0.4 -0.12 0.52 -0.04 c1.04 -0.56 3.08 0.12 4 -0.16 c-0.04 0 -0.08 0 -0.08 -0.04 c0.08 -0.04 0 -0.08 0 0 c-0.28 -0.2 -0.68 -0.08 -0.96 -0.12 c0.04 -0.04 0.08 -0.04 0.08 -0.08 c-0.32 0.12 -0.64 -0.12 -0.92 0.04 c-0.04 0 -0.04 -0.04 -0.04 -0.08 c-0.88 0.08 -1.56 0 -2.64 0.08 c-0.12 0.04 -0.08 -0.12 -0.16 -0.12 c-1.08 0.36 -2.24 0.16 -3.52 0.4 c0.12 0.24 -0.12 0.28 0.08 0.44 c0.6 -0.16 1.24 -0.24 1.84 -0.2 c-0.04 0 0 -0.04 0 -0.04 c0.16 0.16 0.2 -0.04 0.32 -0.08 c0.28 0.16 0.92 0.08 1 -0.12 z M15.76 29.4 c-0.04 -0.04 -0.12 0.04 -0.12 0.04 c-0.08 0.08 0.16 -0.04 0.12 -0.04 z M16 29.4 c-0.04 0 -0.08 0 -0.08 0.04 c0.04 0 0.08 0 0.08 -0.04 z M10.4 29.64 c0.08 0.16 0.12 -0.2 0 0 l0 0 z M5.12 29.759999999999998 l0.08 0 l0 -0.08 l-0.08 0 l0 0.08 z M20.48 29.759999999999998 l0 0.04 c0.04 0.04 0.12 0.08 0.2 0.08 c0.04 -0.16 -0.12 -0.08 -0.2 -0.12 c0 -0.12 -0.2 0.04 0 0 z M17.64 29.880000000000003 c0.08 0 0.12 -0.04 0.16 -0.12 c-0.08 0 -0.2 0 -0.16 0.12 z M17.84 29.8 c0.04 0.04 -0.04 0 0 0 l0 0 z M11.48 29.880000000000003 c-0.04 0 -0.08 0 -0.08 0.04 c0.04 0 0.08 0 0.08 -0.04 z M10.44 30.36 l-0.16 0 c-0.04 0.12 0.24 0.12 0.16 0 c0.08 0.08 0.2 0.04 0.24 -0.08 c-0.04 0 -0.08 -0.04 -0.08 -0.08 c0.12 0 0.12 -0.08 0.16 -0.16 c-0.04 0 -0.04 -0.04 -0.04 -0.08 c-0.16 -0.04 -0.2 0.08 -0.36 0.04 c0 0.08 -0.08 0.28 0.04 0.28 c0 -0.04 0 -0.12 0.04 -0.12 l0 0.2 z M11.44 30 c0.08 0.2 0.08 -0.16 0 0 l0 0 z M6.84 30.880000000000003 c0.16 0.08 0.16 -0.08 0.32 -0.12 c0 0.04 -0.04 0.08 -0.04 0.16 c0.16 -0.04 0.16 -0.12 0.36 -0.04 c0.08 -0.08 -0.08 -0.16 0.08 -0.2 c0.08 0.24 0.04 -0.08 0.24 -0.04 c0.04 0.04 0 0.08 0 0.12 c0.16 0.04 0.16 -0.08 0.24 -0.12 c0 0.2 0.32 -0.08 0.4 0.12 c0.08 -0.16 0.24 0 0.36 -0.08 c-0.08 0 -0.04 -0.28 0.12 -0.2 c-0.2 0.2 0.24 0.12 0.32 0.2 c0.04 -0.24 0.44 0 0.52 -0.24 c0.24 0.12 0.44 -0.12 0.44 -0.4 c-0.92 0.04 -1.64 0.36 -2.6 0.36 c-0.56 0.16 -1.08 0.32 -1.64 0.32 c-0.4 0.32 -1.04 0.12 -1.32 0.52 c0.64 -0.2 1.28 -0.2 1.92 -0.4 c0 0.04 0.08 0.08 0.08 0.12 c0.12 0.04 0.12 -0.08 0.2 -0.08 z M4.92 30.240000000000002 c0 0 0 -0.04 0.04 -0.04 c0 -0.04 0 -0.12 -0.08 -0.08 c0 0.04 0 0.12 0.04 0.12 z M11.6 30.2 l0.08 0 l0 -0.08 l-0.08 0 l0 0.08 z M4.64 30.64 c0.08 0 0.12 -0.04 0.12 -0.12 c-0.04 0.04 -0.16 0 -0.12 0.12 z M10.84 30.84 c0 -0.08 -0.08 -0.08 -0.12 0 c0.08 0 0.08 0.04 0.12 0 z M11.56 31 c0.04 -0.04 0.04 -0.16 -0.08 -0.16 c0.04 0.04 0 0.16 0.08 0.16 z M4.48 31.16 c0.04 0.04 0 0 0 0 l0 0 z M5.96 31.2 c0.08 -0.16 -0.28 -0.12 -0.28 -0.04 c0.16 -0.04 0.2 0.04 0.28 0.04 z M3.72 31.4 c-0.08 0.04 0 0.08 0 0 c0.16 -0.08 0.44 -0.04 0.52 -0.2 c-0.16 -0.08 -0.48 0.04 -0.52 0.2 z M4.36 31.16 c-0.2 0.24 0.28 0.08 0 0 l0 0 z M6.88 31.2 c0.04 0.04 0 0 0 0 l0 0 z M10.52 31.96 c0.12 -0.16 0.32 -0.6 0.16 -0.8 c-0.04 0.28 -0.12 0.52 -0.16 0.8 z M11.56 31.32 l0 -0.16 c-0.08 0 -0.16 0 -0.16 0.04 c0.08 0 0.04 0.12 0.16 0.12 z M4.64 31.36 c0.04 0.2 0.04 -0.2 0 0 l0 0 z M3.32 31.48 c0.12 0 0.24 -0.04 0.24 -0.12 c-0.12 -0.04 -0.16 0.04 -0.24 0.12 z M2.6 31.64 l-0.04 0 l0 -0.04 c-0.16 -0.04 -0.2 0.08 -0.28 0 c-0.04 0.16 0.24 0.08 0.28 0.04 c0 0.04 0.04 0.04 0.04 0 c0.16 0.12 0.36 -0.04 0.2 -0.2 c-0.04 0.12 -0.24 0.04 -0.2 0.2 z M10.96 31.560000000000002 c0.08 0.16 0.08 -0.2 0 0 l0 0 z M11.6 31.68 c-0.08 0 -0.04 -0.12 -0.16 -0.08 c-0.04 0.08 0.12 0.2 0.16 0.08 z M1.84 31.8 c0.08 -0.04 0.28 0.04 0.24 -0.12 c-0.12 0 -0.2 0.04 -0.24 0.12 z M11.2 32.04 c0 -0.08 0.04 -0.24 -0.08 -0.2 c-0.04 0.12 0 0.16 0.08 0.2 z M3.52 32.12 c-0.16 0.08 0.16 0 0.12 0.08 c-0.16 0.12 -0.28 0.12 -0.36 -0.04 c-0.08 0.28 -0.16 0.6 -0.36 0.72 c0 0.52 -0.6 1.12 -0.6 1.64 c-0.16 0.04 -0.2 0.24 -0.24 0.4 c0.16 0.04 0.12 -0.08 0.2 -0.12 c0.04 0.2 -0.08 0.2 -0.04 0.4 c0.28 -0.28 0.68 -0.96 0.48 -1.44 c0.44 -0.28 0.88 -1.08 1 -1.68 c-0.04 0.12 -0.12 -0.08 -0.2 0.04 z M2.12 34.24 c0.32 -0.44 0.56 -0.92 0.72 -1.48 c0.08 -0.16 0.4 -0.52 0.24 -0.56 c-0.44 0.56 -0.68 1.32 -0.96 2.04 z M3.68 32.84 c0.04 -0.08 0.04 -0.16 -0.04 -0.2 c0 0.08 -0.04 0.2 0.04 0.2 z M10.48 32.88 c0 -0.08 -0.04 -0.12 -0.08 -0.12 c0 0.08 0 0.16 0.08 0.12 z M11.2 32.88 c0.04 0.04 0 0 0 0 l0 0 z M10.36 33.08 c-0.04 0.28 0 -0.2 0 0 l0 0 z M11.16 33.12 c0.08 0.16 0.12 -0.16 0 0 l0 0 z M11.44 33.12 c-0.04 0 -0.04 -0.04 -0.12 -0.04 c-0.08 0.12 0.16 0.16 0.12 0.04 z M10.44 33.36 c0 -0.04 -0.08 -0.04 -0.08 0 c0.04 0 0.04 0.08 0.08 0 z M10.64 33.6 c0.08 -0.08 0.12 -0.16 0 -0.24 c-0.12 0.12 -0.04 0.68 0 0.24 z M10.84 33.4 c0.12 0.2 0.04 -0.16 0 0 l0 0 z M11.12 33.84 c-0.04 -0.12 0.12 -0.24 0 -0.32 c-0.04 0.04 -0.12 0.32 0 0.32 z M10.72 33.96 c0.08 0 0.2 0.16 0.24 0.04 c-0.12 -0.04 0.04 -0.32 -0.12 -0.28 c0 0.12 -0.08 0.12 -0.12 0.24 z M11.08 34 c0 0.04 -0.04 -0.04 0 0 l0 0 z M10.24 34.08 c0.08 0.2 0.08 -0.16 0 0 l0 0 z M10.24 34.28 c0.04 0.04 0 0 0 0 l0 0 z M1.64 35.519999999999996 c0.12 -0.36 0.56 -0.88 0.4 -1.2 c-0.04 0.48 -0.48 0.76 -0.4 1.2 z M11 34.480000000000004 c0.04 0.04 0 -0.04 0 0 l0 0 z M10.72 34.84 c0.08 0.16 0.12 -0.16 0 0 l0 0 z M10.16 34.96 c0.04 0.2 0.04 -0.2 0 0 l0 0 z M1.4 36.68 c0.04 -0.04 0.08 -0.04 0.16 -0.04 c-0.08 -0.2 0.08 -0.52 0.4 -0.48 c-0.04 -0.08 0.04 -0.24 -0.08 -0.24 c0.04 0.12 0 0.16 -0.08 0.2 c0 -0.08 -0.04 -0.08 -0.04 -0.12 c0.12 -0.04 0.08 -0.24 0.2 -0.32 c0 0.08 0 0.16 0.08 0.2 c0 -0.24 0.16 -0.36 0.2 -0.56 c-0.12 0 -0.16 0.24 -0.24 0.08 c0 -0.08 0.08 -0.12 0.2 -0.12 c-0.08 -0.08 -0.04 -0.32 -0.16 -0.32 c-0.24 0.52 -0.52 1.12 -0.64 1.72 z M10.92 35 c0 0.36 0.12 -0.16 0 0 l0 0 z M10.76 36.12 c0.24 -0.16 0.2 -0.64 0.16 -0.92 c-0.08 0.28 -0.08 0.6 -0.16 0.92 z M10.4 35.24 l0 0.04 c-0.24 0.28 0.24 -0.08 0 -0.04 z M10.24 35.4 c0.04 0 0 -0.04 0 0 l0 0 z M10.12 35.64 c0 -0.04 0.12 -0.2 0 -0.2 c0.04 0.08 -0.16 0.16 0 0.2 z M1.52 35.72 c-0.12 0.16 -0.32 0.44 -0.2 0.64 c0.04 -0.24 0.24 -0.32 0.2 -0.64 l0.04 0 c0 -0.04 0 -0.04 0.04 -0.04 l0 -0.12 c-0.08 0 -0.08 0.08 -0.08 0.16 z M10.4 35.68 c0.04 0.04 -0.04 -0.04 0 0 l0 0 z M10.48 35.8 c0.08 0.2 0.08 -0.16 0 0 l0 0 z M10.28 35.96 l0.12 0 l0 -0.08 l-0.12 0 l0 0.08 z M10.6 36.04 c0 0.04 -0.04 0 0 0 l0 0 z M10.92 36.2 l0 0.08 c0.12 0.08 0.16 -0.16 0.04 -0.12 c0 0.04 0 0.04 -0.04 0.04 z M10.88 36.2 c-0.04 0 -0.12 0 -0.12 0.04 c0.04 0 0.12 0 0.12 -0.04 z M10.76 36.72 c0.08 -0.16 0.16 -0.32 0 -0.44 c0.08 0.2 -0.12 0.36 0 0.44 z M10 36.48 c0.08 0.2 0.08 -0.16 0 0 l0 0 z M1.12 36.72 c0 -0.04 0.2 -0.24 0 -0.24 c0.04 0.08 -0.12 0.2 0 0.24 z M9.96 36.64 c0.04 0.04 0 -0.04 0 0 l0 0 z M10.24 36.64 c0.04 0.04 0 -0.04 0 0 l0 0 z M0.92 37.6 c0.12 0.04 0.2 0.08 0.32 0.08 c0.04 -0.04 0.04 -0.12 0.04 -0.24 c-0.12 0 -0.12 0.08 -0.16 0.12 c-0.04 -0.24 0.24 -0.2 0.28 -0.32 c-0.04 -0.2 -0.16 -0.32 0.12 -0.4 c-0.12 0 -0.08 -0.16 -0.2 -0.12 c-0.12 0.28 -0.24 0.6 -0.4 0.88 z M1 36.88 l0 0.08 l0.08 0 c0 0 0 -0.04 0.04 -0.04 l0 -0.08 l-0.08 0 c0 0 0 0.04 -0.04 0.04 z M9.96 36.88 c0.04 0.2 0.04 -0.2 0 0 l0 0 z M10.6 39.12 c0.08 -0.08 -0.04 -0.12 0 -0.28 c0.04 -0.68 0.16 -1.32 0.08 -1.88 c-0.04 0.72 -0.24 1.48 -0.08 2.16 z M9.92 37.16 c0.04 0.04 -0.04 0 0 0 l0 0 z M10.16 37.16 c0.04 0.2 0.04 -0.2 0 0 l0 0 z M10.48 37.16 c-0.08 -0.04 -0.24 0.08 -0.08 0.08 c0 -0.04 0.08 0 0.08 -0.08 c0.08 -0.04 0 -0.04 0 0 z M0.8 37.48 c0.04 -0.08 0.12 -0.12 0.12 -0.28 l-0.12 0 c0.04 0.12 -0.16 0.24 0 0.28 z M10.04 37.6 c0.04 0.04 0 -0.04 0 0 l0 0 z M10.24 37.84 c0.04 0.04 0 -0.04 0 0 l0 0 z M10.36 38.2 c0.04 -0.04 0.04 -0.2 -0.12 -0.16 c0 0.08 0.04 0.16 0.12 0.16 z M9.8 38.2 c0.08 0.2 0.08 -0.16 0 0 l0 0 z M0.64 38.28 l0 0.08 c0.12 0.08 0.16 -0.16 0.04 -0.16 c0 0.04 0 0.08 -0.04 0.08 z M0.44 38.4 c-0.04 0.04 0.04 0.08 0 0 c0.16 0 -0.04 -0.2 0 0 z M9.88 38.64 c-0.04 0.04 -0.12 0 -0.12 0.04 c0.04 0 0.12 0 0.12 -0.04 z M10.2 39.36 c-0.12 0.16 0.16 -0.12 0 0 l0 0 z M10.48 39.36 c-0.04 0.28 0.04 -0.2 0 0 l0 0 z M10.2 39.6 c0.04 0.2 0.04 -0.16 0 0 l0 0 z M10.84 39.6 c-0.16 -0.12 -0.16 0.2 0 0 l0 0 z M10.52 39.88 c-0.04 -0.12 0.2 -0.28 -0.04 -0.28 c0.04 0.08 -0.04 0.28 0.04 0.28 z M9.92 39.88 c0.04 0.04 -0.04 0 0 0 l0 0 z M10.24 39.84 c-0.04 0.04 -0.08 0 -0.08 0.04 c0.04 0 0.08 0 0.08 -0.04 z M9.72 40 c0.04 0.04 0 -0.04 0 0 l0 0 z M10.52 40.04 c0 -0.04 -0.08 -0.04 -0.08 0 c0.04 0 0.08 0.08 0.08 0 z M10.12 40.12 c0.04 0.16 0.12 -0.16 0 0 l0 0 z M10.48 41.24 c0.04 -0.24 0.16 -0.8 -0.04 -1.04 c0 0.28 -0.08 0.84 0.04 1.04 z M9.76 40.68 c0.04 -0.12 0 -0.2 -0.08 -0.2 c0 0.08 -0.04 0.24 0.08 0.2 z M10.12 41.68 c0.04 -0.24 0.12 -0.56 0 -0.72 c-0.04 0.24 -0.08 0.48 0 0.72 z M10.48 41.48 c0 -0.04 0 -0.04 0.04 -0.04 c0 -0.08 0 -0.12 -0.08 -0.12 c0 0.08 0 0.16 0.04 0.16 z M9.88 41.72 l0.08 0 l0 -0.08 l-0.08 0 l0 0.08 z M10.4 42.04 c0.04 0.24 -0.12 0.4 0.04 0.44 c-0.04 -0.16 0.16 -0.36 -0.04 -0.44 c0.04 -0.24 -0.16 -0.04 0 0 z M10.16 42.24 c-0.04 -0.08 0.04 -0.28 -0.04 -0.28 c-0.08 0.08 -0.04 0.24 0.04 0.28 z M9.8 42.04 c0.04 0.04 0 0 0 0 l0 0 z M10.04 42.44 c0.04 0.04 0 0 0 0 l0 0 z M9.88 42.64 c0 0.04 -0.04 -0.04 0 0 l0 0 z M10.12 42.84 c-0.04 -0.08 0.04 -0.28 -0.08 -0.24 c-0.04 0.04 0 0.2 0.08 0.24 z M10.36 43.12 c0.2 0 0.12 -0.48 0 -0.52 c0.04 0.2 0 0.28 0 0.52 z M9.88 43 c0 0.04 -0.04 0 0 0 l0 0 z M10.12 43.32 c-0.04 -0.12 0.12 -0.24 -0.08 -0.2 c0.04 0.08 0 0.16 0.08 0.2 z M10.4 44.12 c-0.04 0.24 0.08 0.24 0.04 0 c-0.08 -0.32 0.12 -0.6 0 -0.8 c0 -0.04 -0.04 -0.08 -0.08 -0.08 c0 0.32 -0.04 0.64 0.04 0.88 z M10.4 44.88 c0.04 0 0.04 0.04 0.08 0.04 c0 -0.04 0 -0.16 -0.08 -0.12 l0 0.08 z M10.44 45.12 c0 0.4 0.12 -0.16 0 0 l0 0 z M10.52 45.96 c0.12 -0.04 0 -0.4 -0.08 -0.24 c0.12 -0.04 -0.04 0.24 0.08 0.24 z M10.52 46.24 c-0.04 0.28 0.04 -0.2 0 0 l0 0 z M10.84 47.88 c-0.08 -0.2 0 -0.48 -0.16 -0.56 c0.08 0.16 0 0.48 0.16 0.56 z M8.36 20.68 l0.12 0 l0 0.12 l-0.12 0 l0 -0.12 z M7.64 24.119999999999997 c0.04 -0.08 0.12 -0.04 0.2 -0.08 c0 0.12 -0.12 0.12 -0.2 0.08 z M11.44 24.52 c0.08 -0.16 0.08 0.2 0 0 l0 0 z M11.44 25.6 c-0.04 0 -0.12 -0.08 -0.04 -0.12 c0.04 0.04 0.04 0.04 0.04 0.12 z M6.44 26.119999999999997 c0.2 0.04 0.08 0.16 0 0.24 c-0.08 0 0 -0.2 0 -0.24 z M11.16 26.6 c0.04 -0.2 0.04 0.2 0 0 l0 0 z M6.08 26.92 c0 -0.04 0.04 0 0.08 -0.04 c0 0.04 -0.04 0.04 -0.08 0.04 z M5.68 27.64 l0.12 0 l0 0.12 l-0.12 0 l0 -0.12 z M5.56 27.96 c0.2 0 -0.08 0.28 0 0 l0 0 z M4.24 28.36 c0 -0.08 -0.04 -0.24 0.12 -0.16 c-0.04 0.08 -0.04 0.16 -0.12 0.16 z M4.24 28.36 c0 0.12 -0.04 0.24 -0.2 0.2 c0.04 -0.12 0.08 -0.16 0.2 -0.2 z M5.24 28.48 c0.2 -0.04 0.04 0.16 0.08 0.24 c-0.12 0 -0.04 -0.16 -0.08 -0.24 z M4 28.6 l0.12 0 l0 0.12 l-0.12 0 l0 -0.12 z M10.76 28.72 c0.08 -0.2 0.08 0.2 0 0 l0 0 z M10.68 28.84 c0.04 -0.16 0.04 0.2 0 0 l0 0 z M16 29.16 c-0.04 -0.08 -0.08 -0.16 -0.24 -0.12 c0.08 -0.12 0.12 -0.04 0.28 -0.04 c0 0.08 -0.04 0.08 -0.04 0.16 z M14.96 29.04 c0 -0.04 0.04 -0.04 0.08 -0.04 c0 0.04 -0.04 0.04 -0.08 0.04 z M15.08 29.04 c0 -0.04 0.08 -0.04 0.12 -0.04 c0 0.04 -0.08 0.04 -0.12 0.04 z M15.32 29.04 l0 0 c0.08 0 0 -0.04 0 0 z M15.56 29.04 c0.04 -0.04 0.12 -0.04 0.16 -0.04 c0 0.04 -0.08 0.04 -0.16 0.04 z M3.8 29.04 c0.16 0.08 -0.04 0.24 -0.04 0.28 c-0.12 -0.04 0.04 -0.2 0.04 -0.28 z M10.68 29.04 l0.08 0 c0.04 0.12 -0.04 0.12 -0.12 0.12 c0 -0.04 0.04 -0.08 0.04 -0.12 z M15.32 29.04 l0 0 c-0.04 0.04 0.04 0.08 0 0 z M13.96 29.16 c0 -0.08 0.08 -0.08 0.08 0 c-0.04 0.04 -0.04 0 -0.08 0 z M4.76 29.439999999999998 c0.08 0 0.12 0 0.12 0.08 c-0.08 0 -0.12 0 -0.12 -0.08 z M9.88 29.560000000000002 l0 0 c0 0.04 -0.04 0 0 0 z M17.8 29.560000000000002 c0.04 -0.16 0.04 0.2 0 0 l0 0 z M18.32 29.52 c0.04 0 0.04 0.08 0 0 l0 0 z M19.16 29.560000000000002 c0 0.04 -0.04 0.08 -0.04 0 l0.04 0 z M19.52 29.64 l0 0 c0.04 0 -0.04 -0.04 0 0 z M3.52 29.68 l0 0 c0.04 0.04 0 -0.04 0 0 z M15 29.8 c0.16 -0.08 -0.12 0.16 0 0 l0 0 z M15.2 29.8 c-0.04 0 -0.08 -0.04 0 -0.04 l0 0.04 z M14.32 29.880000000000003 c0 -0.08 0.08 -0.04 0.12 -0.08 c0 0.08 -0.08 0.04 -0.12 0.08 z M14.76 29.880000000000003 c0.04 -0.04 0.08 0 0.08 -0.08 c-0.04 0.04 -0.08 0 -0.08 0.08 z M13.8 29.880000000000003 l0.08 0 l0 0.08 l-0.08 0 l0 -0.08 z M13 29.96 c0.16 -0.12 -0.12 0.16 0 0 l0 0 z M12.32 30.04 l0 0 c0.04 0.04 -0.04 0 0 0 z M12.52 30.04 l0 0 c0 0.04 -0.04 0 0 0 z M12.76 30.04 l0 0 c0 0.04 -0.04 0 0 0 z M12.04 30.119999999999997 l0 0 s-0.04 -0.04 0 0 z M9.76 30.439999999999998 c-0.04 0 -0.04 -0.08 0 -0.08 s0.12 0 0.12 0.04 c-0.04 0 -0.12 0 -0.12 0.04 z M4.28 30.52 c0.04 -0.04 0.04 -0.08 0.12 -0.08 c0 0.04 -0.08 0.08 -0.12 0.08 z M9.04 30.52 l0 0 c0.04 0.04 0 0 0 0 z M8.52 30.64 l0 0 c0.04 0.04 0 -0.04 0 0 z M6.84 30.880000000000003 c0 -0.08 0.08 -0.04 0 0 l0 0 z M10.28 31 c0.08 -0.16 0.08 0.2 0 0 l0 0 z M10.12 32.04 c0.04 -0.2 0.04 0.16 0 0 l0 0 z M4.36 32.08 l0 0 c0 0.04 -0.04 -0.04 0 0 z M10.04 32.28 l0 0 c0.04 0.04 0.08 0 0 0 z M3.28 32.44 c0 -0.08 0.24 -0.04 0.16 0.08 l-0.12 0 c0.04 -0.04 0 -0.04 -0.04 -0.08 z M3.24 32.6 c0.08 0 0.12 0.08 0.08 0.2 l-0.12 0 c-0.04 -0.12 0.04 -0.12 0.04 -0.2 z M3.2 32.92 c-0.04 0.08 -0.08 0.12 -0.16 0.12 c0 -0.12 0.08 -0.08 0.16 -0.12 z M3 33.16 c0 -0.04 0.08 -0.04 0.08 0 c0 0.08 -0.04 0 -0.08 0 z M2.6 33.96 l0.12 0 l0 0.08 l-0.12 0 l0 -0.08 z M2.48 34.24 l0.08 0 l0 0.08 l-0.08 0 l0 -0.08 z M9.8 34.56 c0.08 -0.16 0.08 0.2 0 0 l0 0 z M2.36 34.56 l0.12 0 c0 0.12 -0.08 0.12 -0.16 0.12 c0 -0.04 0.04 -0.08 0.04 -0.12 z M9.76 34.92 c0.08 0.04 0 0.08 0 0.12 c-0.08 -0.04 0 -0.08 0 -0.12 z M9.64 35.76 l0.08 0 l0 0.2 l-0.08 0 l0 -0.2 z M0.56 36.2 l0 0 c0.04 0.04 -0.04 0 0 0 z M9.72 36.4 l0 0 c0.04 0.04 0 -0.04 0 0 z M9.56 36.4 c0.12 0 0.12 0.12 0.08 0.2 c-0.08 -0.04 -0.04 -0.12 -0.08 -0.2 z M9.76 36.68 c-0.12 0.16 -0.2 -0.16 0 0 l0 0 z M9.52 37.12 c0.2 -0.04 0.08 0.36 -0.04 0.32 c0 -0.12 0 -0.28 0.04 -0.32 z M9.48 37.72 l0 0 c-0.04 0.32 0.04 -0.16 0 0 z M11.08 38.04 l0.08 0 l0 0.08 l-0.08 0 l0 -0.08 z M9.4 38.4 c0 -0.04 0.04 -0.04 0.08 -0.04 c0 0.04 -0.04 0.04 -0.08 0.04 z M9.44 38.6 c0.12 -0.16 0 0.36 0 0 l0 0 z M9.4 38.88 c0 0.08 0.04 0.12 0.08 0.16 c0 -0.08 -0.04 -0.12 -0.08 -0.16 z M9.4 39.52 l0 0 c0 0.04 -0.04 -0.04 0 0 z M9.4 39.64 c0.04 -0.16 0.04 0.2 0 0 l0 0 z M9.48 39.76 l0 0 c-0.04 0.28 0.04 -0.2 0 0 z M9.32 39.8 c0.2 0.04 0.04 0.2 0.12 0.32 c-0.2 0.04 -0.08 -0.2 -0.12 -0.32 z M9.32 40.24 c0.12 0 0.08 0.2 0.2 0.2 c0 0.04 -0.12 0.04 -0.2 0.04 c0.04 -0.16 0.04 -0.08 0 -0.24 z M9.32 40.56 c0.16 -0.12 0 0.44 0 0 l0 0 z M9.32 40.96 c0.08 0.08 0.16 0.28 0.08 0.36 c-0.12 0 -0.04 -0.24 -0.08 -0.36 z M9.32 41.48 c0.16 0.04 0.08 0.08 0.08 0.2 c-0.16 -0.04 -0.08 -0.08 -0.08 -0.2 z M9.32 41.96 l0 0 c0.08 -0.04 0 -0.04 0 0 z M9.32 41.96 l0 0 c-0.04 0.04 0.04 0.08 0 0 z M9.32 42.16 c0.08 -0.2 0.08 0.2 0 0 l0 0 z M9.76 46.8 l0 0 c-0.04 0.28 0.04 -0.2 0 0 z M16.8 45.24 c0.28 -0.24 0.92 -1.04 1.52 -0.72 c-1.08 1.32 -2.2 2.6 -3.2 4.04 c-0.48 0.8 -0.84 2 -1.6 2.4 c-0.12 0.72 -0.64 1.32 -0.6 2.32 c0.08 0.24 0.32 0.36 0.44 0.56 c0.64 0.28 1.76 0.04 2.44 -0.32 c2.84 -1.44 5.16 -4.04 6.04 -7.44 c0.24 -1.84 -0.08 -3.88 -2.12 -4.44 c-2.04 -0.28 -4.36 -0.6 -6.2 -0.84 c-0.72 -1.76 1.2 -2.56 2.28 -3.28 c0.2 -0.2 0.48 -0.56 0.76 -0.48 c1.48 -1.2 3.12 -1.92 4.56 -3.08 c-1.72 -0.08 -4.12 0.56 -5.92 0.08 c-0.28 -0.8 -0.28 -1.44 0.32 -2.04 c0.4 0.36 1.32 0.04 1.8 0.32 c0.48 -0.12 0.92 0 1.2 -0.16 c1.08 0.28 3.2 -0.48 3.88 0.56 c0.04 0.16 -0.04 0.2 -0.04 0.36 c0.16 0.24 0.24 0.52 0.44 0.72 c0.08 0.48 -0.16 0.44 -0.08 0.76 c-1.76 1.84 -4.28 3.12 -6.4 4.4 c0 0.16 -0.24 0.32 -0.48 0.4 c0.2 0.24 0.48 0.04 0.64 0.24 c0.08 0 0.32 0.08 0.36 -0.04 c0.24 0.16 0.4 0.12 0.84 0.16 c0.04 0.08 0.16 0.08 0.24 0.12 c1.8 0.12 3.36 0.84 3.92 2.32 c0.44 1.16 0.92 2.56 0.88 4 c-0.16 2.76 -1.76 4.88 -3.2 6.48 c-0.12 0 -0.16 -0.12 -0.32 -0.08 c0 0.12 0.16 0.08 0.2 0.16 c-1.24 1.28 -2.52 2.44 -4.2 2.72 c-0.48 0.48 -1.72 0.6 -2.44 -0.08 c-0.76 -1.4 -0.72 -3 -0.36 -4.48 c0.08 0 0.08 0.08 0.08 0.16 c0.2 -0.64 0.72 -0.92 0.68 -1.64 c0.2 -0.08 0 0.2 0.12 0.2 c0.2 -0.04 -0.04 -0.24 -0.08 -0.32 c0.56 -1.6 1.96 -2.76 3.16 -3.6 c0 -0.2 -0.16 0.04 -0.12 -0.16 c0.08 -0.08 0.12 0 0.16 0.04 c0.04 -0.28 0.32 -0.08 0.4 -0.32 z M18.32 36.08 c-0.04 0.28 0.24 0 0 0 l0 0 z M16.080000000000002 38.04 c0.2 0.04 0 -0.16 0 0 l0 0 z M15.16 38.32 c0.08 0.2 0.08 -0.2 0 0 l0 0 z M22.32 43.92 c-0.04 0.32 0.16 0.12 0 0 c-0.04 -0.04 -0.04 0.04 0 0 z M22.48 45.08 c-0.04 -0.4 0 -0.6 -0.12 -0.84 c0 0.24 0 0.64 0.12 0.84 z M17.240000000000002 44.96 c0.12 0 0.16 -0.08 0.2 -0.16 c-0.12 0 -0.16 0.08 -0.2 0.16 z M22.48 45.36 c0.04 -0.04 0.04 -0.16 -0.08 -0.16 c0.04 0.04 0 0.16 0.08 0.16 z M22.4 45.519999999999996 c0.16 0.16 0.08 -0.16 0 0 l0 0 z M15.52 47.64 c-0.12 0.16 0.16 -0.12 0 0 l0 0 z M15.200000000000001 47.76 c0.08 0.16 0.12 -0.16 0 0 l0 0 z M13.4 49.2 c0.12 0.08 0.28 -0.12 0.36 -0.24 c-0.12 0.04 -0.16 -0.04 -0.28 -0.04 c-0.04 0.12 -0.12 0.16 -0.08 0.28 z M13.440000000000001 49.76 c0.04 0 -0.04 -0.04 0 0 l0 0 z M13.68 50.24 c0.04 -0.04 0.12 -0.24 -0.04 -0.2 c0 0.08 -0.04 0.16 0.04 0.2 z M14.72 54.6 l0.16 0 c0 -0.08 -0.04 -0.12 -0.16 -0.12 l0 0.12 z M16.400000000000002 54.92 c0.08 -0.04 0 -0.04 0 0 c-0.08 0 -0.2 -0.08 -0.24 0.04 c0.12 0.04 0.2 0.08 0.24 -0.04 z M16.8 45.24 c-0.16 0 0.04 -0.2 0 0 l0 0 z M16.64 45.24 c0.08 -0.2 0.08 0.2 0 0 l0 0 z M15.32 46.44 l0 0 c0.04 0.04 -0.04 -0.04 0 0 z M41.04 34.32 c0 0.12 -0.12 0.12 -0.12 0.2 c0.04 0 0.08 0.04 0.12 0.04 c0.2 -0.24 0.4 -0.32 0.84 -0.44 c-0.28 0.8 -0.8 1.56 -1.32 2.08 c-1.36 0.96 -2.76 2.48 -4.6 2.96 c-1.92 0.36 -2.76 -1.08 -3.12 -2.88 c-2.04 1.44 -3.36 3.52 -5.96 4.4 c-1.96 0.08 -2.32 -2.44 -1.96 -4.16 c0.52 -1.52 1.08 -3.32 1.56 -4.8 c0.2 -0.12 0.32 -0.32 0.52 -0.48 c0.32 0.24 0.64 0.44 0.84 0.72 c-0.32 2.88 -1.68 4.52 -1.96 7.04 c0 0.12 0.2 0.04 0.24 0.12 c2.6 -1.12 4.64 -3.44 6.72 -5.08 c0.16 -0.04 -0.04 -0.12 0 -0.2 c0.56 0.24 0.84 0.72 1.44 1.12 c-0.16 0.72 -0.16 1.48 -0.12 2.44 c1.96 0.64 3.44 -1.44 4.96 -2.16 c0.24 -0.32 0.64 -0.48 0.84 -0.88 c0.12 -0.04 0.12 0.08 0.24 0.08 c0.24 -0.52 0.96 -0.92 1.44 -1.36 c-0.28 -0.04 -0.28 0.2 -0.52 0.2 c0.2 -0.44 0.6 -0.64 0.88 -0.96 c0.16 0.12 -0.08 0.36 -0.12 0.48 c0.04 0.12 0.12 -0.08 0.24 0 c-0.12 0.32 -0.04 0.56 -0.36 0.6 c-0.04 0.16 0.16 0.04 0.12 0.2 c-0.12 0.04 -0.16 0.08 -0.2 0.2 c-0.12 0 -0.12 -0.12 -0.04 -0.2 c-0.2 0.08 -0.36 0.2 -0.44 0.4 c0.16 0.12 0.24 -0.12 0.4 -0.12 c0 0.24 -0.28 0.16 -0.32 0.36 c-0.12 0.04 -0.08 -0.12 -0.12 -0.16 c-0.08 0.04 -0.16 0.12 -0.2 0.2 c0 0.04 0.04 0.04 0.08 0.04 z M41.72 33.04 l0.12 0 l0 -0.12 l-0.12 0 l0 0.12 z M40.76 34.480000000000004 c0.12 0.04 0.24 -0.12 0.12 -0.16 c-0.04 0.08 -0.16 0.04 -0.12 0.16 z M40.56 34.6 l0.16 0 l0 -0.12 l-0.16 0 l0 0.12 z M40.879999999999995 34.8 c0.04 -0.08 0.04 -0.2 -0.12 -0.2 c0 0.12 0 0.2 0.12 0.2 z M40.239999999999995 34.96 c0.24 0 0.12 -0.24 0 -0.24 l0 0.24 z M40.28 35.08 c0.24 0 0.24 -0.24 0.44 -0.04 c0.08 -0.08 0 -0.28 -0.08 -0.32 c-0.12 0.16 -0.28 0.2 -0.36 0.36 z M39.96 35.4 c0.04 -0.16 0.24 -0.16 0.28 -0.32 c-0.16 0.04 -0.4 0.2 -0.28 0.32 z M32.04 35.480000000000004 c0 -0.08 0.04 -0.12 0.04 -0.2 c-0.2 0.04 -0.24 0.2 -0.32 0.36 c-0.44 -0.04 -0.8 0.44 -1.16 0.6 c0.04 0.16 0.04 0.24 -0.04 0.36 c0.12 0.12 0.12 -0.16 0.28 -0.12 c0 0.12 -0.28 0.2 -0.16 0.28 c0.16 -0.12 0.32 -0.24 0.52 -0.32 c-0.12 -0.28 0.16 -0.48 0.24 -0.68 c0.12 0.12 0.24 -0.04 0.32 -0.12 c0.16 0 0.08 -0.2 0.28 -0.16 c0 0.16 0 0.32 -0.16 0.28 c0 -0.04 0.04 -0.04 0.04 -0.08 c-0.2 0.04 -0.2 0.32 -0.4 0.36 c0.08 0.04 0.16 0.08 0.28 0.12 c0.08 -0.12 -0.08 -0.28 0.08 -0.36 c0.28 0.16 0.4 -0.4 0.68 -0.24 c0 -0.08 0.04 -0.08 0.04 -0.12 c-0.2 0 0.12 -0.16 -0.08 -0.24 c-0.04 0.16 -0.16 0.24 -0.36 0.12 c0.04 0.12 -0.04 0.16 -0.12 0.16 z M32.8 35.4 c0 -0.12 -0.08 -0.16 -0.16 -0.2 c0 0.12 0.04 0.2 0.16 0.2 z M39.76 35.32 c0.04 0.04 -0.04 0 0 0 l0 0 z M31.64 35.44 c0.04 0.04 0 -0.04 0 0 l0 0 z M39.8 35.44 c0.08 0.2 0.08 -0.2 0 0 l0 0 z M31.439999999999998 35.56 c0.04 0.04 0 0 0 0 l0 0 z M38.96 35.76 c-0.04 0.12 0.08 0.12 0.08 0.2 c0.2 -0.08 0.4 -0.12 0.44 -0.4 c-0.32 -0.04 -0.32 0.32 -0.52 0.2 z M39.04 36.12 c0.16 0.12 0.08 -0.2 0 0 l0 0 z M31.32 36.16 c-0.12 0.16 0.16 -0.12 0 0 l0 0 z M31.279999999999998 36.36 c0.12 0.12 0.08 -0.2 0 0 l0 0 z M30.24 37.16 c-0.04 -0.24 0.16 -0.44 0.24 -0.24 c0.32 -0.48 -0.72 0.04 -0.24 0.24 z M29.36 37.72 c0.12 -0.12 0.2 -0.28 0.48 -0.28 c-0.08 -0.2 0.16 -0.16 0.12 -0.32 c-0.24 0.12 -0.64 0.36 -0.6 0.6 z M28.959999999999997 37.88 l0 0.08 l0.08 0 s0.04 -0.04 0.08 -0.04 l0 -0.08 l-0.12 0 c0 0 0 0.04 -0.04 0.04 z M40.04 34.28 l0 0 c0.04 0.04 0 -0.04 0 0 z M41.04 34.32 l0 0 c0.08 -0.04 0 -0.04 0 0 z M31.04 36.28 c0.16 -0.12 -0.12 0.16 0 0 l0 0 z M50.4 31.6 c-0.16 -0.12 -0.36 -0.24 -0.56 -0.32 c-1.28 0.52 -2.16 1.64 -3.28 2.08 c-0.08 0.36 -0.24 0.64 -0.56 0.72 c-1.2 1.68 -2.4 3.32 -3.36 5.2 c-0.12 0.92 -0.56 1.48 -1.32 1.76 c-2 -0.92 -0.84 -4.08 -0.64 -5.88 c0.4 -0.92 0.44 -2.32 0.88 -3.04 c1.76 0.4 1.04 2.28 0.84 3.56 c0.92 -1.4 2.08 -2.56 3.24 -3.76 c1.08 -0.92 3.8 -2.2 4.76 -0.32 z M47.44 31.32 c0.28 0.04 0.28 -0.2 0.48 -0.12 c-0.12 -0.28 0.32 -0.04 0.36 -0.32 c-0.28 0.08 -0.52 0.12 -0.64 0.08 c-2.2 1.28 -3.96 3.36 -5.16 5.6 c1.4 -2 2.92 -3.88 4.96 -5.24 z M48.4 30.92 c0.04 0.04 -0.04 0 0 0 l0 0 z M48.6 31.28 c0 0.08 -0.04 0.12 -0.08 0.16 c0.16 -0.04 0.36 -0.04 0.4 -0.24 c-0.12 0.04 -0.2 0.08 -0.32 0.08 z M48.199999999999996 31.64 c0.16 0 0.2 -0.12 0.28 -0.2 c-0.16 -0.08 -0.4 0 -0.28 0.2 z M47.08 32.24 c0.36 -0.04 0.6 -0.48 0.92 -0.48 c-0.04 -0.12 0.16 -0.28 -0.04 -0.24 c-0.24 0.28 -0.64 0.44 -0.88 0.72 z M47.64 32.08 c-0.12 0.16 0.16 -0.12 0 0 l0 0 z M46.76 32.56 c0.12 -0.08 0.28 -0.12 0.32 -0.28 c-0.12 0.08 -0.44 0.12 -0.32 0.28 z M46.239999999999995 33.24 c0.08 -0.16 0.32 -0.2 0.32 -0.44 l-0.12 0 c0.04 0.24 -0.36 0.28 -0.2 0.44 z M45.839999999999996 33.56 c0 0 0 -0.04 0.04 -0.04 c0 -0.04 0 -0.12 -0.08 -0.08 c0 0.04 0 0.12 0.04 0.12 z M47.44 31.32 c-0.04 0 -0.08 -0.04 0 -0.04 l0 0.04 z M46.04 32.16 l0 0 c0.04 0.04 -0.04 0 0 0 z M40.44 33.24 c0 -0.16 0.2 0.04 0 0 l0 0 z M56.08 31.32 c-0.12 0.68 0 1.12 -0.64 1.48 c-0.48 1.2 -1.64 1.76 -2.52 2.56 c-0.76 0.16 -1.68 0.68 -2.4 0.16 c-0.44 0.6 -0.48 1.32 -0.68 2.2 c1.64 1.16 4.04 -0.36 5.72 -0.88 c0.92 -0.52 1.92 -1.04 2.96 -1.48 c0.12 -0.16 0.36 -0.2 0.48 -0.32 c0.12 0.36 -0.72 0.56 -1 0.84 c0 0.08 0.08 0.04 0.16 0.04 c-1.12 1 -2.36 1.6 -3.84 2.12 c0.28 0 0.88 0 1.24 -0.2 c-0.04 0.2 -0.2 0.24 -0.36 0.32 c0 0.08 0.24 -0.04 0.16 0.12 c-0.48 0.16 -0.92 0.64 -1.16 0.48 c-0.2 0.08 -0.04 0.16 -0.12 0.28 c-1.08 0.48 -1.8 0.8 -3.2 0.8 c-1.92 -0.4 -2.16 -2.28 -1.92 -4 c0.72 -2.2 2.28 -4.64 4.48 -5.72 c0.4 -0.2 0.88 -0.12 1.28 -0.12 c0.32 0.04 0.4 0.28 0.68 0.32 c0.08 0.48 0.4 0.72 0.68 1 z M52.959999999999994 32.04 c0.16 0.04 0.28 -0.28 0.4 -0.12 c-0.68 0.52 -1.28 1.08 -1.8 1.76 c1.32 -0.68 2.52 -1.48 3.28 -2.68 c-0.68 0.28 -1.48 0.48 -1.88 1.04 z M52.72 32.2 c0.04 0.04 0 -0.04 0 0 l0 0 z M52.4 38.4 c0.12 0.04 0.28 -0.08 0.24 0.24 c0.2 -0.12 0.32 -0.2 0.52 0 c0.08 -0.08 -0.08 -0.24 0.08 -0.24 c0.28 0 0.76 -0.2 1 -0.36 c-0.6 0.32 -1.36 0.12 -1.84 0.36 z M59.16 34.96 l0 0 c0.08 0 0 -0.04 0 0 z M59.16 34.96 c0 0.08 -0.08 0.04 0 0 l0 0 z M55.44 38.08 c0.08 -0.16 0.08 0.2 0 0 l0 0 z M79.39999999999999 42.6 l0.08 0 c0 -0.08 -0.08 0 -0.08 0 c-0.08 0.04 -0.12 0.08 -0.16 0.16 s0.24 -0.04 0.2 0.08 c-0.16 0.24 -0.72 0.36 -0.64 0.76 c-0.16 -0.04 -0.2 0.04 -0.28 0.04 c0 0.2 -0.08 0.24 -0.12 0.4 c-0.2 0.04 0.04 -0.16 -0.08 -0.16 c-0.2 0.12 -0.2 0.44 -0.56 0.4 c-0.08 0.08 0.08 0.16 -0.08 0.2 l0 -0.04 c-0.04 0 -0.04 0.04 0 0.04 c-0.12 0.24 -0.24 0.24 -0.52 0.28 c0 0.32 -0.4 0.32 -0.56 0.4 c-0.12 0 -0.12 -0.08 -0.12 -0.2 c-0.04 0.12 -0.16 0.12 -0.24 0.16 c0.04 0.2 0.2 -0.04 0.28 0.08 c-0.04 0.12 -0.24 0.24 -0.32 0.16 c0 0.08 -0.04 0.16 0.08 0.16 c-0.56 0.24 -0.84 0.48 -1.48 0.68 c-0.12 0.08 -0.28 0.32 -0.48 0.2 c-0.88 0.6 -2.24 0.8 -3.36 0.84 c-1.52 -0.28 -1.96 -1.96 -1.6 -3.64 c0.64 -2.2 2.72 -3.08 4.48 -4.2 c0.84 -0.32 1.76 -0.76 2.64 -0.84 c-0.04 0.2 0 0.24 0.24 0.2 c-0.16 0.16 -0.36 0.28 -0.44 0.56 c-0.76 0.12 -1.36 0.48 -1.84 0.92 c0.08 0.2 0.2 -0.12 0.4 0.04 c0.16 0 0.24 -0.24 0.08 -0.28 c0.16 -0.08 0.24 -0.36 0.44 -0.28 c-0.04 0.2 -0.24 0.2 -0.24 0.4 c0.04 0.08 0.08 -0.04 0.2 0 c-0.16 0.12 -0.28 0.28 -0.52 0.36 c0.08 0.16 0.2 -0.08 0.32 -0.04 c-0.04 0.28 -0.32 0.24 -0.56 0.32 c-0.28 0.52 -1.08 0.6 -1.36 1.12 c-0.28 0 -0.36 0.2 -0.56 0.24 c0.04 0.16 -0.16 0.12 -0.16 0.28 c-1 0.6 -1.76 1.44 -2.36 2.48 c0.08 0.04 0.04 0.16 0.04 0.24 c0.76 0.8 2.68 0.16 3.52 -0.04 c-0.08 0.16 0.16 -0.08 0 0 c0 -0.08 0.08 -0.08 0.08 -0.16 c0.16 0.04 0 0.12 0.08 0.2 c0.32 -0.24 0.92 -0.56 1.32 -0.64 c0.32 -0.24 0.76 -0.52 1.12 -0.64 c1.04 -0.76 2 -1.68 2.92 -2.56 c0.28 -0.48 0.44 -0.92 0.84 -1.2 c0.4 -0.8 0.64 -1.4 0.64 -2.48 c-0.16 -1.4 -1.08 -2.04 -1.64 -2.96 c-0.04 -0.08 -0.12 0.04 -0.16 -0.04 c-0.8 -0.92 -1.8 -1.56 -2.8 -2.24 c-0.08 -0.04 -0.12 -0.2 -0.24 -0.24 c-0.04 -0.08 -0.24 -0.04 -0.36 -0.16 c-0.04 0 -0.04 -0.08 -0.08 -0.12 c-0.24 -0.2 -0.52 -0.28 -0.84 -0.4 c-0.8 -0.56 -1.72 -1.16 -2.6 -1.64 c-0.64 -0.6 -1.52 -0.96 -1.88 -1.8 c-0.36 -0.24 -0.6 -0.68 -0.72 -1.04 c-0.68 -2.2 0.76 -4 1.96 -5.04 c0 -0.08 0.04 -0.16 0.08 -0.24 c0.28 -0.04 0.28 -0.32 0.6 -0.32 c0.12 -0.28 0.52 -0.56 0.92 -0.72 c0.16 0 -0.04 -0.08 0 -0.16 c0.56 -0.24 0.96 -0.72 1.6 -0.88 l0 0 c0.08 -0.24 0.52 -0.44 0.68 -0.4 c1.28 -1 2.96 -1.64 4.48 -2.44 c0.08 0 0.04 -0.08 0.08 -0.08 c1.6 -0.64 3.16 -1.32 4.88 -1.84 c0.04 0 0 -0.08 0 -0.16 c0.68 0.04 1.28 -0.36 1.88 -0.4 c1.08 -0.48 3.4 -1 4.72 -0.4 c0.08 0.12 0.2 0.16 0.2 0.32 c0.4 0.08 0.4 0.56 0.68 0.84 c0.36 0.44 0.64 1.16 0.4 1.68 c-0.08 0.08 -0.16 0.24 -0.24 0.28 c-0.44 0.08 -0.72 0.36 -1.04 0.6 c0 -0.08 -0.16 -0.04 -0.28 -0.04 c0.2 -0.6 0.44 -1 0.48 -1.84 c-2.56 -0.56 -4.56 0.4 -6.72 0.8 c-0.28 0.24 -0.76 0.28 -1 0.48 c-0.12 0 -0.12 -0.08 -0.2 -0.08 l0 0.16 c-0.64 0.12 -1.36 0.44 -1.88 0.64 c0 0.08 -0.24 0 -0.32 0.04 c-0.44 0.6 -1.4 0.4 -1.8 0.96 c-0.04 0 -0.04 -0.04 -0.04 -0.12 c-0.08 0 -0.04 0.2 -0.16 0.24 c-0.4 -0.08 -0.44 0.24 -0.64 0.28 c-0.16 0.12 -0.32 0.04 -0.44 0.12 c-0.32 0.12 -0.52 0.44 -0.88 0.44 c-0.04 0.28 -0.64 0.4 -0.96 0.64 c-0.2 0.2 -0.56 0.36 -0.92 0.44 c-0.12 0.04 0.04 0.08 0 0.2 c-1.32 0.44 -2 1.28 -3.12 1.92 c0 0.04 0 0.12 0.04 0.08 c0 0.12 -0.08 0.12 -0.16 0.04 c-0.52 0.4 -0.88 0.88 -1.36 1.28 c-0.04 0.12 0.04 0.12 0.04 0.2 c-0.56 0.44 -1.08 1.08 -0.88 2.04 c0.12 0.28 0.32 0.4 0.4 0.68 c0.88 0.44 1.4 1.2 2.36 1.52 c0.16 0.2 0.28 0.36 0.52 0.4 l0 0.12 c0.28 0 0.2 0.08 0.44 0.12 c0.04 0.08 0.08 0.16 0.08 0.24 c0.68 0.04 1.2 0.76 1.96 1 c0.68 0.76 1.84 1.2 2.52 2.12 c1.4 1.08 2.4 2.56 2.92 4.48 c-0.16 -0.08 -0.04 -0.48 -0.2 -0.6 c0.2 0.96 0.2 2.2 0.2 3.28 c-0.2 0.76 -0.6 1.08 -0.72 1.68 c-0.08 0 -0.16 0.04 -0.2 0.08 c-0.08 0.4 -0.56 0.52 -0.56 0.92 c-0.16 0.04 -0.28 0.28 -0.36 0.04 z M82.8 15.96 c0 -0.04 -0.12 -0.04 -0.12 0 c0.04 0 0.08 0.08 0.12 0 z M82.19999999999999 16.12 c-0.04 0.04 -0.12 0 -0.12 0.04 c0.04 0 0.12 0 0.12 -0.04 z M81.52 16.36 c-0.08 0.04 0 0.08 0 0 c0.08 -0.04 0.16 0.16 0.16 0 c0 0 -0.16 -0.04 -0.16 0 z M80.91999999999999 16.68 c0.16 -0.08 0.28 0 0.32 -0.16 c-0.12 0 -0.32 -0.04 -0.32 0.16 z M80.55999999999999 16.76 c0 0 -0.04 -0.04 -0.08 -0.04 c-0.08 0.12 0.12 0.16 0.08 0.04 z M80.16 16.96 l0.12 0 l0 -0.08 l-0.12 0 l0 0.08 z M79.88 17.08 c0.16 0 0.28 0 0.24 -0.12 c-0.12 0 -0.2 0.04 -0.24 0.12 z M79.27999999999999 17.28 c-0.04 0.2 -0.36 0.16 -0.44 0.32 c0.04 0 0.04 0.08 0.12 0.08 c0.08 -0.24 0.8 -0.24 0.56 -0.48 c0.04 0.12 -0.16 0.16 -0.24 0.08 z M78.75999999999999 17.64 c0 0.04 -0.04 0 0 0 l0 0 z M78.67999999999999 17.64 c-0.04 0.04 -0.08 0 -0.08 0.04 c0.04 0 0.08 0 0.08 -0.04 z M81.24 17.68 c0.04 0 0 0 0 0 l0 0 z M78.39999999999999 17.68 c0.08 0.24 0.28 0 0 0 l0 0 z M79.47999999999999 17.8 c0 0.04 -0.04 0 0 0 l0 0 z M77.8 17.92 c-0.04 0.2 0.2 0.12 0.36 0.12 c-0.12 -0.12 0.04 -0.2 -0.12 -0.24 c0 0.12 -0.12 0.12 -0.24 0.12 z M78.24 17.88 l0 0 l0 0 z M78.44 18.2 c0.08 0.08 0.08 -0.2 0.04 -0.2 c0 0.08 -0.04 0.08 -0.04 0.2 z M78.11999999999999 18.36 c0 -0.08 0.12 0 0.12 -0.12 c-0.04 -0.04 -0.28 0.08 -0.12 0.12 z M79.67999999999999 18.44 c0.16 0.04 0.12 -0.08 0.2 -0.16 c-0.12 0.04 -0.2 0.08 -0.2 0.16 z M76.83999999999999 18.52 c0.16 0.04 0.48 -0.04 0.56 -0.2 c-0.24 0.04 -0.4 0.04 -0.56 0.2 z M79 18.52 c0.04 0 -0.04 0 0 0 l0 0 z M76.63999999999999 18.6 l0.12 0 c0 -0.08 -0.04 -0.08 -0.12 -0.08 l0 0.08 z M78.88 18.56 c0.04 0 0 -0.04 0 0 l0 0 z M77.52 18.6 c-0.16 0 -0.32 0.04 -0.36 0.2 c0.16 -0.04 0.28 -0.08 0.36 -0.2 c0.16 0.04 0 -0.12 0 0 z M76.08 18.92 c0.08 0.08 0.32 0.08 0.36 -0.08 c-0.08 -0.16 -0.28 0 -0.36 0.08 z M77.83999999999999 18.8 c-0.04 0 -0.2 -0.08 -0.2 0.04 c0.04 0.08 0.16 0.04 0.2 -0.04 z M78.44 18.88 c0.08 0 0.08 0.04 0.16 0.04 c0.08 -0.04 0.16 -0.08 0.2 -0.12 c-0.2 0.04 -0.28 -0.04 -0.36 0.08 z M77 18.92 c0.04 0 0.08 -0.04 0.12 -0.08 c-0.08 0 -0.12 0 -0.12 0.08 z M78 18.88 c0.04 0.04 0 0 0 0 l0 0 z M75.96 18.92 l0 0.12 c0.08 0.04 0.12 -0.16 0.04 -0.16 c0 0.04 0 0.08 -0.04 0.04 z M75.6 19.12 c0 0.08 0.16 0.04 0.2 0.12 c-0.12 0.08 -0.36 -0.08 -0.4 0.12 c0.32 0.12 0.52 -0.16 0.28 -0.32 c0 0.08 -0.08 0.08 -0.08 0.08 z M75.96 19.12 c0 -0.04 -0.04 -0.08 -0.12 -0.08 c-0.04 0.08 -0.04 0.16 0.12 0.08 z M76.24 19.28 c-0.12 0 -0.2 0.04 -0.24 0.08 c0.08 0.12 0.16 -0.04 0.24 -0.08 c0.16 0 0.2 -0.12 0.28 -0.16 c-0.12 -0.08 -0.16 0.12 -0.28 0.16 z M77.16 19.2 c0.04 0 0 -0.04 0 0 l0 0 z M77.67999999999999 19.24 c0.04 0 0.16 0 0.12 -0.12 l-0.08 0 c0 0.08 -0.04 0.08 -0.04 0.12 z M74.6 19.72 c0 0.04 0.04 0.16 0.12 0.2 c0.04 -0.12 0.08 -0.08 0.04 -0.2 c0.2 0 0.36 -0.12 0.48 -0.16 c-0.04 -0.16 0.08 -0.12 0.12 -0.24 c-0.28 0.08 -0.4 0.32 -0.76 0.4 z M76.88 19.48 l0.08 0 l0 -0.12 l-0.08 0 l0 0.12 z M75.8 19.56 c0 -0.04 0.08 -0.08 0 -0.12 l0 0.12 z M76.67999999999999 19.48 c0.04 0.04 -0.04 -0.04 0 0 l0 0 z M77.08 19.52 c-0.04 0.12 0.04 0.16 0.16 0.16 c-0.04 -0.16 -0.08 -0.24 -0.16 -0.16 z M75.6 19.68 c0.04 0 0.04 0.04 0.08 0.04 c0 -0.08 0 -0.16 -0.08 -0.16 l0 0.12 z M76.36 19.68 c0.04 0 0 -0.04 0 0 l0 0 z M76.47999999999999 19.6 c0 0.04 -0.04 0.04 -0.04 0.08 c0.04 -0.04 0.04 0 0.04 -0.08 z M75.39999999999999 19.72 c-0.16 0.04 -0.28 0.12 -0.36 0.28 c0.12 -0.04 0.28 -0.16 0.36 -0.28 c0.2 0 0 -0.16 0 0 z M76.72 19.72 c0.08 0 0.16 0 0.2 -0.04 c-0.12 -0.04 -0.2 0 -0.2 0.04 z M75.88 19.84 c0.08 0 0.12 0.04 0.2 0.04 c0.04 -0.12 -0.16 -0.16 -0.2 -0.04 z M76.83999999999999 19.76 c0.04 0.16 0.12 -0.08 0 0 l0 0 z M74.03999999999999 20.16 c0.2 -0.08 0.36 -0.04 0.48 -0.08 c0 -0.12 -0.12 -0.28 -0.2 -0.16 c0.16 0.2 -0.4 -0.04 -0.28 0.24 z M76.11999999999999 20 c0.2 0 0.32 0 0.36 -0.12 c-0.12 0.04 -0.32 0 -0.36 0.12 z M76.75999999999999 19.88 c-0.04 0 -0.08 0 -0.08 0.04 c0.04 0 0.08 0 0.08 -0.04 z M75.16 20.12 l0 0 l0 0 z M75.72 20.32 c0.08 0 0.28 -0.08 0.12 -0.16 c0 0.04 -0.04 0.04 -0.04 0.04 c0 -0.04 0 -0.16 0 -0.08 s-0.04 0.16 -0.08 0.2 z M73.91999999999999 20.16 c-0.12 0.04 -0.24 0.04 -0.24 0.2 c0.08 -0.04 0.08 0 0.08 0.04 l0.2 0 c0.04 -0.12 -0.12 -0.12 -0.04 -0.24 c0.08 -0.04 0 -0.04 0 0 z M74.47999999999999 20.36 c0.04 -0.04 0.16 -0.04 0.12 -0.16 c-0.08 0.04 -0.16 0.04 -0.12 0.16 z M75.36 20.32 l0 0 c0.16 -0.12 -0.12 0.08 0 0 z M75.16 20.4 c0.12 0.08 0.12 -0.12 0.04 -0.08 c0 0.04 -0.04 0.08 -0.04 0.08 z M75.55999999999999 20.4 l-0.12 0 l0.12 0 z M74.27999999999999 20.4 c-0.24 0.08 -0.36 0.16 -0.52 0.32 c0.16 0.04 0.36 -0.16 0.52 -0.32 c0.04 0 -0.04 0 0 0 z M73.44 20.56 c-0.04 -0.04 -0.08 -0.08 -0.12 -0.08 c0 0.2 -0.16 -0.08 -0.2 0.12 c0.2 0.16 0.52 0 0.6 -0.2 l-0.2 0 c0 0.12 -0.04 0.16 -0.08 0.16 z M75.03999999999999 20.48 c0.08 0.16 0.08 -0.12 0 0 l0 0 z M74.83999999999999 20.56 c0.04 0.04 0 0 0 0 l0 0 z M74.72 20.72 c0.04 0 -0.04 -0.04 0 0 l0 0 z M73 20.84 c0.08 -0.04 0.08 -0.04 0.2 0 c-0.04 -0.04 0 -0.12 -0.08 -0.12 c0.04 0.12 -0.2 -0.04 -0.12 0.12 z M74.55999999999999 20.72 c-0.04 0 -0.04 0 -0.04 0.04 c0 0 0.04 0 0.04 -0.04 z M73.11999999999999 21.12 c0.24 -0.08 0.52 -0.12 0.64 -0.36 c-0.28 0.08 -0.44 0.24 -0.64 0.36 z M72.75999999999999 21 c0.12 0.16 0.04 -0.12 0 0 l0 0 z M74.19999999999999 21 l-0.08 0 c0.04 0 0.08 0.08 0.08 0 z M72.55999999999999 21.12 l0.08 0 l0 -0.08 l-0.08 0 l0 0.08 z M74.47999999999999 21.08 c0 0 -0.04 0 0 0 l0 0 z M73.88 21.16 c0.04 0.04 -0.04 -0.04 0 0 l0 0 z M72.67999999999999 21.44 c0.2 -0.04 0.36 -0.16 0.44 -0.28 l-0.24 0 c0.04 0.2 -0.2 0.08 -0.2 0.28 z M72.16 21.36 c0.08 0.2 -0.32 0.16 -0.2 0.24 c0.2 0 0.56 -0.32 0.48 0.04 c0.12 0 0.16 -0.08 0.2 -0.16 c-0.16 0 -0.12 -0.2 -0.24 -0.24 c0 0.24 -0.08 0.08 -0.24 0.12 z M73.63999999999999 21.28 c-0.04 0.04 -0.12 0.04 -0.12 0.08 c0.04 -0.04 0.08 0 0.12 -0.08 z M73.88 21.4 c0.04 0.08 0.2 0.08 0.2 -0.04 c-0.16 0 -0.16 -0.12 -0.2 0.04 z M73.83999999999999 21.36 c-0.04 0 -0.08 0 -0.08 0.04 c0 0 0.04 0 0.08 -0.04 z M73.44 21.52 c0.04 0.04 -0.04 0 0 0 l0 0 z M73.67999999999999 21.64 c0.04 0 -0.04 -0.04 0 0 l0 0 z M73.11999999999999 21.68 l0.12 0 l0 -0.04 l-0.12 0 l0 0.04 z M71.72 21.76 l0.08 0 c0 -0.04 0.04 -0.04 0.04 -0.08 c-0.04 0 -0.04 -0.04 -0.12 -0.04 l0 0.12 z M72.39999999999999 21.64 c0 0 -0.08 0 -0.12 0.04 c0.08 0 0.12 0 0.12 -0.04 z M71.91999999999999 21.72 c0 0.04 -0.04 0 0 0 l0 0 z M73.32 21.76 l0.12 0 l0 -0.08 l-0.12 0 l0 0.08 z M72.75999999999999 21.8 c0.08 0 0.24 0.04 0.16 -0.08 c-0.08 0 -0.16 0.04 -0.16 0.08 z M73.11999999999999 21.76 c-0.12 -0.12 -0.08 0.16 0 0 l0 0 z M71.03999999999999 22.32 c0.04 0.16 0.04 -0.12 0 0 l0 0 z M71.39999999999999 22.36 c-0.12 0.16 0.12 -0.08 0 0 l0 0 z M71.36 22.44 c-0.04 0 -0.08 0 -0.08 0.04 c0 0 0.08 0 0.08 -0.04 z M71.72 22.64 c-0.04 0 -0.04 -0.08 -0.12 -0.08 c-0.08 0.12 0.12 0.16 0.12 0.08 z M71.6 23.12 c0.04 -0.12 -0.08 -0.08 -0.12 -0.16 c0 0.12 0.04 0.16 0.12 0.16 z M71.36 23.28 c-0.04 0 -0.08 0 -0.08 0.04 c0 0 0.08 0 0.08 -0.04 z M71.11999999999999 23.44 c0.08 0.12 0.12 -0.16 0 0 l0 0 z M70.16 24.2 c0.12 0.08 0.16 -0.12 0.08 -0.16 c0 0.04 -0.04 0.08 -0.08 0.16 z M70.52 24.16 c0.04 0.04 0 -0.04 0 0 l0 0 z M70.11999999999999 24.36 c0.12 0.12 0.08 -0.16 0 0 l0 0 z M70.24 24.759999999999998 c-0.08 0 -0.08 -0.08 -0.16 -0.08 c-0.08 0.12 0.16 0.16 0.16 0.08 z M72.67999999999999 29.84 l0.12 0 l0 -0.08 l-0.12 0 l0 0.08 z M75.16 30.6 l0.08 0 l0 -0.04 l-0.08 0 l0 0.04 z M75.44 30.68 c0.04 -0.08 -0.08 -0.08 -0.12 -0.08 c-0.04 0.08 0.04 0.12 0.12 0.08 z M74.52 30.8 l0.04 0 l0 -0.12 l-0.04 0 l0 0.12 z M74.67999999999999 30.880000000000003 c0 0 -0.04 0 0 0 l0 0 z M75.03999999999999 31.04 c0 -0.12 -0.08 -0.16 -0.2 -0.16 c-0.04 0.16 0.16 0.08 0.2 0.16 z M76 31.119999999999997 c0.04 0.04 -0.04 0 0 0 l0 0 z M76.27999999999999 31.28 l0.08 0 l0 -0.04 l-0.08 0 l0 0.04 z M75.47999999999999 31.439999999999998 c0.04 0.04 0 -0.04 0 0 l0 0 z M75.83999999999999 31.6 c0.04 -0.08 0.08 -0.12 0.04 -0.16 l-0.08 0 c0 0.04 0 0.12 0.04 0.16 z M75.47999999999999 31.52 c-0.04 0.04 -0.08 0.04 -0.08 0.08 c0.04 -0.04 0.08 0 0.08 -0.08 z M76 31.84 c-0.04 -0.12 0.16 -0.04 0.12 -0.2 c-0.04 0 -0.08 -0.04 -0.12 -0.04 c0.04 0.12 -0.16 0.2 0 0.24 z M77.03999999999999 31.72 c-0.04 -0.04 -0.12 0.04 -0.12 0.04 c-0.08 0.2 0.2 0.04 0.12 -0.04 z M77.11999999999999 31.92 l0.04 0 l0 -0.08 l-0.04 0 l0 0.08 z M76.39999999999999 31.92 c0.04 0.2 0.24 0.04 0 0 l0 0 z M76.19999999999999 32.12 c0.04 0.16 0.04 -0.16 0 0 l0 0 z M76.75999999999999 32.16 c0.04 0.04 0 0 0 0 l0 0 z M77 32.4 l0.08 0 l0 -0.08 l-0.08 0 l0 0.08 z M77.39999999999999 32.68 c-0.04 -0.12 -0.2 -0.16 -0.28 -0.28 c0.04 0.2 0.12 0.24 0.28 0.28 z M77.52 32.76 l0.08 0 c0 -0.04 0.04 -0.04 0.04 -0.08 l-0.16 0 c-0.04 0.04 0 0.04 0.04 0.08 z M78.24 33.32 c0.28 0.44 0.68 0.68 1.04 1 c-0.16 -0.32 -0.6 -0.76 -1.04 -1 c-0.16 -0.08 -0.4 -0.6 -0.6 -0.4 c0.28 0.08 0.32 0.4 0.6 0.4 z M79.63999999999999 34.64 c-0.04 -0.12 -0.16 -0.2 -0.24 -0.24 c0.04 0.12 0.08 0.2 0.24 0.24 z M80.11999999999999 35.44 c0.08 0.16 0.08 -0.16 0 0 l0 0 z M76.03999999999999 38.88 c0.12 0 0.24 0 0.24 -0.08 c-0.12 0 -0.2 0.04 -0.24 0.08 z M75.72 39.12 c-0.12 0.04 -0.32 0 -0.32 0.2 c0.12 -0.08 0.28 -0.08 0.32 -0.2 l0.08 0 c-0.04 -0.04 0 -0.04 0 -0.04 l0 -0.12 c-0.08 0 -0.08 0.08 -0.08 0.16 z M75.24 39.36 l0.12 0 l0 -0.12 l-0.12 0 l0 0.12 z M74.8 39.6 c0.2 -0.04 0.32 -0.08 0.36 -0.16 c-0.04 0 -0.04 -0.08 -0.16 -0.04 c0.08 0.16 -0.24 0.08 -0.2 0.2 z M74.6 39.6 c0.08 0.2 0.08 -0.12 0 0 l0 0 z M74.47999999999999 39.72 c0.16 0.04 0 -0.16 0 0 c-0.08 -0.12 -0.12 0 -0.28 0 c-0.04 0 0 0.16 -0.08 0.16 c-0.16 -0.08 -0.16 0.16 -0.36 0 c0.04 0.16 -0.08 0.12 -0.08 0.2 c0.08 0 0.08 0.04 0.24 0.04 c0.04 -0.12 0.44 -0.16 0.56 -0.4 z M73.24 40.12 c-0.04 0.08 -0.08 0.36 -0.2 0.16 c-0.04 0.12 -0.28 0.28 -0.16 0.4 c0 -0.12 0.2 -0.12 0.2 -0.04 c0.12 -0.36 0.32 -0.32 0.6 -0.44 c-0.08 0 -0.04 -0.08 -0.12 -0.08 c-0.04 0.12 -0.2 0 -0.32 0 z M73.96 40.48 c-0.4 0.12 -0.76 0.32 -0.96 0.64 c-0.2 0.16 -0.64 0.24 -0.56 0.44 c0.28 -0.2 0.72 -0.32 0.96 -0.68 c0 0.08 0.04 0.08 0.12 0.04 c0.2 -0.28 0.84 -0.16 0.88 -0.76 l-0.12 0 c-0.08 0.28 -0.2 0.16 -0.32 0.32 z M71.32 41.68 c0.4 -0.2 0.88 -0.68 1.36 -0.88 c0 -0.04 0.04 -0.16 0 -0.16 c-0.44 0.32 -1.04 0.6 -1.36 1.04 z M72.24 41.64 c0.08 0 0.16 0 0.16 -0.12 l-0.12 0 c0 0.04 -0.04 0.08 -0.04 0.12 z M79.19999999999999 41.76 c-0.04 -0.08 -0.04 -0.16 -0.12 -0.2 c-0.04 0.08 -0.04 0.2 0.12 0.2 z M71.96 41.72 c-0.08 -0.16 -0.16 0.16 0 0 c-0.08 0.28 -0.4 0.24 -0.44 0.44 c0.2 -0.12 0.52 -0.2 0.6 -0.48 c-0.08 -0.12 -0.08 0 -0.16 0.04 z M71.16 41.88 c0 -0.08 0.08 -0.04 0.12 -0.12 c-0.08 0 -0.08 -0.08 -0.16 -0.08 c0 0.08 -0.04 0.16 0.04 0.2 z M80.08 41.76 c0 0.04 -0.04 0 0 0 l0 0 z M78.88 41.88 c0.04 0.08 0.16 0.04 0.2 -0.08 c-0.12 0 -0.2 -0.08 -0.2 0.08 z M70.91999999999999 41.96 c-0.04 0 -0.04 -0.04 -0.08 -0.04 c-0.12 0.24 -0.52 0.24 -0.6 0.48 c0.12 -0.08 0.24 -0.24 0.48 -0.24 c0 -0.04 0 -0.12 0.08 -0.16 c0.04 0.04 0.04 0.08 0.12 0.08 l0 -0.12 l0.12 0 c0.04 -0.12 -0.2 -0.12 -0.12 0 z M79.19999999999999 41.96 c0.04 0 0.08 -0.04 0.08 -0.08 c-0.08 0 -0.12 0 -0.08 0.08 z M78.8 42 c-0.08 0.04 -0.16 0 -0.16 0.08 c0.08 0 0.16 0 0.16 -0.08 z M79.03999999999999 42.16 l-0.04 0 c-0.08 0.04 -0.12 0.08 -0.16 0.16 c0.08 0.12 0.16 0 0.16 -0.16 c0.04 0.04 0.04 0 0.04 0 c0.08 -0.04 0 -0.04 0 0 z M78.8 42.16 c-0.04 0.04 -0.12 0 -0.12 0.04 c0.04 0 0.12 0 0.12 -0.04 z M71.19999999999999 42.44 c0.04 0.04 0 0 0 0 l0 0 z M78.75999999999999 42.56 c-0.08 0.04 -0.24 0.04 -0.2 0.16 c0.16 0.04 0.16 -0.08 0.2 -0.16 l0.04 0 c0.04 -0.04 0.08 -0.12 0 -0.16 c-0.04 0.04 -0.08 0.08 -0.04 0.16 z M70.96 42.6 c0.12 0.04 0.16 0 0.2 -0.08 c-0.12 0 -0.12 0.08 -0.2 0.08 z M78.19999999999999 42.72 c0 -0.08 -0.04 -0.12 -0.08 -0.12 c0 0.04 -0.04 0.12 0.08 0.12 z M69.83999999999999 42.64 c0.04 0.2 0.04 -0.12 0 0 l0 0 z M70.03999999999999 42.76 c0.04 0.04 -0.04 -0.04 0 0 l0 0 z M78.52 42.8 c-0.08 0.12 0.16 -0.12 0 0 l0 0 z M78.11999999999999 43.24 c-0.12 0 -0.16 0.08 -0.2 0.16 c0.08 -0.04 0.2 -0.04 0.2 -0.16 c0.12 0.04 0.2 -0.16 0.12 -0.2 c0 0.12 -0.16 0.12 -0.12 0.2 z M77.55999999999999 43.24 c-0.04 0.04 -0.08 0 -0.08 0.04 c0 0 0.08 0 0.08 -0.04 z M70.52 43.4 c-0.04 0 -0.08 0 -0.08 0.04 c0.04 0 0.08 0 0.08 -0.04 z M77.8 43.6 c0.04 -0.08 0.2 -0.16 0.04 -0.2 c0 0.04 -0.2 0.12 -0.04 0.2 z M77.24 43.52 c-0.08 0 -0.12 0 -0.12 0.04 c0.04 0 0.08 0 0.12 -0.04 z M76.91999999999999 43.6 c0.08 0.16 0.12 -0.16 0 0 l0 0 z M77.11999999999999 43.64 c-0.08 0.16 0.12 -0.12 0 0 l0 0 z M77.27999999999999 44.04 c0.2 -0.08 0.32 -0.24 0.44 -0.4 c-0.24 0.04 -0.32 0.2 -0.44 0.4 z M76.88 43.84 c-0.08 0 -0.08 -0.08 -0.16 -0.04 c-0.04 0.12 0.08 0.12 0.2 0.08 c-0.04 -0.04 0.04 -0.2 -0.04 -0.2 l0 0.16 z M78.19999999999999 43.72 l0 0.12 c0.08 0.04 0.08 -0.16 0.04 -0.16 c0 0.04 0 0.08 -0.04 0.04 z M76.52 44 c-0.08 0 0.04 0.2 0 0 c0.08 -0.04 0.08 0.04 0.16 0.04 c0 -0.12 -0.04 -0.16 -0.16 -0.16 l0 0.12 z M77.11999999999999 44.16 c0.04 0 0.12 0.04 0.12 -0.08 l-0.08 0 c0 0.04 -0.04 0.08 -0.04 0.08 z M76.36 44.16 c0.04 0.12 0.08 -0.16 0 0 l0 0 z M77.03999999999999 44.2 c-0.08 0.16 0.12 -0.08 0 0 l0 0 z M77.67999999999999 44.16 c-0.04 0.04 -0.08 0.04 -0.08 0.04 c0.04 0 0.04 0 0.08 -0.04 z M76.03999999999999 44.44 c-0.6 0.08 -1.16 0.6 -1.72 0.88 c0.16 -0.08 0.32 0.12 0.36 -0.04 c-0.12 0 -0.12 -0.04 -0.12 -0.12 c0.4 0.08 0.44 -0.28 0.6 -0.2 c0.24 -0.44 0.64 -0.16 0.88 -0.52 c0.04 -0.08 0.24 0 0.2 -0.2 c-0.16 -0.04 -0.24 0.04 -0.2 0.2 z M76.83999999999999 44.44 c0.12 -0.12 0.2 0 0.24 -0.08 c-0.04 -0.08 -0.28 -0.16 -0.24 0.08 z M77.27999999999999 44.44 c0.16 0.04 0.36 -0.04 0.2 -0.12 c-0.04 0.12 -0.24 0.04 -0.2 0.12 z M77 44.68 c0.12 -0.04 0.2 -0.08 0.24 -0.24 c-0.12 0 -0.2 0.12 -0.24 0.24 z M76.44 44.64 c-0.08 -0.04 -0.24 0.12 -0.12 0.16 c0.04 -0.08 0.16 0 0.12 -0.16 c0.04 0 0.08 -0.04 0.08 -0.12 c-0.04 0 -0.08 0.04 -0.08 0.12 z M76.52 44.88 c0.12 0.08 0.32 0 0.36 -0.08 c-0.12 0.04 -0.28 0.04 -0.36 0.08 z M74.44 44.88 l0 0 l0 0 z M75.8 45.08 c0 0 -0.04 -0.04 0 0 l0 0 z M75.32 45.2 l0 0.2 c0.08 -0.08 0.2 -0.12 0.28 -0.24 c-0.16 -0.04 -0.16 0.08 -0.28 0.04 z M76 45.36 c0.12 0.08 0.12 -0.2 0 -0.16 l0 0.16 z M73.32 45.32 c0.12 0.2 0.08 -0.16 0 0 l0 0 z M73.83999999999999 45.32 c0 0.04 -0.04 -0.04 0 0 l0 0 z M75.16 45.36 c0.12 0.2 0.08 -0.16 0 0 l0 0 z M73.08 45.44 c0 -0.04 -0.12 -0.04 -0.24 -0.04 c-0.08 0.16 0.24 0.12 0.24 0.04 z M74.27999999999999 45.4 c-0.04 0.04 -0.12 0 -0.12 0.04 c0.04 0 0.08 0 0.12 -0.04 z M75 45.56 l0.08 0 l0 -0.16 l-0.12 0 c0 0.08 0 0.12 0.04 0.16 z M73.91999999999999 45.56 c-0.12 0 -0.16 0.08 -0.16 0.16 c0.16 0.04 0.08 -0.12 0.16 -0.16 c0.08 0 0.16 0 0.2 -0.12 c-0.16 0 -0.2 0.08 -0.2 0.12 z M75.8 45.56 c0.12 0.12 0.08 -0.16 0 0 l0 0 z M71.72 45.8 c0.04 0.16 0.04 0.4 0.2 0.28 c-0.08 0 -0.08 -0.04 -0.08 -0.12 c0.24 0 0.48 0.04 0.6 -0.16 c-0.04 0 -0.12 0.04 -0.16 -0.04 c0.12 -0.08 0.28 0 0.36 -0.12 c-0.36 -0.08 -0.68 0.24 -0.92 0.16 z M72.75999999999999 45.68 l0.08 0 c0.08 -0.08 -0.16 -0.12 -0.16 -0.04 c0.04 0.04 0.08 0.04 0.08 0.04 z M74.8 45.76 c0.04 -0.08 0.16 -0.12 0 -0.16 c0.04 0.08 -0.12 0.12 0 0.16 z M73.39999999999999 45.72 c-0.04 0.08 -0.08 0.12 -0.08 0.24 c0.12 -0.08 0.28 -0.2 0.4 -0.28 c-0.16 0 -0.24 0.04 -0.32 0.04 c-0.04 -0.04 -0.08 0 0 0 z M74.55999999999999 45.76 c0.04 0 0.08 0.04 0.12 0.04 c-0.04 -0.08 0 -0.12 -0.12 -0.12 l0 0.08 z M72.67999999999999 45.8 l0.08 0 l0 -0.08 l-0.08 0 l0 0.08 z M75.11999999999999 45.8 l0.04 0 l0 -0.08 l-0.04 0 l0 0.08 z M71.6 45.84 c-0.48 0.04 -0.76 0.08 -0.92 0.32 c0.12 0 0.12 -0.08 0.24 -0.08 c0.04 0.08 0.04 0 0 0 c0.04 -0.08 0.36 -0.16 0.4 0 c-0.08 0.04 -0.08 -0.04 -0.16 -0.04 c0.04 0.24 0.44 0.12 0.56 0 c-0.04 -0.04 -0.16 0 -0.16 -0.08 c0.04 0 0.04 -0.08 0.04 -0.12 c0.08 0 0 -0.04 0 0 z M75.16 45.92 c0.08 0.16 0 -0.16 0 0 l0 0 z M72.27999999999999 46.24 c0.28 -0.08 0.8 0 0.92 -0.32 c-0.36 0.08 -0.72 0.12 -0.92 0.32 z M74.83999999999999 45.96 c0.04 0.04 0 -0.04 0 0 l0 0 z M74.72 46 c0.04 0.04 -0.04 0 0 0 l0 0 z M72.16 46.24 c0.04 0.04 -0.04 0 0 0 l0 0 z M71.72 46.32 c-0.2 -0.08 -0.16 0.16 0 0 l0 0 z M72 46.28 c-0.08 0 -0.2 0 -0.2 0.04 c0.08 0.04 0.2 0.04 0.2 -0.04 z M81.24 37.28 c0.08 0 0.08 0.04 0.08 0.12 l-0.08 0 l0 -0.12 z M81.24 37.44 c0.16 0 0.08 0.24 0.12 0.28 c-0.12 0 -0.12 -0.08 -0.12 -0.28 z M81.35999999999999 37.88 c0.16 -0.12 -0.08 0.16 0 0 l0 0 z M81.32 38.12 c0.16 0.08 0.24 0.6 0 0.64 l0 -0.64 z M81.32 39 c0.12 0.04 0 0.2 0 0.2 c-0.08 0 0 -0.16 0 -0.2 z M81.32 39.52 l0 0 s-0.04 -0.04 0 0 z M75.72 39.56 c-0.08 0.04 -0.16 0.12 -0.28 0.16 c0 -0.16 0.2 -0.2 0.28 -0.16 z M77.88 44.36 l0 0 c0.04 0 -0.04 -0.04 0 0 z M77.83999999999999 44.44 c0 0 0 -0.04 0.04 -0.08 c-0.04 0 -0.04 0.04 -0.04 0.08 z M77.83999999999999 44.44 l0 0 c-0.04 0 0 0 0 0 z M94.6 35.68 l-0.04 0 c0 0.08 0.04 0.04 0.04 0 c0.08 0.04 0.16 -0.04 0.08 -0.08 c0.2 -0.24 1.28 -0.44 1.68 -0.96 c0.04 0.08 0.12 0.2 0.24 0.04 c0.88 -0.64 2 -1.08 3 -1.72 c0.32 -0.04 0.64 -0.32 0.92 -0.52 c-0.16 -0.04 -0.4 0.24 -0.68 0.28 c0.24 -0.28 0.64 -0.4 1 -0.6 c0 0.64 -0.8 0.92 -1.12 1.4 c-2.04 0.84 -3.64 2.12 -5.68 2.92 c-0.04 0.04 -0.04 0.08 -0.04 0.16 c-0.68 0.08 -1.88 0.36 -2.68 0.68 c0.4 -0.04 0.84 0.04 1.24 -0.16 c0.08 0.24 -0.56 0.2 -0.64 0.44 c0.28 -0.08 0.56 -0.16 0.76 -0.28 c0 0.2 -0.64 0.36 -0.8 0.44 c0.28 0.16 0.56 -0.28 0.76 -0.16 c-0.04 0.08 -0.12 0.08 -0.04 0.2 c0.44 0 0.64 -0.4 0.96 -0.36 c0.28 -0.4 1.68 -0.52 1.96 -1.12 c0.48 -0.08 0.76 -0.44 1.24 -0.6 c0 -0.04 -0.04 -0.04 -0.12 -0.04 c0.84 -0.48 1.68 -1 2.64 -1.4 c-0.4 0.32 -0.88 0.56 -1.32 0.88 c0.04 0.04 0.04 0.12 0.12 0.08 c-0.04 0.08 -0.28 0.16 -0.16 0 c-1.72 1.4 -3.92 2.24 -6.04 3.36 c-1.48 0.44 -3.76 1.24 -5.24 0.2 c-0.28 -0.28 -0.4 -0.76 -0.68 -1.04 c-0.56 2.76 -0.52 6 -1.04 8.56 c-0.4 0.28 -0.36 0.96 -0.92 1.08 c-0.28 -0.16 -0.56 -0.12 -0.84 -0.36 c-0.28 -1.84 0.48 -3.76 0.36 -5.56 c0.32 -1.72 0.56 -3.56 0.76 -5.52 c-0.24 0.12 -0.44 0 -0.8 -0.04 c0.08 -0.8 0.72 -1 1.04 -1.52 c0.2 -1.92 0.56 -3.6 0.88 -5.24 c0.08 -0.08 0.24 -0.04 0.28 -0.12 c0.04 -0.2 0.08 -0.36 0.12 -0.56 c0.2 -0.44 0.16 -0.92 0.32 -1.6 c-0.24 0.36 -0.36 1.2 -0.32 1.6 c-0.16 0.08 -0.2 0.28 -0.2 0.48 c-0.24 -0.12 -0.04 -0.64 0.08 -0.8 c0.16 -1.2 0.36 -2.4 0.84 -3.36 c-0.04 0.28 -0.2 0.64 -0.2 1 c0.48 -1.52 0.76 -3 1.28 -4.52 c-0.4 0.56 -0.44 1.28 -0.72 2 c0 -0.8 0.4 -2.04 0.88 -2.76 c-0.04 0.24 -0.12 0.4 -0.16 0.68 c0.24 -0.36 0.32 -1.08 0.48 -1.64 c-0.24 0.12 -0.04 0.68 -0.36 0.76 c0.16 -0.36 0.12 -0.96 0.48 -1.16 c0 0.04 -0.04 0.08 -0.08 0.12 c0.32 -0.36 0.48 -0.84 0.6 -1.36 c-0.16 0.12 -0.2 0.32 -0.24 0.52 c-0.16 -0.36 0.12 -0.72 0.32 -0.92 c0.04 0.16 -0.12 0.12 -0.08 0.32 c0.36 -0.52 0.44 -1.28 0.8 -1.8 c0 -0.08 -0.08 -0.08 -0.12 -0.04 c-0.08 -0.16 0.4 -0.24 0.12 -0.32 c0.24 -0.12 0.28 -0.44 0.44 -0.64 c-0.2 -0.04 -0.08 0.24 -0.28 0.24 c0.08 -0.28 0.2 -0.56 0.44 -0.72 c-0.04 0.12 -0.12 0.2 -0.12 0.32 c0.64 -1.24 1.68 -3 2.6 -4.2 c0.6 -0.8 1.6 -1.48 2.72 -0.92 c0 0.24 0.36 0.16 0.48 0.24 c0.6 0.8 0.64 2.64 0.4 3.6 c0 0.36 0.2 1.12 -0.2 1.28 c0.24 0.44 -0.16 0.96 -0.28 1.52 c0 0.08 0.12 0 0.16 0.08 c-0.48 2 -0.72 4.2 -1.8 5.48 c-0.08 0.28 0.08 0.36 0.04 0.52 c0 0.16 -0.08 0.28 -0.28 0.28 c-0.04 1.08 -0.44 1.84 -0.96 2.52 c0.12 0.2 0 0.36 0 0.6 c-0.16 0.36 -0.76 0.76 -0.6 1.12 c-0.6 1 -1.12 1.84 -1.76 2.76 c-0.04 0.12 0 0.32 -0.08 0.4 c-0.12 0.04 -0.12 -0.08 -0.24 -0.04 c0.04 0.12 0.04 0.2 0 0.32 c-0.2 0 -0.28 0.24 -0.4 0.16 c-0.44 1.28 -1.64 1.96 -2.32 3.2 c-0.56 0.16 -0.76 0.68 -1.12 1.08 c0.56 0.12 0.96 -0.68 1.52 -0.84 c0.48 -0.36 1.04 -0.68 1.56 -1 c1 -0.68 1.92 -1.48 3.32 -1.76 c0.24 0.08 0.36 0.28 0.4 0.56 c-0.12 0.24 -0.28 0.44 -0.32 0.76 c-2.32 1.16 -4.2 2.76 -6.28 4.12 c-0.08 0.44 0.32 0.4 0.36 0.68 c2.32 0.68 4.76 -0.48 6.8 -1.4 c0.08 0 0.08 0.04 0.04 0.12 c0.28 -0.36 0.6 -0.16 0.8 -0.48 c0.04 0 0.08 0.04 0.04 0.08 z M92.19999999999999 22.88 c1.32 -3.96 2.92 -7.68 2.6 -12.36 c-0.04 0 -0.04 -0.04 -0.12 -0.04 c-2.08 2 -3.24 5 -4.56 7.6 c-0.84 2.64 -1.68 5.48 -2.48 8.28 c-0.24 1.44 -0.56 3.68 -0.88 5.48 c2.32 -2.36 3.96 -5.6 5.44 -8.96 z M95.08 13.760000000000002 c0.16 0.16 0.08 -0.16 0 0 l0 0 z M95.08 13.879999999999999 c0.08 0.2 0.08 -0.16 0 0 l0 0 z M95.32 14.2 c0 -0.08 -0.04 -0.12 -0.08 -0.16 c0 0.08 0 0.16 0.08 0.16 z M94.56 18.12 c0.08 -0.56 0.44 -1.32 0.36 -1.92 c0 0.08 -0.04 0.16 0.08 0.16 c-0.16 -0.32 0.04 -0.24 0.08 -0.56 c-0.12 -0.04 -0.16 0.24 -0.24 0.08 c0.16 -0.56 0.24 -1.16 0.44 -1.56 c-0.64 1.12 -0.68 2.6 -0.72 3.8 z M95.03999999999999 15.48 c0.16 -0.04 0.16 -0.28 0.04 -0.32 c0.04 0.16 -0.04 0.16 -0.04 0.32 z M90.28 15.399999999999999 c0.08 0.16 0.08 -0.2 0 0 l0 0 z M90.19999999999999 16.28 c0.04 0.04 0 0 0 0 l0 0 z M86.64 32.56 c0.04 0.2 -0.12 0.24 -0.08 0.44 c3.76 -3.68 6.2 -9.4 7.56 -14.92 c-1.76 5.52 -3.8 10.56 -7.48 14.48 z M94.44 18.64 c0 -0.12 0.16 -0.32 0.04 -0.44 c0.04 0.2 -0.2 0.32 -0.04 0.44 z M88.6 20 c0.16 0.08 0.16 -0.2 0.08 -0.2 c-0.04 0.08 -0.08 0.08 -0.08 0.2 z M88.55999999999999 20.32 c0.04 -0.04 0.12 -0.16 0 -0.2 c0 0.04 -0.12 0.2 0 0.2 z M88.44 20.52 c0.12 0.2 0.04 -0.16 0 0 l0 0 z M88.32 20.8 c0.12 0 0.16 -0.04 0.16 -0.12 c-0.12 -0.04 -0.12 0.08 -0.16 0.12 z M88.36 21.2 c0 -0.08 -0.04 -0.12 -0.08 -0.16 c0 0.08 0 0.16 0.08 0.16 z M88.11999999999999 21.32 c0.08 0.2 0.08 -0.16 0 0 l0 0 z M92.67999999999999 23.72 c0.08 0.2 0.08 -0.16 0 0 l0 0 z M87.55999999999999 23.92 c0 -0.08 -0.04 -0.12 -0.08 -0.12 c0 0.04 -0.04 0.16 0.08 0.12 z M87.28 24.68 c-0.04 -0.16 0.2 -0.36 0.04 -0.52 c-0.04 0.24 -0.2 0.4 -0.04 0.52 z M92.19999999999999 24.68 c0.04 0.04 0 0 0 0 l0 0 z M92.08 25.08 c0.16 0.16 0.08 -0.16 0 0 l0 0 z M91.96 25.560000000000002 c0.2 -0.04 0.2 -0.36 -0.04 -0.32 c0.04 0.16 0.16 0.16 0.04 0.32 z M86.19999999999999 26 c0.16 0.04 0.12 -0.12 0.16 -0.16 c-0.12 0 -0.16 0.04 -0.16 0.16 z M91.8 26.08 c0 0.04 -0.04 0 0 0 l0 0 z M86.16 26.72 c0 -0.2 0.2 -0.48 0.04 -0.64 c0 0.2 -0.2 0.56 -0.04 0.64 z M91.64 26.119999999999997 c0.04 0.2 0.04 -0.16 0 0 l0 0 z M86.83999999999999 26.84 c0.04 0 0.12 -0.2 -0.04 -0.16 c0 0.04 -0.04 0.16 0.04 0.16 z M91.16 27.2 c0.16 0.08 0.16 -0.24 0 -0.16 l0 0.16 z M86.52 27.92 c0.2 -0.08 0.28 -0.6 0.12 -0.64 c0 0.2 -0.08 0.4 -0.12 0.64 z M90.91999999999999 27.64 c-0.08 0.2 0.12 -0.24 0 0 l0 0 z M90.75999999999999 27.92 c0.16 0.08 0.16 -0.24 0 -0.16 l0 0.16 z M90.28 28.72 c0.12 -0.04 0.2 -0.12 0.24 -0.24 c-0.2 -0.04 -0.32 0.12 -0.24 0.24 z M89.91999999999999 29.6 c0.16 -0.12 -0.16 -0.2 0 -0.36 c-0.24 0 -0.12 0.32 0 0.36 z M89.96 29.36 c0.04 0.04 0 -0.04 0 0 l0 0 z M89.64 29.96 c0 0 0 -0.04 0.04 -0.04 c0 -0.04 -0.04 -0.12 -0.12 -0.08 c0.04 0.04 0 0.12 0.08 0.12 z M85.19999999999999 31 c0.12 0.24 0.12 -0.2 0 0 l0 0 z M88.55999999999999 31.28 c0.04 -0.16 0.08 -0.08 0.2 -0.04 c-0.04 -0.16 0.08 -0.16 0.04 -0.24 c-0.12 0 -0.32 0.2 -0.24 0.28 z M85.19999999999999 31.28 c0.08 0.2 0.08 -0.2 0 0 l0 0 z M100.56 32.44 c0.08 0 0.12 -0.04 0.16 -0.12 c-0.08 0 -0.12 0.04 -0.16 0.12 z M86.67999999999999 33.44 c0.12 0 0.16 -0.08 0.24 0 c-0.04 -0.2 0.16 -0.16 0.16 -0.36 c-0.2 0.08 -0.32 0.16 -0.4 0.36 z M99.75999999999999 33.32 c0 -0.04 0.12 -0.04 0.08 -0.12 c-0.08 -0.04 -0.2 0.12 -0.08 0.12 z M99.56 33.480000000000004 c0 -0.04 0.08 -0.12 0 -0.16 c0 0.08 -0.08 0.12 0 0.16 z M99.16 33.64 c0.08 0 0.12 -0.04 0.16 -0.12 c-0.08 0 -0.12 0.04 -0.16 0.12 z M84.16 35.480000000000004 l0.2 0 l0 -0.12 c-0.12 0 -0.16 0.08 -0.2 0.12 z M91.67999999999999 37.64 c0.08 0 0.12 -0.04 0.16 -0.08 c-0.08 0 -0.16 0 -0.16 0.08 z M91.56 37.64 c0.04 0.2 0.04 -0.16 0 0 l0 0 z M91.83999999999999 38.04 c0.2 -0.16 0.72 0 0.68 -0.4 c-0.24 0.16 -0.6 0.16 -0.68 0.4 z M91.32 38.24 c0.24 -0.04 0.36 0 0.4 -0.24 c-0.16 0.04 -0.4 0.04 -0.4 0.24 z M91.24 38.28 c0 -0.08 -0.04 -0.12 -0.08 -0.16 c-0.08 0.08 -0.08 0.2 0.08 0.16 z M90.72 38.32 c-0.12 0.16 0.16 -0.12 0 0 l0 0 z M89.39999999999999 15.96 c-0.04 0.08 0 0.16 -0.12 0.16 l0 -0.12 c0.04 0 0.08 0 0.04 -0.04 l0.08 0 z M86.75999999999999 23.44 c0.08 0.24 -0.08 0.6 -0.16 0.76 c-0.08 -0.28 0.08 -0.52 0.16 -0.76 z M99.6 32.96 c-0.12 -0.04 0.04 -0.16 0.04 -0.2 c0.16 0.04 -0.04 0.12 -0.04 0.2 z M97.96 33.8 c0.04 -0.12 0.2 0.08 0 0 l0 0 z M99.32 33.8 c-0.08 0.16 -0.28 0.24 -0.48 0.32 c0.12 -0.16 0.28 -0.24 0.48 -0.32 z M97.36 34.16 l0 0 c0.04 0.04 -0.04 -0.04 0 0 z M99.28 34.24 l0 0 c0.08 -0.04 0 -0.04 0 0 z M98.44 34.28 c0.12 -0.16 0.08 0.16 0 0 l0 0 z M98.19999999999999 34.36 l0.12 0 l0 0.08 l-0.12 0 l0 -0.08 z M98.08 34.44 c0.16 -0.04 0.04 0.16 0.2 0.16 c-0.04 0.08 -0.28 0 -0.2 -0.16 z M96.6 34.68 c-0.12 0 -0.08 -0.2 0.04 -0.16 c0 0.08 -0.08 0.08 -0.04 0.16 z M97.8 34.72 l0 0 c0 0.04 -0.04 0 0 0 z M98.6 34.76 l0.08 0 l0 0.12 l-0.08 0 l0 -0.12 z M96 34.88 c0 -0.16 0.2 0.04 0 0 l0 0 z M98.16 35.12 c0.04 -0.08 0.08 -0.12 0.2 -0.12 c0 0.12 -0.08 0.12 -0.2 0.12 z M97.24 35.16 c0.12 -0.2 0.08 0.16 0 0 l0 0 z M98.11999999999999 35.16 c0 -0.04 0 -0.04 0.04 -0.04 c0 0.04 0 0.04 -0.04 0.04 z M97.16 35.2 c0.04 -0.2 0.04 0.2 0 0 l0 0 z M98.08 35.2 c0 -0.04 0 -0.04 0.04 -0.04 c0 0.04 0 0.04 -0.04 0.04 z M96.44 35.56 c0 0.08 -0.12 0.04 -0.16 0.12 c-0.12 -0.04 0.08 -0.16 0.16 -0.12 z M96.64 35.64 c0 0.16 -0.2 -0.04 0 0 l0 0 z M96.39999999999999 35.8 l0 0 c0.04 0 -0.04 -0.04 0 0 z M95.96 35.84 l0 0 c0.04 0.04 0 -0.04 0 0 z M95.56 36.04 c0.04 -0.16 0.2 0.04 0 0 l0 0 z M95.47999999999999 36.08 l0 0 c0.04 0.04 0 -0.04 0 0 z M95.24 36.12 l0.08 0 l0 0.08 l-0.08 0 l0 -0.08 z M95.52 36.28 c-0.12 -0.04 0.04 -0.2 0 0 l0 0 z M95.08 36.28 l0 0 c0.04 0 0 -0.04 0 0 z M94.96 36.32 c0.04 -0.2 0.04 0.2 0 0 l0 0 z M94.8 36.36 c0.08 -0.2 0.08 0.2 0 0 l0 0 z M94.6 36.52 c0.08 -0.2 0.08 0.16 0 0 l0 0 z M94.47999999999999 36.56 l0 0 c0.04 0.04 -0.04 -0.04 0 0 z M94.08 36.76 c0 0.04 -0.04 0.08 -0.12 0.08 c-0.04 -0.12 0.04 -0.08 0.12 -0.08 z M92.91999999999999 36.8 c0.16 0.04 -0.04 0.08 -0.04 0.12 c-0.16 -0.04 0.08 -0.08 0.04 -0.12 z M93.08 37 c-0.04 0.04 -0.12 0.08 -0.2 0.08 c0.04 -0.08 0.12 -0.2 0.2 -0.08 z M93.39999999999999 37.04 c0.12 -0.2 0.08 0.16 0 0 l0 0 z M92.16 37.12 c0.12 -0.16 0.08 0.16 0 0 l0 0 z M92.67999999999999 37.08 l0.12 0 l0 0.08 l-0.12 0 l0 -0.08 z M93.08 37.16 c0.04 0.16 -0.12 0.12 -0.2 0.12 c0.04 -0.08 0.12 -0.08 0.2 -0.12 z M93.11999999999999 37.36 c0.04 -0.08 0.16 -0.12 0.28 -0.12 c-0.04 0.08 -0.16 0.12 -0.28 0.12 z M93.47999999999999 37.36 l0 0 c0 0.04 -0.04 0 0 0 z M93.11999999999999 37.36 c-0.12 0.08 -0.24 0.16 -0.36 0.2 c0 -0.16 0.2 -0.2 0.36 -0.2 z M107.2 38.96 c2.48 -2.08 4.92 -4.16 7.44 -6.16 c0.48 0.08 0.96 0.24 1.04 0.8 c-2.68 2.84 -5.92 5.12 -8.72 7.84 c0 1.32 -0.16 2.4 -0.16 3.64 c-0.68 5.76 -1.48 11.28 -3.36 16.12 c-0.4 1.84 -1.2 3.52 -2.04 4.88 c-1.48 2.56 -3.28 5.32 -7.16 5.2 c-0.28 -0.12 -0.68 -0.28 -0.96 -0.32 c-0.04 -0.08 -0.12 -0.12 -0.08 -0.28 c-1.64 -0.6 -2.28 -2.52 -2.84 -4.28 c-0.44 -2.84 0.68 -5.16 1.6 -7.36 c1.08 -2.56 2.32 -5.08 3.92 -7.08 c2.32 -3.92 5.4 -7.04 8.28 -10.36 c0.6 -0.4 1.04 -0.96 1.52 -1.44 c0.12 -2.04 0.2 -4.16 0.4 -6.16 c-1.8 1.4 -3.28 3.52 -5.52 4.6 c-3.28 -0.48 -1.04 -4.52 -0.56 -6.44 c2.16 0.6 0.52 3.36 0.16 4.68 c2.28 -1.36 4.24 -3.36 6.16 -5.24 c0.48 -0.36 1.04 -0.08 1.24 0.4 c0.04 2.08 -0.4 4.76 -0.36 6.96 z M114 33.76 c0.16 -0.12 0.6 -0.4 0.48 -0.52 c-0.16 0.2 -0.44 0.24 -0.48 0.52 z M114.76 33.84 c-0.04 -0.16 0.16 -0.08 0.12 -0.24 c-0.16 -0.12 -0.16 0.08 -0.28 0.16 c-2.48 1.92 -5 4.16 -7.48 6.24 c0 0.24 0 0.48 -0.04 0.68 c0.52 -0.36 1 -0.68 1.32 -1.2 c0.44 -0.12 0.88 -0.6 1.12 -1.08 c0.76 0.12 1.04 -1.28 1.84 -1.28 c0.96 -1.32 2.84 -2.4 3.88 -3.6 c-0.04 0.08 -0.08 0 -0.16 0 c-0.04 0.16 -0.12 0.28 -0.32 0.32 z M113.28 34.4 c0.16 -0.24 0.6 -0.4 0.56 -0.64 c-0.12 0.28 -0.56 0.24 -0.56 0.64 z M112.92 34.68 c0.08 0.16 0.12 -0.2 0 0 l0 0 z M112.32 35.36 c0.04 -0.12 0.28 -0.28 0.08 -0.36 c-0.04 0.08 -0.24 0.24 -0.08 0.36 z M112.56 35.04 c0 0.04 -0.04 0 0 0 l0 0 z M111.64 35.88 c0.12 -0.2 0.4 -0.24 0.48 -0.44 c-0.24 0.08 -0.44 0.16 -0.48 0.44 z M111.44 35.96 c0.16 0.08 0.16 -0.2 0 -0.12 l0 0.12 z M110.52 36.68 c0.28 -0.16 0.8 -0.36 0.76 -0.68 c-0.24 0.24 -0.52 0.44 -0.76 0.68 z M110.52 36.84 c-0.76 0.08 -1.48 1.36 -2.28 1.56 c-0.12 0.64 -1.08 0.68 -1.04 1.32 c0.48 -0.2 0.64 -0.92 1.12 -0.92 c0.04 -0.2 0.12 -0.4 0.32 -0.24 c0.52 -0.72 1.24 -1.16 1.88 -1.72 z M105.04 41.24 c0.12 0.32 -0.28 0.36 -0.32 0.64 c-0.12 0.04 -0.12 -0.08 -0.24 -0.04 c-0.32 0.28 -0.6 0.6 -0.96 0.88 c0.32 0.04 0.64 -0.36 0.88 -0.6 c0.04 0.04 0 0.16 0.12 0.12 c0.48 -0.16 0.6 -1.04 0.92 -0.96 c0.08 -0.08 0.28 -0.32 0.16 -0.48 c-0.2 0.16 -0.36 0.32 -0.56 0.44 z M97.36 51.8 c0 0.24 -0.16 0.24 -0.16 0.48 c-0.12 0.04 -0.36 0.24 -0.16 0.28 c0.04 -0.08 0.16 -0.12 0.16 -0.28 c0.24 -0.2 0.48 -0.44 0.56 -0.8 c-0.24 0 -0.2 0.28 -0.4 0.32 c0.2 -0.36 0.44 -0.68 0.68 -0.96 c0 0.24 -0.2 0.28 -0.24 0.48 c1.16 -1.12 1.88 -2.6 3.04 -3.68 c-0.16 -0.24 0.16 -0.24 0.04 -0.4 c-0.2 0.24 -0.4 0.52 -0.64 0.72 c0.48 -0.72 1 -1.4 1.6 -2 c0 0.12 -0.12 0.12 -0.08 0.28 c0.16 -0.04 0.4 -0.28 0.32 -0.44 c-0.04 0.08 -0.08 0.16 -0.24 0.16 c0.44 -0.6 1 -1.28 1.48 -1.64 c-0.04 0.2 -0.24 0.24 -0.28 0.44 c0.28 -0.12 0.36 -0.44 0.64 -0.4 c-0.36 -0.16 0.68 -0.72 0.28 -0.8 c0.2 -0.12 0.24 -0.36 0.48 -0.44 c-0.04 0.08 -0.16 0.08 -0.12 0.24 c0.4 -0.24 0.72 -0.52 0.92 -0.96 c-0.32 0.08 -0.4 0.6 -0.68 0.56 c0.16 -0.64 1.28 -0.84 0.92 -1.48 c-0.16 0.28 -0.6 0.48 -0.6 0.76 c-0.44 0.28 -1.16 0.92 -1.32 1.44 c-4.28 4.32 -7.64 9.32 -10.52 15 c-0.28 1 -0.56 1.4 -0.8 2.24 c1 -1.92 2 -4.2 3.16 -6.08 l0 0.2 c0.64 -0.68 0.92 -1.36 1.4 -2.16 c-0.44 0.2 -0.44 0.88 -0.88 1.08 c0.4 -0.72 0.88 -1.52 1.44 -2.16 z M104.76 41.72 c0 -0.08 0.08 -0.24 -0.08 -0.2 c0 0.12 0 0.2 0.08 0.2 z M104.32 42.36 c0.04 0.04 0 -0.04 0 0 l0 0 z M103.84 42.88 c0.24 -0.08 0.36 -0.24 0.44 -0.44 c-0.2 0.08 -0.28 0.28 -0.44 0.44 z M99.24 50.08 c0 0.16 -0.08 0.2 -0.08 0.4 c-1.56 1.68 -2.68 3.88 -3.96 5.76 c-1.4 3.28 -3.12 5.92 -3.4 10.24 c-0.2 0.08 -0.04 0.6 -0.24 0.84 c-0.08 -0.08 0.08 -0.44 -0.12 -0.44 c-0.12 0.6 0.12 1.16 0.28 1.68 c0.8 1.2 2.84 1.6 4.36 0.8 c3.96 -2.24 5.32 -6.72 6.88 -11.2 c1 -4.44 2.28 -9.56 2.52 -15.28 c0 -0.04 0 -0.04 -0.04 -0.04 c-2.12 2.32 -4.16 4.8 -6.2 7.24 z M103 43.4 c0.2 0 0.56 -0.32 0.32 -0.44 c-0.08 0.2 -0.32 0.2 -0.32 0.44 z M103.52 43.04 c0.04 0 0 -0.04 0 0 l0 0 z M103.44 43.44 c-0.08 -0.12 0.2 -0.16 0.04 -0.24 c0 0.08 -0.2 0.2 -0.04 0.24 z M104.2 43.6 c0 -0.08 0.2 -0.16 0.04 -0.2 c0 0.08 -0.2 0.16 -0.04 0.2 z M102.48 44 c0.2 0 0.12 -0.32 0.4 -0.2 c0.04 -0.12 0.2 -0.24 0 -0.28 c-0.04 0.2 -0.4 0.16 -0.4 0.48 z M103.12 43.6 c0.04 0.04 0 -0.04 0 0 l0 0 z M103.04 43.76 c0.2 0.04 0 -0.16 0 0 l0 0 z M104.04 43.88 c0.2 0.04 0.04 -0.12 0 0 l0 0 z M102.28 44.16 c0.16 0 0.2 0.12 0.24 -0.04 c-0.08 -0.08 -0.2 -0.04 -0.24 0.04 z M102.64 44.16 c0.12 0 0.16 -0.04 0.16 -0.08 c-0.08 0 -0.12 0.04 -0.16 0.08 z M102.52 44.28 l0 0.08 c0.12 0.08 0.12 -0.16 0.04 -0.12 c0 0 0 0.04 -0.04 0.04 z M101.92 44.519999999999996 c0.16 0 0.32 -0.04 0.32 -0.2 c-0.16 0.04 -0.24 0.08 -0.32 0.2 z M102.36 44.519999999999996 c-0.12 0.16 0.16 -0.12 0 0 l0 0 z M101.76 44.8 l-0.08 0 c-0.04 0.04 -0.04 0.24 0.08 0.24 l0 -0.24 c0.12 0 0.24 0 0.24 -0.08 c-0.12 -0.12 -0.24 -0.04 -0.24 0.08 z M102.16 44.72 c-0.04 0.28 0.04 -0.2 0 0 l0 0 z M103 45 l0 0.04 c0.12 0.04 0.2 -0.12 0.04 -0.08 l0 -0.16 c-0.12 0.08 -0.28 0.12 -0.28 0.32 c0.16 0.08 0.16 -0.08 0.24 -0.12 z M101.44 45.24 c-0.2 0 0 0.16 0 0 c0.04 0 0.08 0.04 0.12 0.04 c0 -0.12 0.12 -0.28 -0.04 -0.28 c-0.04 0.04 -0.08 0.12 -0.08 0.24 z M101.8 45.24 c0.08 0.04 0.2 -0.12 0.08 -0.16 c0 0.08 -0.12 0.04 -0.08 0.16 z M101.68 45.24 c0.08 0.16 0.08 -0.2 0 0 l0 0 z M102.16 45.76 c0.16 -0.12 0.56 -0.24 0.48 -0.4 c0 0.04 -0.04 0.08 -0.08 0.08 c0 -0.12 -0.04 -0.16 -0.08 -0.16 c-0.12 0.16 -0.2 0.32 -0.32 0.48 z M100.96 45.72 c-0.24 0.16 -0.6 0.52 -0.56 0.8 c0.32 -0.12 0.36 -0.52 0.64 -0.72 c-0.04 -0.04 -0.08 -0.04 -0.08 -0.08 l0.24 0 c0.08 -0.12 0.12 -0.2 0.12 -0.4 c-0.2 0.04 -0.2 0.12 -0.16 0.28 c-0.08 0.04 -0.24 -0.04 -0.2 0.12 z M101.28 45.84 c0.12 -0.08 0.4 -0.24 0.28 -0.4 c-0.04 0.16 -0.32 0.16 -0.28 0.4 z M101.08 46.04 c0.12 0.2 0.08 -0.16 0 0 l0 0 z M100.88 46.44 c0 -0.08 0.2 -0.28 0 -0.24 c0.04 0.08 -0.12 0.2 0 0.24 z M100.36 47.04 c0.08 -0.16 0.56 -0.44 0.32 -0.6 c0 0.28 -0.44 0.36 -0.32 0.6 z M101.44 46.519999999999996 c0.08 0.16 0.12 -0.2 0 0 l0 0 z M101.04 47.12 c-0.08 0 0 0.04 0 0 c0.16 -0.12 0.36 -0.24 0.4 -0.44 c-0.28 0 -0.28 0.28 -0.4 0.44 z M99.12 48 c0.48 -0.04 0.68 -0.84 1.08 -1.2 c-0.44 0.12 -0.8 0.8 -1.08 1.2 z M99.84 47.6 c0.12 0 0.28 -0.24 0.16 -0.32 c-0.04 0.12 -0.16 0.16 -0.16 0.32 z M98.76 48.44 c0.2 0.16 0.52 -0.28 0.2 -0.32 c-0.04 0.12 -0.16 0.2 -0.2 0.32 z M99.4 48.2 l-0.04 0 c-0.04 0.04 -0.08 0.08 -0.08 0.16 c-0.12 0 0.08 0.2 0 0 c0.08 -0.04 0.12 -0.08 0.12 -0.16 c0.2 0.04 0 -0.12 0 0 z M98.52 48.72 c0.16 0 0.28 0 0.28 -0.16 c-0.12 -0.12 -0.24 0.04 -0.28 0.16 z M99.16 48.56 c0.04 0.16 0.04 -0.2 0 0 l0 0 z M98.52 48.84 c-0.04 0 -0.04 -0.04 -0.08 -0.04 c-0.12 0.04 0.08 0.16 0.08 0.04 z M98.88 48.88 c0 0.04 -0.04 -0.04 0 0 l0 0 z M98.76 49.04 c0.2 0.04 0.04 -0.16 0 0 l0 0 z M95.68 52.88 l-0.04 0 c-0.44 0.72 -0.84 1.2 -1.2 2 c-0.2 0.24 -0.44 0.72 -0.44 1.04 c0.2 -0.32 0.32 -0.68 0.44 -1.04 c0.6 -0.4 0.68 -1.32 1.24 -1.72 l0 -0.28 c0.48 -0.24 0.36 -0.8 0.84 -1.04 c0 -0.08 0 -0.16 -0.04 -0.24 c0.76 -0.64 1.32 -1.64 1.96 -2.56 c-1.08 1.08 -2 2.4 -2.76 3.84 z M105.2 49.16 c0.04 0.04 0 0 0 0 l0 0 z M98.56 49.28 c0.04 0 0 -0.04 0 0 l0 0 z M105.44 50.04 c-0.04 0.28 0.04 -0.2 0 0 l0 0 z M105.04 50.08 c0.08 0.16 0.12 -0.2 0 0 l0 0 z M105.44 50.32 c-0.12 0.16 0.16 -0.12 0 0 l0 0 z M105.4 50.56 c0.04 0.04 -0.04 -0.04 0 0 l0 0 z M104.68 52.16 l0.2 0 c-0.08 -0.36 0.24 -0.8 0.04 -1.16 c-0.12 0.36 -0.08 0.8 -0.24 1.16 z M105.24 51.6 c0 -0.08 0.16 -0.28 0 -0.32 c0.08 0.16 -0.12 0.28 0 0.32 z M104.52 52 c0.08 0.2 0.08 -0.2 0 0 l0 0 z M104.48 52.16 c0.04 0 0 -0.04 0 0 l0 0 z M104.68 52.519999999999996 c0.16 0 0.2 -0.32 0.04 -0.32 c-0.08 0.12 0 0.16 -0.04 0.32 z M105.04 52.44 c0.16 0.08 0.16 -0.2 0.08 -0.2 c0 0.08 -0.08 0.12 -0.08 0.2 z M104.48 52.56 c0.04 0.04 0 0 0 0 l0 0 z M96.8 52.68 l0 0.08 c0.08 0.16 0.16 -0.08 0.2 -0.12 c-0.08 -0.04 -0.12 0.04 -0.2 0.04 z M104.4 52.68 c-0.04 0.28 0 -0.2 0 0 l0 0 z M104.04 55.68 l-0.04 0 c-0.04 0.32 -0.16 0.4 -0.28 0.48 c0 0.2 0.16 -0.08 0.12 0.08 c-0.36 1.44 -0.68 2.96 -1.2 4.24 l-0.16 0 c0.04 -0.2 -0.16 0 0 0 c0 0.16 -0.28 -0.04 -0.2 0.16 c0.04 0.16 0.28 0 0.32 0.08 c-0.16 0.32 -0.2 0.76 -0.44 1.04 c-0.08 -0.16 -0.08 0.2 -0.28 0.04 c0 0.08 -0.2 0.28 -0.08 0.36 c0.04 -0.28 0.24 -0.2 0.36 -0.36 c0.04 0.16 0 0.4 -0.16 0.28 c0.24 0.36 -0.24 0.52 -0.2 0.96 c-0.12 0 -0.16 0 -0.16 0.08 c-0.12 0.12 0 0.52 -0.24 0.64 c-0.12 -0.04 -0.16 -0.2 -0.28 -0.24 c0.08 0.2 -0.2 0.28 -0.04 0.4 c0.08 -0.28 0.12 0 0.32 -0.12 c-0.4 0.28 0 0.84 -0.6 1.12 c0 0.16 0.16 -0.12 0.12 0.04 c-0.72 0.48 -0.84 1.56 -1.44 2.2 c0.12 0.04 0.16 -0.12 0.2 0 c-0.08 0.12 -0.12 0.2 -0.28 0.12 c-0.28 0.44 -0.64 0.76 -0.92 1.2 c-0.24 0.08 -0.36 0.24 -0.44 0.52 c0.32 0.04 0.32 -0.24 0.52 -0.28 c0.04 -0.16 -0.12 -0.12 -0.08 -0.24 c0.12 -0.04 0.12 0 0.2 0.04 c-0.04 -0.16 0.16 -0.48 0.28 -0.44 c0 0.08 -0.12 0.04 -0.08 0.2 c-0.08 0 0 0.04 0 0 c0.16 -0.08 0.28 -0.2 0.32 -0.4 c-0.08 -0.04 -0.16 0.16 -0.2 0 c0.36 -0.04 0.68 -0.4 0.76 -0.84 l0.12 0 c0.08 -0.24 0.48 -0.56 0.24 -0.8 c0.16 0 0.08 -0.28 0.24 -0.32 c0.08 0.12 -0.12 0.24 0 0.28 c1.08 -1.84 1.76 -3.84 2.6 -6 c0 0.04 0.04 0.08 0.08 0.12 c0.12 -0.16 0.04 -0.16 0.16 -0.32 c-0.16 0 -0.16 0.16 -0.24 0.2 c0.28 -1.36 0.84 -3 1.08 -4.52 c0.32 -1 0.48 -1.92 0.68 -3.04 c-0.32 0.16 0 0.96 -0.44 1.04 c0.28 0.52 -0.24 1.28 -0.24 2 z M105 52.88 c0.16 0.04 0.16 -0.32 0 -0.24 l0 0.24 z M104.8 53.64 c0.2 0.04 0.04 -0.16 0 0 l0 0 z M104.76 53.92 c0.16 0 0.2 -0.2 0.04 -0.2 c0 0.08 -0.04 0.08 -0.04 0.2 z M94.68 53.92 c0.16 0.16 0.08 -0.16 0 0 l0 0 z M104 54.56 c0.12 0 0.16 -0.08 0.16 -0.2 c-0.12 -0.04 -0.16 0.04 -0.16 0.2 z M104.48 55.16 c0.16 0.04 0.12 -0.12 0.2 -0.2 c-0.08 0 -0.08 -0.04 -0.16 -0.04 c0.04 0.12 0 0.2 -0.04 0.24 z M103.92 55.28 l0.08 0 l0 -0.12 l-0.08 0 l0 0.12 z M104.32 55.2 c0.04 0.04 0 0 0 0 l0 0 z M103.8 55.28 c0.08 0.16 0.08 -0.2 0 0 l0 0 z M95.16 55.4 l0.16 0 c0 -0.08 -0.04 -0.12 -0.16 -0.08 l0 0.08 z M104.48 55.36 c0.04 0.2 0.04 -0.2 0 0 l0 0 z M103.76 55.4 c0.04 0.04 0 0 0 0 l0 0 z M95.04 55.88 c0 -0.12 0.32 -0.36 0.08 -0.44 c0 0.16 -0.2 0.32 -0.08 0.44 z M103.68 55.68 c0.12 0.08 0.12 -0.2 0.04 -0.16 c0 0.08 -0.04 0.08 -0.04 0.16 z M95.28 55.6 c0.04 0.2 0.04 -0.2 0 0 l0 0 z M93.72 56.16 c0.16 0.04 0.2 -0.08 0.2 -0.16 c-0.16 -0.04 -0.12 0.12 -0.2 0.16 z M94.8 56.28 c0 -0.08 0.2 -0.28 0 -0.28 c0.04 0.12 -0.16 0.2 0 0.28 z M104.32 56.04 c0.08 0.16 0.12 -0.2 0 0 l0 0 z M103.56 56.08 c0.08 0.2 0.08 -0.2 0 0 l0 0 z M104.28 56.28 c0.04 0.04 0 -0.04 0 0 l0 0 z M94.64 56.36 c0.04 0.2 0.04 -0.2 0 0 l0 0 z M103.6 56.519999999999996 c0.04 0.04 0 -0.04 0 0 l0 0 z M104.24 56.56 c0.04 0.2 0.04 -0.2 0 0 l0 0 z M94.4 56.8 c0.04 0 0.08 0.04 0.08 0.04 c0 -0.08 0.04 -0.16 -0.08 -0.12 l0 0.08 z M93.48 56.8 c0.04 0.04 0 -0.04 0 0 l0 0 z M104 56.8 c0.04 0.04 0 -0.04 0 0 l0 0 z M103.44 56.84 c0 0.04 -0.04 0 0 0 l0 0 z M103.32 56.96 l0 0.08 c0.12 0.08 0.16 -0.16 0.04 -0.16 c0 0.04 0 0.08 -0.04 0.08 z M93.2 57.44 c0 -0.12 0.24 -0.24 0.08 -0.32 c0 0.08 -0.24 0.2 -0.08 0.32 z M103.24 57.44 c0.16 0.04 0.08 -0.16 0.12 -0.2 c-0.12 -0.04 -0.12 0.08 -0.12 0.2 z M104 57.36 c0.04 0.2 0.04 -0.16 0 0 l0 0 z M103.96 57.6 c0.04 0.2 0.04 -0.16 0 0 l0 0 z M103.8 58.16 c0.08 0.16 0.08 -0.2 0 0 l0 0 z M103.04 58.2 l0 0.04 c-0.12 0.28 0.24 -0.28 0 -0.04 z M103.6 58.28 l-0.04 0 c0.04 0.04 0 0.04 -0.04 0.04 l0 0.12 c0.12 0 0.08 -0.08 0.08 -0.16 c0.08 -0.04 0 -0.04 0 0 z M103 58.480000000000004 l0.08 0 l0 -0.08 l-0.08 0 l0 0.08 z M103.72 58.44 c0.04 0.04 -0.04 -0.04 0 0 l0 0 z M103.48 58.92 c-0.04 -0.12 0.16 -0.2 -0.04 -0.2 c0 0.08 -0.04 0.16 0.04 0.2 z M103.6 58.760000000000005 c0.08 0.2 0.08 -0.2 0 0 l0 0 z M102.84 59.04 c0.16 0 0.2 -0.28 0.04 -0.28 c-0.04 0.08 -0.04 0.16 -0.04 0.28 z M103.52 59.04 c0.04 0.2 0.04 -0.16 0 0 l0 0 z M103.32 59.16 c-0.16 0.2 0.12 -0.16 0 0 l0 0 z M102.76 59.239999999999995 c-0.12 0.16 0.16 -0.12 0 0 l0 0 z M103.48 59.239999999999995 c0.04 0.04 -0.04 0 0 0 l0 0 z M102.72 59.480000000000004 c0.04 0.2 0.04 -0.2 0 0 l0 0 z M102.64 59.64 c-0.08 0.16 0.2 -0.12 0 0 l0 0 z M102.52 60.08 c0.04 0.16 0.04 -0.2 0 0 l0 0 z M102.96 60.64 c0 -0.04 0 -0.04 0.04 -0.04 c0 -0.08 0 -0.12 -0.12 -0.12 c0.04 0.08 0 0.16 0.08 0.16 z M102.76 61.04 c0.16 0.04 0.2 -0.28 0.08 -0.32 c-0.04 0.12 -0.08 0.2 -0.08 0.32 z M102.24 60.84 c0 0.04 -0.04 -0.04 0 0 l0 0 z M102.36 60.879999999999995 c0.04 0.04 0 -0.04 0 0 l0 0 z M102.32 61.120000000000005 c0.04 0.04 0 -0.04 0 0 l0 0 z M92.08 61.68 c0 -0.2 0.28 -0.48 0.08 -0.56 c-0.04 0.16 -0.2 0.4 -0.08 0.56 z M102.16 61.32 c0.04 0.04 0 -0.04 0 0 l0 0 z M102.8 61.36 l0.08 0 l0 -0.08 l-0.08 0 l0 0.08 z M102.56 61.68 c-0.08 0.08 -0.2 0.32 -0.08 0.4 c0.04 -0.12 0.12 -0.2 0.08 -0.4 l0.04 0 c0.04 0 0.12 -0.2 0 -0.24 c0.04 0.12 -0.08 0.12 -0.04 0.24 z M91.84 62.239999999999995 c-0.12 0 0.08 0.2 0 0 c0.12 -0.08 0.16 -0.24 0.16 -0.4 c-0.16 0 -0.12 0.2 -0.16 0.4 z M101.88 62.28 c0.04 0.04 0 -0.04 0 0 l0 0 z M101.56 62.6 c0.12 0.04 0.2 -0.28 0.08 -0.32 c0 0.12 -0.04 0.2 -0.08 0.32 z M101.84 62.519999999999996 c0 -0.04 0.12 -0.2 0 -0.2 c0.04 0.08 -0.16 0.16 0 0.2 z M102.28 62.4 c0.04 0.2 0.04 -0.16 0 0 l0 0 z M102.24 62.56 c-0.04 0.28 0 -0.2 0 0 l0 0 z M101.32 63.36 c0.08 -0.16 0.12 -0.32 0.2 -0.48 c-0.2 0.04 -0.4 0.4 -0.2 0.48 z M100.84 64.4 l-0.04 0 c-0.04 0 -0.12 0.16 0 0.16 c0.04 -0.04 0.04 -0.08 0.04 -0.16 c0.08 -0.12 0.36 -0.32 0.12 -0.4 c0.08 0.24 -0.16 0.16 -0.12 0.4 z M100.56 64.88 c0.08 0 0.2 -0.2 0.08 -0.2 c-0.04 0.08 -0.08 0.12 -0.08 0.2 z M100.24 65.48 c0.04 -0.04 0.2 -0.16 0.08 -0.24 c0.04 0.12 -0.2 0.16 -0.08 0.24 z M100.12 65.76 c0.08 0.04 0.2 -0.12 0.08 -0.12 c0 0.04 -0.08 0.08 -0.08 0.12 z M99.84 66.24 c0.12 0.04 0.28 -0.24 0.08 -0.24 c0 0.12 -0.08 0.16 -0.08 0.24 z M99.68 66.44 l0.08 0 l0 -0.08 l-0.08 0 l0 0.08 z M99.6 66.84 c0 -0.12 0.04 -0.12 0.08 -0.28 c-0.16 -0.04 -0.28 0.24 -0.08 0.28 z M99.4 66.92 c0.08 0.16 0.12 -0.2 0 0 l0 0 z M99.16 67.44 c0.04 -0.12 0.12 -0.16 0.2 -0.28 c-0.08 0 -0.12 -0.08 -0.2 -0.04 c0.04 0.16 -0.24 0.24 0 0.32 z M99.96 67.2 c0.04 0.04 0 0 0 0 l0 0 z M98.64 68.03999999999999 c0.08 -0.2 0.44 -0.32 0.32 -0.52 c-0.08 0.16 -0.44 0.32 -0.32 0.52 z M99.2 68.24 c0.08 0.16 0.12 -0.2 0 0 l0 0 z M97 69.52 l-0.12 0 l0 0.08 c0.12 0.04 0.12 -0.04 0.12 -0.08 c0.32 -0.16 0.6 -0.36 0.72 -0.72 c-0.28 0.2 -0.48 0.48 -0.72 0.72 z M95.4 69.84 c-1.04 0.44 -1.84 0.08 -2.76 -0.12 c0.44 0.6 2 0.68 2.76 0.12 z M114.72 33.92 c-0.04 0.16 -0.28 0.12 -0.36 0.28 c-0.08 -0.12 0.08 -0.36 0.36 -0.28 z M113.8 34.64 c0.12 -0.16 0.36 -0.44 0.48 -0.4 c-0.12 0.2 -0.28 0.32 -0.48 0.4 z M113.8 34.64 c-0.04 0.12 -0.16 0.2 -0.28 0.24 c0.08 -0.12 0.08 -0.24 0.28 -0.24 z M109.72 38.24 l0.08 0 l0 0.08 c-0.04 0 -0.04 0 -0.04 0.04 l-0.08 0 l0 -0.08 c0.04 0 0.04 -0.04 0.04 -0.04 z M104.52 42 c0.04 -0.12 0.2 0.08 0 0 l0 0 z M104.44 43.12 c0 -0.08 0 -0.16 0.08 -0.16 c0 0.08 -0.04 0.12 -0.08 0.16 z M103.84 43.68 c0.12 -0.16 0.08 0.16 0 0 l0 0 z M103.76 43.8 c0 0.24 -0.24 0.2 -0.28 0.44 c-0.12 -0.16 0.12 -0.4 0.28 -0.44 z M103 45 c0.04 0 0.04 0 0.04 -0.04 c-0.04 -0.04 -0.04 0 -0.04 0.04 z M100.24 47.96 c0.04 0.12 -0.04 0.16 -0.12 0.2 c0 -0.12 0.08 -0.16 0.12 -0.2 z M100.08 48.2 c0 -0.04 0 -0.04 0.04 -0.04 c0 0.04 0 0.04 -0.04 0.04 z M100.08 48.2 c0 0.08 -0.08 0.04 0 0 l0 0 z M99.92 48.32 c0.04 0.2 -0.24 0.48 -0.44 0.6 c0.12 -0.24 0.32 -0.4 0.44 -0.6 z M98.04 50.84 c0.4 -0.6 0.92 -1.36 1.36 -1.76 c-0.4 0.64 -0.8 1.28 -1.36 1.76 z M96.88 52.24 l0 0 c0.04 0.04 0 -0.04 0 0 z M95.88 54 c0.24 0.08 0 0.24 -0.04 0.36 c-0.16 -0.12 0.04 -0.24 0.04 -0.36 z M95.64 54.36 c0.16 0.12 -0.08 0.24 -0.08 0.36 c-0.24 -0.08 0.04 -0.24 0.08 -0.36 z M101.64 63.120000000000005 c0.08 0 0.04 0.08 0 0 l0 0 z M100.4 65.68 c0.12 -0.2 0.08 0.16 0 0 l0 0 z M99.76 67.03999999999999 c-0.08 0 -0.08 -0.04 -0.04 -0.12 c0.04 0 0.08 0.04 0.04 0.12 z M99.28 67.64 l0 0 c0.08 -0.04 0 -0.04 0 0 z M99.28 67.64 c0 0.2 -0.2 0 0 0 l0 0 z" fill="#364F6B"></path></g><g id="SvgjsG6643" featurekey="sloganFeature-0" transform="matrix(0.853926940423592,0,0,0.853926940423592,64.31700156269112,126.14969675371665)" fill="#3FC1C9"><path d="M15.04 19.54 c0.16 0 0.14 0.5 0 0.56 c-1.12 0.42 -2.78 0.28 -3.88 -1.14 l-3.12 -4 c-0.84 -1.08 -1.94 -1.28 -3.4 -1.3 l0 3.92 c0 1.4 0.92 1.64 2.26 1.8 c0.14 0.02 0.04 0.62 -0.12 0.62 l-5.78 0 c-0.16 0 -0.28 -0.6 -0.12 -0.62 c0.98 -0.14 1.68 -0.5 1.68 -1.8 l0 -9.04 c0 -1.32 -0.7 -1.7 -1.68 -1.96 c-0.16 -0.04 -0.06 -0.64 0.12 -0.62 c0.8 0.1 1.68 0.12 2.28 0.12 c1.34 0 2.62 -0.12 3.54 -0.12 c2.86 0 4.96 1.2 4.96 3.7 c0 2.38 -1.98 3.52 -3.5 3.62 l0 0.1 c0.74 0 1.24 0.32 2.08 1.38 l3.08 3.84 c0.56 0.72 1.1 0.94 1.6 0.94 z M5.26 12.8 c3 0 4.32 -0.52 4.32 -2.62 c0 -2.18 -1.44 -3.26 -3.28 -3.26 c-1.22 0 -1.66 0.48 -1.66 1.62 l0 4.26 l0.62 0 z M41.298500000000004 19.36 c0.28 0.04 0.2 0.64 -0.04 0.64 l-4.98 0 c-0.26 0 -0.3 -0.6 -0.06 -0.64 c0.76 -0.12 1.52 -0.42 0.78 -2.16 l-0.3 -0.7 c-0.18 -0.46 -0.62 -0.48 -1.26 -0.48 l-4.16 0 c-0.6 0 -1.04 0.02 -1.22 0.48 l-0.28 0.7 c-0.74 1.78 0.02 2.02 1.02 2.16 c0.24 0.04 0.2 0.64 -0.06 0.64 l-4.22 0 c-0.26 0 -0.32 -0.6 -0.06 -0.64 c0.84 -0.12 1.32 -0.44 2.06 -2.16 l3.38 -7.7 c0.78 -1.76 1.02 -2.64 1.02 -3.4 c0 -0.12 1.42 -0.44 1.48 -0.3 l4.88 11.38 c0.74 1.74 1.22 2.06 2.02 2.18 z M35.438500000000005 15 c0.3 0 0.64 -0.04 0.52 -0.3 l-2.56 -6.08 l-2.56 6.08 c-0.12 0.26 0.2 0.3 0.5 0.3 l4.1 0 z M62.077 20.32 c-4.8 0 -8.66 -2.3 -8.66 -7.02 c0 -3.88 2.66 -7.62 8.14 -7.62 c2.4 0 4.26 0.7 4.04 1.34 l-0.26 0.78 c-0.62 1.8 -1.58 -0.64 -5.14 -0.64 c-3.12 0 -4.76 1.88 -4.76 5.04 c0 4.7 3.34 6.94 6.06 6.94 c1.42 0 2.14 -0.7 2.14 -1.94 l0 -0.38 c0 -1.52 -0.62 -2.02 -2.24 -2.26 c-0.26 -0.04 -0.08 -0.72 0.36 -0.72 l4.9 0 c0.54 0 0.28 0.66 0.06 0.72 c-0.68 0.18 -1.16 0.62 -1.16 1.9 l0 0.72 c0 0.54 0.02 0.92 0.4 1.58 c-1.2 0.64 -3.38 1.56 -3.88 1.56 z M79.0155 20.04 c-0.2 0.02 -0.28 -0.6 -0.12 -0.64 c1.18 -0.3 2.08 -0.48 2.08 -1.96 l0 -8.96 c0 -1.34 -0.82 -1.68 -1.7 -1.9 c-0.16 -0.04 -0.08 -0.64 0.12 -0.62 c0.82 0.1 1.66 0.12 2.34 0.12 c1.4 0 2.8 -0.12 3.84 -0.12 c4.94 0 7.46 2.86 7.46 6.76 s-2.6 7.32 -7.48 7.32 c-0.96 0 -2.2 -0.12 -3.54 -0.12 c-1.08 0 -2.06 0.02 -3 0.12 z M85.6155 19.06 c3.46 0 5.34 -1.86 5.34 -5.38 c0 -3.7 -2.12 -6.74 -5.92 -6.74 c-1.54 0 -1.98 0.46 -1.98 1.54 l0 8.96 c0 1.1 0.6 1.62 2.56 1.62 z M112.654 20.32 c-4.16 0 -7.18 -3.1 -7.18 -7.26 c0 -4.02 2.84 -7.38 7.22 -7.38 c4.18 0 7.18 3.1 7.18 7.24 c0 4.04 -2.82 7.4 -7.22 7.4 z M113.39399999999999 19.1 c1.84 0 4.42 -1.18 4.42 -5.14 c0 -4.14 -2.84 -7.06 -5.84 -7.06 c-1.86 0 -4.42 1.18 -4.42 5.12 c0 4.18 2.82 7.08 5.84 7.08 z M132.0125 20.04 c-0.2 0.02 -0.28 -0.6 -0.12 -0.64 c1.18 -0.3 2.08 -0.48 2.08 -1.96 l0 -9.02 c0 -1.4 -0.82 -1.68 -1.7 -1.8 c-0.16 -0.02 -0.04 -0.62 0.1 -0.62 l5.22 0 c0.16 0 0.26 0.6 0.12 0.62 c-0.86 0.1 -1.66 0.4 -1.66 1.8 l0 9.02 c0 1.16 0.52 1.54 2.24 1.54 c3.24 0 4.28 -1.3 4.78 -2.14 c0.16 -0.26 0.64 -0.2 0.64 0.18 c0 1.1 -0.84 3 -2.06 3.02 c-0.96 -0.06 -2.24 -0.12 -3.96 -0.12 c-1.84 0 -3.84 -0.06 -5.68 0.12 z M155.351 20.04 c-0.2 0.02 -0.28 -0.6 -0.12 -0.64 c1.18 -0.3 2.08 -0.48 2.08 -1.96 l0 -9.02 c0 -1.4 -0.82 -1.68 -1.7 -1.8 c-0.16 -0.02 -0.04 -0.62 0.1 -0.62 l5.22 0 c0.16 0 0.26 0.6 0.12 0.62 c-0.86 0.1 -1.66 0.4 -1.66 1.8 l0 9.02 c0 1.16 0.52 1.54 2.24 1.54 c3.24 0 4.28 -1.3 4.78 -2.14 c0.16 -0.26 0.64 -0.2 0.64 0.18 c0 1.1 -0.84 3 -2.06 3.02 c-0.96 -0.06 -2.24 -0.12 -3.96 -0.12 c-1.84 0 -3.84 -0.06 -5.68 0.12 z M183.04950000000002 20.32 c-1.66 0 -4.06 -0.76 -3.84 -1.6 l0.18 -0.7 c0.54 -1.94 1.14 0.98 4.44 0.98 c1.74 0 2.72 -0.84 2.72 -2.1 c0 -1.04 -0.76 -1.5 -2.04 -2.26 l-2.24 -1.36 c-2.04 -1.24 -2.84 -2.12 -2.84 -3.5 c0 -2.38 2.28 -4.1 4.82 -4.1 c1.54 0 3.42 0.64 3.22 1.32 l-0.24 0.74 c-0.56 1.8 -1.08 -0.76 -3.82 -0.76 c-1.54 0 -2.32 0.8 -2.32 1.88 c0 0.88 0.54 1.4 1.88 2.22 l2.34 1.4 c2.04 1.22 2.86 2.14 2.86 3.52 c0 2.44 -2.44 4.32 -5.12 4.32 z" fill="#3FC1C9"></path></g></svg>