<svg xmlns="http://www.w3.org/2000/svg" height="50px" viewBox="0 0 370.2 143.1"  preserveAspectRatio="xMidYMid meet">
  <path class="prefix__fil0" d="M53.049 53.005C51.547 51.253 50.296 49.5 47.544 48c-2.253 5.755 1.25 11.26-.25 17.516-2.503 9.009-19.018 7.507-23.022 14.264-3.754 5.755-2.002 12.261-.25 18.767-5.255-3.003-10.76-6.256-16.516-2.002-5.005 3.754-5.005 9.009-3.003 14.514 2.252 7.006 7.007 9.259-2.252 13.012-4.004 1.502-2.252 7.257 2.002 6.006 9.509-3.253 10.76-7.758 9.008-14.013-1.5-5.506-5.505-11.26-2.001-14.013 4.003-3.254 12.762 4.504 16.015 3.002 0-.75.5-2.502.75-4.504.25-.5.5-.25.25.25-.25 2.753-.25 4.505.25 5.505 1.002 2.753 8.258 1.252 11.511 2.002 4.254 1.252 10.01 1.252 10.51.5 1.502-2.251.25-4.003-2.002-5.254-2.502-1.501-5.004-1.251-8.007-1.501-.5 0-.75-.25-.75-.751 0-2.252 16.765-9.76 6.505-16.766-.5-.5-.25-.75.25-.5 10.51 7.256-4.754 15.764-5.755 17.266h1.001c2.753-3.503 7.257-4.755 9.259-7.007 1.751 2.503 4.004 5.756 4.254 12.011-.25 3.504 1.501 3.003 6.756 3.003 1.752 0 3.754-.5 4.004-2.002-.25-1.25 0-2.752-1.502-3.253-1.751-.75-2.252.5-3.253-2.502-3.002-9.76 1.252-12.762 1.752-18.767 1.251-9.26-3.753-13.513 4.004-19.519 2.252-1.751 1.751-3.253 1.501-6.256 0-1.501-1-2.001-2.502-2.001-2.252 0-2.252 0-6.006-2.503-2.252-.5-5.004.25-7.006.5zm7.256 1.751c-.5 0-1.751.25-1.751.751 0 .25 1.251 1.001 1.751 1.001s.5-.75.5-1.001c0-.5 0-.75-.5-.75z" xmlns="http://www.w3.org/2000/svg" fill="#364F6B"/>
    <path d="M139.236 45.52c2.039-.37 2.873-.092 4.727-.463v.278c.278.093.185-.37.37-.37.371-.093.371.277.464.37.927-.556 2.317.37 3.244-.093 1.853-.092 3.336.927 2.873 3.059-.463.37-.927.093-1.298 0-.927-.278-1.76 0-2.595 0-.185 0-.278-.37-.463-.37s-1.02.277-1.669.185c-.834 0-1.483-.186-1.946-.186-4.078.093-8.249.556-13.161 1.02 0 .834.092 1.76-.556 2.131-.093.371.37.093.278.371-.65.556.092 1.947-.742 2.41.37.649.185 1.39-.556 1.668.093.186.278.371.463.371-.37 1.761-.185 4.078-.834 6.488-.278 6.21-.834 11.957-.741 18.537.649 4.542.649 10.474 3.151 13.532v.65c-.37.184-.927 0-1.483.092-.185-.649-1.298-.834-1.205-1.483-2.595-2.225-3.43-6.21-3.893-10.381.371.093.371.37.464.742.463.185 0-.464.463-.371.186.649-.278.556-.556.741.649 1.483.742 4.45 1.668 6.118-.278-1.576-.741-3.244-.834-4.913-.185 0 0 .37-.092.556-.093-.185-.464-.927 0-.927.092-.37-.371-.278-.464-.556.093-.278.37-.185.464-.092-.186-.464 0-1.298-.556-1.298.741-.278-.186-1.02.278-1.112-.093-.37-.557-.37-.464-.927.186-.093.37.278.278-.093.093-.463-.092-.092-.278-.092.093-.557-.185-.65-.093-1.113.371 0 0 .371.186.742.278-.37.185-1.112 0-1.668-.186 0-.093.278-.093.463-.185-.278-.278-.649-.278-1.112.278 0 .278.185.278.463.37-.278 0-1.02.186-1.483 0-.37-.371.464-.464 0 .927-1.854.278-3.985.556-6.21.186 0 .37 0 .464.093.092-.37-.186-.37-.556-.37.556-.279 0-1.298.278-1.67-.093-.277-.65 0-.557-.37.186.185.371 0 .65 0-.279-1.946.463-4.541.463-7.137.185-.185.463.093.648-.278-.185-.463-.185.186-.556 0 .186-1.946.464-4.356.65-5.746.555 0 .185.278.185.649.37 0 .185-.65.37-.742-.185-.185-.185.093-.556 0 .186-.834.186-1.668.37-2.502.186-.278.557.185.65-.093 0-.556-.556.185-.65-.185.186-1.113.372-2.318.557-3.43-.37-.37-.463.186-.927 0-.093 1.112-.278 2.132-.37 3.337-.835 3.707-.742 7.415-1.484 10.103.371 2.039-.556 4.82-.278 7.229-.278 2.688 0 6.21-.092 9.547.092 1.02.741 2.502 0 3.15-1.113-12.048.278-22.522 1.853-33.18-3.707.185-7.6 1.204-10.936 1.853-.093.186.37.278.092.371-.463 0-.278 0-.278-.37-.278-.093-.278.185-.556.185.093.092.093.278.278.185 0 .185-.37.093-.463.185-.464.093 0-.092-.093-.278-.556.278-.927.093-1.576.278-.092.371.371.093.186.464-.371.185-.186.834-.65.927-1.945 5.283-4.17 10.195-6.302 15.2a42.091 42.091 0 01-2.688 8.156c-.463 2.874-1.853 4.727-2.131 7.786-.093.556-.742.649-.65 1.39-1.019.464-1.668-.092-2.872-.278-.742-.649-1.669-2.132-.557-3.058.279-3.615 2.132-6.21 2.781-9.64.649-.463.37-1.297 1.205-1.76.093-.464-.093-.65-.185-.928.092 0 .185.093.278.093 2.224-5.283 4.727-11.4 7.23-16.961h.092c0-.186-.093-.093-.093 0-4.634.834-9.176 2.502-13.995 3.058-2.225 0-3.43-1.668-4.542-3.151.185-.37-.093-1.298.278-1.483 1.02 0 1.761.278 2.225.649 3.429.463 6.395-.927 8.897-1.112.186-.093.278-.186.371-.279.927 0 2.132 0 2.78-.556 0 .093-.092.186-.092.278 1.02-.092 2.41-1.297 3.337-.556.185-.278.741.093.741-.556.37.186.834.186.834-.278.093.093.093.37.278.37.278 0 .464-.184.835-.184.092-.186.185-.464.185-.742.093-.093.185.093.185.093.186-.186.649-1.205 1.02-2.04s.834-1.946.927-2.41c1.668-2.131 2.41-5.097 3.985-7.229 0-.556.37-.834.464-1.39 1.297-1.483 1.76-3.43 2.965-4.727.279-1.298 1.39-2.595 2.132-3.8.834-1.761 2.04-3.244 2.874-5.005.278-.093.37-.37.648-.463-.092-.093-.092-.279-.092-.557.926-.463 1.39-2.224 2.502-2.966-.093-.37.093-.463.093-.648 1.483-1.854 2.78-3.244 4.17-4.913.835-.092.928.65 1.669.65 0 .277.185.37.185.648.093 0 .186-.093.186-.278.741.556 1.483 1.02 2.039 1.854.185 4.541-1.02 8.341-1.576 12.234-.463.185-.185.927-.649 1.02 0 .185.278.092.186.463-.65 3.8-1.576 6.488-1.854 9.64-.463.092 0 .555-.556.555.278.464.278 1.205-.37 1.298 0 .278.37.278.37.556-.464 1.854-.927 3.43-.834 4.727 3.707-.463 5.839-.556 8.898-.649zm-11.308-27.25c-.093.186 0 .372.093.557-1.205.649-1.483 2.41-2.41 3.337.185.37-.556.648 0 .648.834-1.112 1.39-2.41 2.41-3.336.648-1.576 1.946-2.41 2.687-3.893.464-.278 1.298-1.205 1.02-1.483-1.205 1.205-2.317 2.966-3.8 4.17zm3.893-2.78v.186c.278.185.278-.371.092-.371 0 .093 0 .185-.092.185zm-1.576 1.947h-.093c-2.039 2.502-3.892 5.005-5.468 7.878.185 0 .185.093.185.278-.092-.093-.185-.093-.278-.093-.741 1.02-1.668 1.761-1.946 3.152h-.278c-1.669 3.15-3.337 5.746-5.005 8.805.092.463-.278.927-.649 1.112-.927 2.873-2.595 4.449-3.522 7.6-.278.093-.278.556-.742.649.186.37.464.649.093 1.02v-.464c-.649.37-.834 1.298-1.02 1.854.464.092.279-.464.557-.556 1.39-.186 1.297-2.132 2.224-2.78v.277c.093 0 .186.093.278.093 0-.278 0-.556-.278-.37.093-.279-.278-.186-.185-.557h.463c.278-1.39.927-2.317 1.669-3.337-.093.927-.927 1.576-.835 2.225.464-.464.742-1.669 1.298-1.761-1.112 2.039-2.132 4.541-3.151 6.21 4.17-.742 7.878-1.483 12.234-1.947 0-.649.186-1.76.649-2.224 0-.37-.185-.464-.185-.834.834-4.171 1.853-8.898 2.502-13.162.278-.092.278-.37.464-.463.278-3.986 1.76-7.322 1.946-11.03-.649 1.113-1.483 2.688-2.503 3.152.093 1.02-.834 1.39-1.297 2.039-.464.556-.278 1.205-.927 1.112v.556c-.185.185-.278.278-.556.37-1.298 2.596-3.337 4.728-4.078 7.416-.464.092-.65.834-1.02.741.093.278 0 .185 0 .649-1.668 1.946-2.317 5.005-3.893 6.766-.092-.649.556-.649.464-1.298.185-.092 0-.185 0 0-.649.186-.464 1.298-1.205 1.39.37-.648-.186-.834 0-1.297.185-.093-.093.463.278.278.556-.093.185-.741.278-.834.649.185 1.761-.649 1.483-1.483-.185.185-.278.649-.37.927-.372-.186-.464.37-.557.092.37-1.112 1.205-1.482.927-2.78h.741c.093-.37-.37-.185-.37-.464.185-.185.37-.278.185-.648.278-.186.278-.186.556-.093.093-.37-.093-.463-.093-.649.186-.185.65.093.835-.37-.278 0-.556.092-.464-.186.371 0 .556-.185.834-.278.557-1.205.093-2.595 1.483-3.244 0-.463.093-.834.464-.927.37.278.463-.278.649-.463-.186 0-.371 0-.371-.278.185-.093.37-.371.741-.278-.185-.742.278-1.113.556-1.947.186.278.279.278.65.186.092-.464-.557-.186-.464-.556.093-.742.741-.835 1.205-1.113-.186 0-.371-.092-.278-.37.556-.371.556-1.39 1.297-1.669-.092.093-.092.186-.092.37.741-.277.092-1.76 1.204-1.945-.092.463.371.092 0 0 .093-.65.65-1.761 1.576-1.947-.185-.556.186-1.205.834-1.297-.278-.557.278-.65.371-1.205h.093c0-.093.185-.093.37-.093.093-.742.835-.927 1.113-1.576-.65.464-1.576 1.02-1.576 1.669zm.556.37c0-.185-.093-.278-.185-.37 0 .185-.093.37.185.37zm-5.932 5.747h-.092c-.186.463-.556.556-.742.927 0-.371-.463.092 0 0-4.078 6.858-8.156 13.903-11.493 21.225-.37.092-.185.649-.649.649.278 1.02-1.297 2.224-1.02 2.873 1.113-1.298 1.576-2.873 2.225-4.45.186-.37.649-.74.927-1.204.649-1.205 1.112-2.595 1.761-3.893.742-1.39 1.483-2.502 2.132-4.078.556-1.298 1.576-2.41 2.317-3.707.37-.65.556-1.576 1.02-2.318s1.02-1.39 1.575-2.224c.742-1.298 1.576-2.41 2.04-3.8.277-.093.37-.37.463-.649-.371 0-.278.37-.464.649zm.927 1.205c-.278.37.37-.186 0 0zm-1.575 2.688c-.093.092-.186 0-.186.092.093 0 .186 0 .186-.092zm6.58.463c0-.093-.185-.093-.185 0 .092 0 .092.185.185 0zm-.463 1.298c-.093.463.37.092 0 0 .37-.278-.371-.186 0 0zm-10.01.927c.092.092 0 0 0 0zm2.502.37c.186.093.464-.463.186-.463-.093.185-.186.278-.186.463zm7.322-.37c0-.093-.185-.093-.278 0 .186 0 .186.185.278 0zm-7.878.37c-.278.371.37-.278 0 0zm7.6 1.113h-.092c0 .185-.278.092-.186.37.278.093.464 0 .556-.185-.092 0-.185-.093-.278-.185h.186c0-.464-.093-.742 0-1.113-.093.093-.278.093-.371.093.185.37-.093.649.185 1.02zm-10.566 0c.093 0 0-.093 0 0zm12.513 0c.092.37.092-.464 0 0zm-10.66.648h.279v-.37h-.278v.37zm.742-.092c-.092 0-.092.092-.092.185-.371 0 .092.463 0 0 .092 0 .092-.093.092-.185.186-.093 0-.186 0 0zm6.766 5.097h.093c.093-.185.185-.463.37-.556-.277-.37 0-1.205.372-1.575-.557-1.113.926-2.132 0-2.874-.093.464-.186.371-.464.65.093.184.37 0 .464.184-.557.371-.278 1.762-1.113 1.39.278.372-.092.557.278.835-.278.185.093.556-.463.741.093.093.463 0 .463.186-.092.463-.648 1.112-.185 1.483-.278 0-.37.185-.556 0 0 .185.556.556-.093.556.371.649-.278 1.76-.185 2.595-.186.185-.093 0-.37 0 .092.464-.186 1.298.277 1.576-.37 0-.37.185-.649.278.093.185-.092.741.093.741 0-.185.463 0 .463.093-.278 0-.092.37-.37.37-.186 0-.093-.37-.278-.37-.278 1.02-.186 1.854-.464 2.595.464-.185.186.37.464.464 0-.278.185.092.463 0 0-.371-.185-.557-.278-.835h.37c0-1.853.928-3.707.65-4.912.278-.741.834-2.502.648-3.615zm-7.785-4.727h.278v-.185h-.278v.185zm-.742 2.966c0-.185.186-.278 0-.37 0 .092-.185.278 0 .37zm-3.151.371c-.278.37.37-.185 0 0zm2.317.185c-.093 0-.093-.185-.185-.278-.093.278.185.556.185.278zm10.288-.185c.278.463.186-.37 0 0zm-12.79.463c.092.093-.093 0 0 0zm1.575 1.113c.186.092.464-.65.093-.556.093.37-.185.278-.093.556zm.65 0c-.094-.371.184-.278.184-.556-.278-.093-.463.463-.185.556zm11.121-.464c-.092.742 0-.37 0 0zm.186.927c.37.093.463-.741.278-.927 0 .464-.186.371-.278.927zm.927-.093c.092.464.092-.463 0 0zm-12.698.279c-.464.092 0 .556 0 0 .37-.093-.093-.557 0 0zm-2.78.463c.092-.093.463-.463.092-.649 0 .186-.37.556-.093.649zm13.253.278c-.278.37.37-.278 0 0zm1.112.741h-.092c-.093.093-.186.279 0 .371 0-.092.092-.185.092-.37.186-.093 0-.093 0 0zm-1.668 2.318c0-.278.37-1.205 0-1.205 0 .463-.185.834 0 1.205zm1.946-.742c-.185.37.371-.278 0 0zm-.834.186c.278.463.186-.371 0 0zm-.37.37c0-.092 0-.185.092-.092 0-.186 0-.278-.185-.278 0 .185 0 .37.093.37zm.556 0c-.093.649.092-.463 0 0zm-.278 0c-.371.649.463.371 0 0zm-.464.278c.093.093-.093 0 0 0zm0 .186c-.093.648.464 0 0 0zm-.927.556c.093 0 .186.092.278.092-.092-.185 0-.37-.278-.37v.278zm1.576.37c.093 0 .093.093.185.186 0-.185.093-.37-.185-.37v.185zm-1.576.186c.093 0 0-.093 0 0zm1.39.649c.093-.186.093-.278.093-.556-.463-.093-.463.556-.092.556zm-1.575.463h.185v-.278h-.185v.278zm.741-.185c.186.463.186-.371 0 0zm19.742 1.297s-.092-.092 0 0zm-18.907.186c0 .092-.093 0 0 0zm-1.113.092c0 .093-.092 0 0 0zm7.879-.092c-.093 0-.278 0-.278.092.092 0 .278 0 .278-.092zm-8.713.463c.093.093 0-.093 0 0zm9.825.834c.093 0 .185-.092.278-.092 0 .278-.185.37.185.463.278-.093.278-.278.278-.463.278 0 0 .556.371.37.093-.556.927-.278 1.205-.092 2.41-1.298 7.137.278 9.269-.371-.093 0-.186 0-.186-.093.186-.092 0-.185 0 0-.649-.463-1.575-.185-2.224-.278.092-.092.185-.092.185-.185-.741.278-1.483-.278-2.132.093-.092 0-.092-.093-.092-.186-2.04.186-3.615 0-6.118.186-.278.092-.185-.279-.37-.279-2.503.835-5.19.371-8.157.927.278.556-.278.65.186 1.02 1.39-.37 2.873-.556 4.263-.464-.092 0 0-.092 0-.092.371.37.464-.093.742-.186.649.371 2.131.186 2.317-.278zm1.297-.927c-.092-.092-.278.093-.278.093-.185.186.371-.093.278-.093zm.557 0c-.093 0-.186 0-.186.093.093 0 .186 0 .186-.093zm-12.976.557c.185.37.278-.464 0 0zm-12.235.278h.185v-.186h-.185v.186zm35.591 0v.092a.708.708 0 00.464.186c.092-.371-.278-.186-.464-.278 0-.278-.463.092 0 0zm-6.58.278c.185 0 .278-.093.37-.278-.185 0-.463 0-.37.278zm.463-.186c.093.093-.093 0 0 0zm-14.737.186c-.093 0-.185 0-.185.092.092 0 .185 0 .185-.092zm-2.41 1.112h-.37c-.093.278.556.278.37 0 .186.185.464.093.556-.185a.2.2 0 01-.185-.186c.278 0 .278-.185.37-.37-.092 0-.092-.093-.092-.186-.37-.093-.463.185-.834.093 0 .185-.185.649.093.649 0-.093 0-.279.092-.279v.464zm2.317-.834c.186.463.186-.371 0 0zm-10.658 2.039c.37.185.37-.186.741-.278 0 .092-.093.185-.093.37.371-.092.371-.278.835-.092.185-.186-.186-.37.185-.464.185.557.093-.185.556-.092.093.092 0 .185 0 .278.37.092.37-.186.556-.278 0 .463.742-.186.927.278.185-.371.556 0 .834-.186-.185 0-.093-.648.278-.463-.463.463.556.278.742.463.092-.556 1.02 0 1.205-.556.556.278 1.02-.278 1.02-.927-2.133.093-3.801.835-6.025.835-1.298.37-2.503.741-3.8.741-.927.742-2.41.278-3.06 1.205 1.484-.463 2.967-.463 4.45-.927 0 .093.185.186.185.278.278.093.278-.185.464-.185zm-4.45-1.483s0-.093.093-.093c0-.093 0-.278-.185-.185 0 .092 0 .278.093.278zm15.48-.093h.185v-.185h-.186v.185zm-16.128 1.02c.185 0 .278-.093.278-.278-.093.092-.37 0-.278.278zm14.366.463c0-.185-.185-.185-.278 0 .185 0 .185.093.278 0zm1.668.37c.093-.092.093-.37-.185-.37.093.093 0 .37.185.37zm-16.405.372c.093.092 0 0 0 0zm3.43.092c.185-.37-.65-.278-.65-.092.371-.093.464.092.65.092zm-5.19.464c-.186.092 0 .185 0 0 .37-.186 1.019-.093 1.204-.464-.37-.185-1.112.093-1.205.464zm1.482-.556c-.463.556.649.185 0 0zm5.84.092c.092.093 0 0 0 0zm8.434 1.761c.278-.37.741-1.39.37-1.853-.092.648-.278 1.205-.37 1.853zm2.41-1.483v-.37c-.186 0-.371 0-.371.092.185 0 .092.278.37.278zm-16.035.093c.093.463.093-.463 0 0zm-3.059.278c.278 0 .556-.093.556-.278-.278-.093-.37.093-.556.278zm-1.668.37h-.093v-.092c-.37-.093-.463.186-.649 0-.092.37.557.186.65.093 0 .093.092.093.092 0 .37.278.834-.093.463-.464-.092.278-.556.093-.463.464zm19.371-.185c.186.371.186-.463 0 0zm1.483.279c-.185 0-.093-.279-.37-.186-.093.186.277.464.37.186zm-22.615.278c.185-.093.649.092.556-.278-.278 0-.463.092-.556.278zm21.688.556c0-.186.093-.556-.185-.464-.093.278 0 .371.185.464zm-17.795.185c-.371.185.37 0 .278.185-.371.279-.65.279-.834-.092-.186.649-.371 1.39-.835 1.668 0 1.205-1.39 2.595-1.39 3.8-.37.093-.463.556-.556.927.37.093.278-.185.463-.278.093.463-.185.463-.092.927.649-.649 1.575-2.225 1.112-3.337 1.02-.649 2.039-2.502 2.317-3.893-.093.278-.278-.185-.463.093zm-3.244 4.912a10.736 10.736 0 001.668-3.429c.185-.37.927-1.205.556-1.298-1.02 1.298-1.576 3.06-2.224 4.727zm3.614-3.244c.093-.185.093-.37-.092-.463 0 .185-.093.463.092.463zm15.757.093c0-.185-.093-.278-.185-.278 0 .185 0 .37.185.278zm1.668 0c.093.093 0 0 0 0zm-1.946.464c-.093.648 0-.464 0 0zm1.854.092c.185.371.278-.37 0 0zm.648 0c-.092 0-.092-.092-.278-.092-.185.278.371.37.278.092zm-2.317.556c0-.092-.185-.092-.185 0 .093 0 .093.186.185 0zm.464.556c.185-.185.278-.37 0-.556-.278.278-.093 1.576 0 .556zm.463-.463c.278.463.093-.37 0 0zm.649 1.02c-.093-.278.278-.557 0-.742-.093.093-.278.742 0 .742zm-.927.278c.185 0 .463.37.556.092-.278-.092.093-.741-.278-.648 0 .278-.185.278-.278.556zm.834.092c0 .093-.092-.092 0 0zm-1.946.186c.185.463.185-.371 0 0zm0 .463c.093.093 0 0 0 0zm-19.928 2.873c.279-.834 1.298-2.039.927-2.78-.092 1.112-1.112 1.76-.927 2.78zm21.689-2.41c.093.093 0-.092 0 0zm-.649.835c.185.37.278-.371 0 0zm-1.298.278c.093.463.093-.464 0 0zm-20.298 3.985c.093-.092.186-.092.371-.092-.185-.464.185-1.205.927-1.113-.093-.185.093-.556-.185-.556.092.278 0 .37-.186.464 0-.186-.092-.186-.092-.278.278-.093.185-.557.463-.742 0 .185 0 .37.185.464 0-.557.371-.835.464-1.298-.278 0-.371.556-.556.185 0-.185.185-.278.463-.278-.185-.185-.093-.741-.37-.741-.557 1.205-1.206 2.595-1.484 3.985zm22.06-3.893c0 .835.278-.37 0 0zm-.371 2.596c.556-.371.463-1.483.37-2.132-.185.649-.185 1.39-.37 2.132zm-.834-2.04v.093c-.557.649.556-.185 0-.092zm-.371.371c.093 0 0-.092 0 0zm-.278.556c0-.092.278-.463 0-.463.092.185-.371.37 0 .463zm-19.928.186c-.278.37-.741 1.02-.463 1.483.093-.556.556-.742.463-1.483h.093c0-.093 0-.093.093-.093v-.278c-.186 0-.186.185-.186.37zm20.577-.093c.092.093-.093-.093 0 0zm.185.278c.185.464.185-.37 0 0zm-.463.37h.278v-.184h-.278v.185zm.741.186c0 .093-.093 0 0 0zm.741.371v.185c.279.186.371-.37.093-.278 0 .093 0 .093-.093.093zm-.092 0c-.093 0-.278 0-.278.093.092 0 .278 0 .278-.093zm-.278 1.205c.185-.37.37-.742 0-1.02.185.464-.278.835 0 1.02zm-1.761-.556c.185.463.185-.37 0 0zm-20.576.556c0-.093.463-.556 0-.556.092.185-.279.463 0 .556zm20.483-.185c.093.092 0-.093 0 0zm.649 0c.093.092 0-.093 0 0zm-21.596 2.224c.278.093.464.185.742.185.092-.092.092-.278.092-.556-.278 0-.278.186-.37.278-.093-.556.556-.463.648-.741-.092-.464-.37-.742.278-.927-.278 0-.185-.37-.463-.278-.278.649-.556 1.39-.927 2.039zm.185-1.668v.185h.186s0-.093.093-.093v-.185h-.186s0 .093-.093.093zm20.762 0c.093.463.093-.464 0 0zm1.483 5.19c.185-.185-.093-.278 0-.649.093-1.575.37-3.058.185-4.356-.092 1.668-.556 3.43-.185 5.005zm-1.576-4.542c.093.093-.092 0 0 0zm.556 0c.093.464.093-.463 0 0zm.742 0c-.185-.092-.556.186-.185.186 0-.093.185 0 .185-.186.185-.092 0-.092 0 0zm-22.43.742c.093-.185.278-.278.278-.649h-.278c.093.278-.37.556 0 .649zm21.41.278c.093.093 0-.093 0 0zm.464.556c.093.093 0-.093 0 0zm.278.834c.093-.092.093-.463-.278-.37 0 .185.093.37.278.37zm-1.298 0c.186.464.186-.37 0 0zm-21.225.186v.185c.278.185.371-.37.093-.37 0 .092 0 .185-.093.185zm-.463.278c-.093.092.093.185 0 0 .37 0-.093-.464 0 0zm21.874.556c-.093.093-.278 0-.278.093.092 0 .278 0 .278-.093zm.741 1.668c-.278.37.37-.278 0 0zm.649 0c-.093.649.093-.463 0 0zm-.649.556c.093.464.093-.37 0 0zm1.483 0c-.37-.278-.37.464 0 0zm-.741.65c-.093-.279.463-.65-.093-.65.093.186-.093.65.093.65zm-1.39 0c.092.092-.093 0 0 0zm.74-.094c-.092.093-.185 0-.185.093.093 0 .186 0 .186-.093zm-1.204.371c.093.093 0-.093 0 0zm1.854.093c0-.093-.186-.093-.186 0 .093 0 .186.185.186 0zm-.927.185c.092.37.278-.37 0 0zm.834 2.595c.093-.556.37-1.853-.093-2.41 0 .65-.185 1.947.093 2.41zm-1.668-1.297c.092-.278 0-.464-.186-.464 0 .186-.092.556.186.464zm.834 2.317c.092-.556.278-1.298 0-1.668-.093.556-.186 1.112 0 1.668zm.834-.464c0-.092 0-.092.093-.092 0-.186 0-.278-.186-.278 0 .185 0 .37.093.37zm-1.39.557h.185v-.186h-.185v.186zm1.205.741c.092.556-.278.927.092 1.02-.092-.371.371-.835-.092-1.02.092-.556-.371-.093 0 0zm-.557.464c-.092-.186.093-.65-.092-.65-.186.186-.093.557.092.65zm-.834-.464c.093.093 0 0 0 0zm.556.927c.093.093 0 0 0 0zm-.37.463c0 .093-.093-.092 0 0zm.556.464c-.093-.186.092-.649-.186-.556-.092.092 0 .463.186.556zm.556.649c.463 0 .278-1.113 0-1.205.093.463 0 .648 0 1.205zm-1.112-.278c0 .092-.093 0 0 0zm.556.741c-.093-.278.278-.556-.186-.463.093.185 0 .37.186.463zm.649 1.854c-.093.556.185.556.092 0-.185-.742.278-1.39 0-1.854a.2.2 0 00-.185-.185c0 .741-.093 1.483.093 2.039zm0 1.76c.092 0 .092.093.185.093 0-.092 0-.37-.185-.278v.186zm.092.557c0 .927.278-.37 0 0zm.186 1.946c.278-.092 0-.927-.186-.556.278-.093-.092.556.186.556zm0 .65c-.093.648.092-.464 0 0zm.741 3.8c-.185-.464 0-1.113-.37-1.298.185.37 0 1.112.37 1.297zm-5.746-63.027h.278v.278h-.278v-.278zm-1.669 7.971c.093-.185.278-.093.464-.185 0 .278-.278.278-.464.185zm8.805.927c.186-.37.186.463 0 0zm0 2.502c-.092 0-.278-.185-.092-.278.092.093.092.093.092.278zm-11.585 1.205c.463.093.185.371 0 .556-.186 0 0-.463 0-.556zm10.937 1.112c.092-.463.092.464 0 0zm-11.771.742c0-.093.092 0 .185-.093 0 .093-.093.093-.185.093zm-.927 1.668h.278v.278h-.278v-.278zm-.278.742c.463 0-.186.649 0 0zm-3.059.927c0-.186-.093-.556.278-.371-.093.185-.093.37-.278.37zm0 0c0 .278-.093.556-.463.463.092-.278.185-.37.463-.463zm2.317.278c.464-.093.093.37.186.556-.279 0-.093-.37-.186-.556zm-2.873.278h.278v.278h-.278v-.278zm15.664.278c.185-.464.185.463 0 0zm-.186.278c.093-.37.093.463 0 0zm12.328.741c-.093-.185-.186-.37-.557-.278.186-.278.278-.092.65-.092 0 .185-.093.185-.093.37zm-2.41-.278c0-.092.092-.092.185-.092 0 .092-.093.092-.185.092zm.278 0c0-.092.185-.092.278-.092 0 .092-.186.092-.278.092zm.556 0c.185 0 0-.092 0 0zm.556 0c.093-.092.278-.092.37-.092 0 .092-.185.092-.37.092zm-27.25 0c.371.186-.092.556-.092.65-.278-.094.092-.464.092-.65zm15.942 0h.186c.092.278-.093.278-.278.278 0-.092.092-.185.092-.278zm10.752 0c-.093.093.093.186 0 0zm-3.151.278c0-.185.185-.185.185 0-.093.093-.093 0-.185 0zm-21.318.65c.185 0 .278 0 .278.185-.185 0-.278 0-.278-.186zm11.864.277c0 .093-.093 0 0 0zm18.351 0c.093-.37.093.464 0 0zm1.205-.092c.093 0 .093.185 0 0zm1.947.092c0 .093-.093.186-.093 0h.093zm.834.186c.093 0-.093-.093 0 0zm-37.074.092c.092.093 0-.092 0 0zm26.6.278c.371-.185-.278.371 0 0zm.464 0c-.093 0-.186-.092 0-.092v.092zm-2.04.186c0-.186.186-.093.279-.186 0 .186-.186.093-.278.186zm1.02 0c.093-.093.186 0 .186-.186-.093.093-.186 0-.186.186zm-2.224 0h.185v.185h-.185v-.185zm-1.854.185c.37-.278-.278.37 0 0zm-1.576.185c.093.093-.092 0 0 0zm.464 0c0 .093-.093 0 0 0zm.556 0c0 .093-.093 0 0 0zm-1.668.186s-.093-.093 0 0zm-5.283.741c-.093 0-.093-.185 0-.185s.278 0 .278.093c-.093 0-.278 0-.278.092zm-12.698.186c.092-.093.092-.186.278-.186 0 .093-.186.186-.278.186zm11.03 0c.092.092 0 0 0 0zm-1.206.278c.093.092 0-.093 0 0zm-3.892.556c0-.186.185-.093 0 0zm7.97.278c.186-.37.186.463 0 0zm-.37 2.41c.092-.464.092.37 0 0zm-13.347.092c0 .093-.093-.092 0 0zm13.161.464c.093.093.186 0 0 0zm-15.663.37c0-.185.556-.092.37.186h-.278c.093-.093 0-.093-.092-.185zm-.093.371c.185 0 .278.186.185.464h-.278c-.092-.278.093-.278.093-.464zm-.093.742c-.092.185-.185.278-.37.278 0-.278.185-.186.37-.278zm-.463.556c0-.093.185-.093.185 0 0 .185-.093 0-.185 0zm-.927 1.854h.278v.185h-.278v-.185zm-.278.648h.185v.186h-.185v-.186zm16.961.742c.186-.37.186.463 0 0zm-17.24 0h.279c0 .278-.186.278-.37.278 0-.093.092-.185.092-.278zm17.148.834c.185.093 0 .185 0 .278-.186-.093 0-.185 0-.278zm-.278 1.946h.185v.464h-.185v-.464zm-21.04 1.02c.093.093-.093 0 0 0zm21.225.463c.093.093 0-.092 0 0zm-.37 0c.277 0 .277.278.185.464-.186-.093-.093-.278-.186-.464zm.463.65c-.278.37-.464-.372 0 0zm-.556 1.019c.463-.093.185.834-.093.741 0-.278 0-.649.093-.741zm-.093 1.39c-.093.742.093-.37 0 0zm3.707.742h.186v.185h-.186v-.185zm-3.893.834c0-.093.093-.093.186-.093 0 .093-.093.093-.186.093zm.093.463c.278-.37 0 .834 0 0zm-.093.649c0 .185.093.278.186.37 0-.185-.093-.277-.186-.37zm0 1.483c0 .093-.092-.093 0 0zm0 .278c.093-.37.093.463 0 0zm.186.278c-.093.649.093-.463 0 0zm-.37.093c.463.092.092.463.277.741-.463.093-.185-.463-.278-.741zm0 1.02c.277 0 .184.463.463.463 0 .092-.279.092-.464.092.093-.37.093-.185 0-.556zm0 .74c.37-.277 0 1.02 0 0zm0 .928c.184.185.37.648.184.834-.278 0-.092-.556-.185-.834zm0 1.204c.37.093.184.186.184.464-.37-.093-.185-.185-.185-.464zm0 1.113c.184-.093 0-.093 0 0zm0 0c-.094.092.092.185 0 0zm0 .463c.184-.463.184.464 0 0zm1.019 10.752c-.093.648.092-.464 0 0zm16.312-3.615c.65-.556 2.132-2.41 3.522-1.668-2.502 3.058-5.097 6.024-7.415 9.36-1.112 1.855-1.946 4.635-3.707 5.562-.278 1.668-1.483 3.059-1.39 5.376.185.556.741.834 1.02 1.297 1.482.65 4.077.093 5.653-.741 6.58-3.337 11.957-9.361 13.996-17.24.556-4.263-.186-8.99-4.913-10.288-4.727-.649-10.102-1.39-14.366-1.946-1.668-4.078 2.78-5.932 5.283-7.6.464-.464 1.112-1.298 1.761-1.113 3.43-2.78 7.23-4.449 10.566-7.136-3.985-.186-9.546 1.297-13.717.185-.649-1.854-.649-3.337.741-4.727.927.834 3.059.093 4.171.742 1.112-.279 2.132 0 2.78-.371 2.503.649 7.416-1.112 8.991 1.297.093.371-.092.464-.092.835.37.556.556 1.204 1.02 1.668.184 1.112-.372 1.02-.186 1.76-4.078 4.264-9.918 7.23-14.83 10.196 0 .371-.556.742-1.112.927.463.556 1.112.093 1.483.556.185 0 .741.186.834-.092.556.37.927.278 1.946.37.093.186.371.186.556.278 4.171.278 7.786 1.947 9.084 5.376 1.02 2.688 2.131 5.932 2.039 9.269-.371 6.395-4.078 11.307-7.415 15.015-.278 0-.37-.278-.742-.186 0 .278.371.186.464.371-2.873 2.966-5.84 5.654-9.732 6.303-1.112 1.112-3.986 1.39-5.654-.186-1.761-3.244-1.668-6.951-.834-10.38.185 0 .185.185.185.37.464-1.483 1.669-2.131 1.576-3.8.463-.185 0 .464.278.464.463-.093-.093-.556-.185-.742 1.297-3.707 4.541-6.395 7.322-8.342 0-.463-.371.093-.278-.37.185-.186.278 0 .37.092.093-.648.742-.185.927-.741zm3.522-21.225c-.092.649.556 0 0 0zm-5.19 4.542c.463.092 0-.371 0 0zm-2.132.648c.186.464.186-.463 0 0zm16.59 12.976c-.092.742.372.278 0 0-.092-.092-.092.093 0 0zm.372 2.688c-.093-.927 0-1.39-.278-1.946 0 .556 0 1.483.278 1.946zm-12.142-.278c.278 0 .37-.185.463-.37-.278 0-.37.185-.463.37zm12.142.927c.092-.093.092-.37-.186-.37.093.092 0 .37.186.37zm-.186.37c.371.371.186-.37 0 0zm-15.942 4.913c-.278.37.371-.278 0 0zm-.741.278c.185.37.278-.37 0 0zm-4.171 3.337c.278.185.649-.278.834-.556-.278.092-.37-.093-.649-.093-.092.278-.278.37-.185.649zm.093 1.297c.092 0-.093-.092 0 0zm.556 1.113c.092-.093.278-.556-.093-.464 0 .186-.093.37.093.464zm2.41 10.102h.37c0-.185-.092-.278-.37-.278v.278zm3.892.742c.186-.093 0-.093 0 0-.185 0-.463-.186-.556.093.278.092.464.185.556-.093zm.927-22.43c-.37 0 .093-.463 0 0zm-.37 0c.185-.463.185.463 0 0zm-3.06 2.78c.094.093-.092-.092 0 0zm59.598-28.083c0 .278-.278.278-.278.463.092 0 .185.093.278.093.463-.556.927-.742 1.946-1.02-.649 1.854-1.854 3.615-3.059 4.82-3.15 2.224-6.395 5.747-10.658 6.859-4.45.834-6.396-2.503-7.23-6.674-4.727 3.337-7.785 8.157-13.81 10.196-4.542.185-5.376-5.654-4.542-9.64 1.205-3.522 2.503-7.692 3.615-11.122.464-.278.742-.741 1.205-1.112.742.556 1.483 1.02 1.946 1.668-.741 6.674-3.892 10.474-4.541 16.313 0 .278.463.093.556.278 6.025-2.595 10.752-7.97 15.571-11.771.37-.093-.093-.278 0-.463 1.298.556 1.947 1.668 3.337 2.595-.37 1.668-.37 3.43-.278 5.654 4.541 1.483 7.97-3.337 11.493-5.005.556-.742 1.483-1.113 1.946-2.04.278-.092.278.186.556.186.556-1.205 2.225-2.132 3.337-3.151-.649-.093-.649.463-1.205.463.463-1.02 1.39-1.483 2.04-2.224.37.278-.186.834-.279 1.112.093.278.278-.186.556 0-.278.741-.092 1.297-.834 1.39-.093.37.37.093.278.463-.278.093-.37.186-.463.464-.278 0-.278-.278-.093-.464-.463.186-.834.464-1.02.927.371.278.557-.278.927-.278 0 .556-.649.371-.741.834-.278.093-.186-.278-.278-.37-.186.092-.371.278-.464.463 0 .093.093.093.186.093zm1.575-2.966h.278v-.278h-.278v.278zm-2.224 3.337c.278.092.556-.279.278-.371-.093.185-.37.092-.278.37zm-.464.278h.371v-.278h-.37v.278zm.742.463c.093-.185.093-.463-.278-.463 0 .278 0 .463.278.463zm-1.483.37c.556 0 .278-.555 0-.555v.556zm.093.279c.556 0 .556-.556 1.02-.093.185-.185 0-.649-.186-.741-.278.37-.649.463-.834.834zm-.742.741c.093-.37.556-.37.649-.741-.37.092-.927.463-.649.741zm-18.352.186c0-.186.093-.278.093-.464-.463.093-.556.464-.741.834-1.02-.092-1.854 1.02-2.688 1.39.092.371.092.557-.093.835.278.278.278-.37.649-.278 0 .278-.649.463-.37.649.37-.278.74-.557 1.204-.742-.278-.649.37-1.112.556-1.576.278.279.556-.092.742-.278.37 0 .185-.463.648-.37 0 .37 0 .741-.37.648 0-.092.092-.092.092-.185-.463.093-.463.742-.926.834.185.093.37.186.648.278.186-.278-.185-.648.186-.834.649.37.927-.927 1.575-.556 0-.185.093-.185.093-.278-.463 0 .278-.37-.185-.556-.093.37-.371.556-.834.278.092.278-.093.37-.279.37zm1.761-.186c0-.278-.185-.37-.37-.463 0 .278.092.463.37.463zm16.128-.185c.092.093-.093 0 0 0zm-18.815.278c.092.093 0-.093 0 0zm18.907 0c.186.463.186-.463 0 0zm-19.37.278c.092.093 0 0 0 0zm17.424.463c-.093.279.185.279.185.464.464-.185.927-.278 1.02-.927-.742-.093-.742.742-1.205.463zm.185.835c.371.278.186-.464 0 0zm-17.888.092c-.278.371.37-.278 0 0zm-.093.464c.278.278.186-.464 0 0zm-2.41 1.853c-.092-.556.371-1.02.557-.556.741-1.112-1.669.093-.556.556zm-2.038 1.298c.278-.278.463-.649 1.112-.649-.186-.463.37-.37.278-.741-.556.278-1.483.834-1.39 1.39zm-.927.37v.186h.185s.093-.093.185-.093v-.185h-.278s0 .093-.092.093zm25.674-8.34c.092.092 0-.094 0 0zm2.317.092c.185-.093 0-.093 0 0zm-23.172 4.541c.371-.278-.278.371 0 0zm44.86-10.844a5.91 5.91 0 00-1.297-.741c-2.966 1.205-5.006 3.8-7.6 4.82-.186.834-.557 1.482-1.298 1.668-2.78 3.892-5.561 7.693-7.786 12.049-.278 2.132-1.297 3.43-3.059 4.078-4.634-2.132-1.946-9.454-1.482-13.625.926-2.132 1.02-5.376 2.039-7.044 4.078.927 2.41 5.283 1.946 8.25 2.132-3.245 4.82-5.933 7.508-8.713 2.502-2.132 8.805-5.098 11.03-.742zm-6.859-.649c.65.093.65-.463 1.113-.278-.278-.648.741-.092.834-.741-.649.185-1.205.278-1.483.185-5.098 2.966-9.176 7.786-11.957 12.976 3.244-4.634 6.766-8.99 11.493-12.142zm2.225-.926c.093.092-.093 0 0 0zm.463.834c0 .185-.092.278-.185.37.37-.092.834-.092.927-.556-.278.093-.464.186-.742.186zm-.927.834c.371 0 .464-.278.65-.464-.372-.185-.928 0-.65.464zm-2.595 1.39c.834-.093 1.39-1.112 2.132-1.112-.093-.278.37-.649-.093-.556-.556.649-1.483 1.02-2.039 1.668zm1.298-.37c-.278.37.37-.279 0 0zm-2.04 1.112c.279-.186.65-.278.742-.65-.278.186-1.02.279-.741.65zm-1.204 1.575c.185-.37.741-.463.741-1.02h-.278c.093.557-.834.65-.463 1.02zm-.927.742s0-.093.093-.093c0-.093 0-.278-.186-.185 0 .092 0 .278.093.278zm3.707-5.19c-.092 0-.185-.093 0-.093v.092zm-3.244 1.946c.093.092-.092 0 0 0zm-12.976 2.502c0-.37.464.093 0 0zm36.24-4.449c-.278 1.576 0 2.596-1.483 3.43-1.112 2.78-3.8 4.078-5.839 5.932-1.76.37-3.892 1.575-5.56.37-1.02 1.39-1.113 3.059-1.576 5.098 3.8 2.688 9.36-.834 13.254-2.039 2.131-1.205 4.448-2.41 6.858-3.43.278-.37.834-.463 1.113-.74.278.833-1.669 1.297-2.318 1.946 0 .185.186.092.371.092-2.595 2.317-5.468 3.708-8.898 4.913.65 0 2.04 0 2.874-.464-.093.464-.464.556-.835.742 0 .185.556-.093.371.278-1.112.37-2.132 1.483-2.688 1.112-.463.185-.092.37-.278.649-2.502 1.112-4.17 1.853-7.415 1.853-4.449-.926-5.005-5.283-4.449-9.268 1.669-5.098 5.284-10.752 10.381-13.254.927-.464 2.04-.278 2.966-.278.742.092.927.649 1.576.741.185 1.112.927 1.669 1.575 2.317zm-7.229 1.669c.37.092.649-.65.927-.278-1.576 1.205-2.966 2.502-4.171 4.078 3.059-1.576 5.84-3.43 7.6-6.21-1.575.649-3.43 1.112-4.356 2.41zm-.556.37c.093.093 0-.092 0 0zm-.742 14.367c.278.092.65-.186.557.556.463-.278.741-.464 1.204 0 .186-.186-.185-.556.186-.556.649 0 1.76-.464 2.317-.834-1.39.741-3.151.278-4.264.834zm15.664-7.971c.186 0 0-.093 0 0zm0 0c0 .185-.185.092 0 0zm-8.62 7.23c.186-.372.186.463 0 0zm55.52 10.473h.184c0-.186-.185 0-.185 0-.185.092-.278.185-.37.37s.555-.092.463.186c-.37.556-1.669.834-1.483 1.76-.37-.092-.464.094-.649.094 0 .463-.185.556-.278.926-.463.093.093-.37-.185-.37-.464.278-.464 1.02-1.298.926-.185.186.185.371-.185.464v-.093c-.093 0-.093.093 0 .093-.278.556-.556.556-1.205.649 0 .741-.927.741-1.298.927-.278 0-.278-.186-.278-.464-.093.278-.37.278-.556.37.093.464.463-.092.649.186-.093.278-.556.556-.742.371 0 .185-.092.37.186.37-1.298.557-1.947 1.113-3.43 1.576-.278.186-.649.742-1.112.464-2.039 1.39-5.19 1.854-7.786 1.946-3.522-.649-4.541-4.541-3.707-8.434 1.483-5.098 6.303-7.137 10.38-9.732 1.947-.742 4.079-1.761 6.118-1.947-.093.464 0 .557.556.464-.37.37-.834.649-1.02 1.297-1.76.279-3.15 1.113-4.263 2.132.185.464.464-.278.927.093.37 0 .556-.556.185-.649.371-.185.556-.834 1.02-.649-.093.464-.556.464-.556.927.092.186.185-.092.463 0-.37.278-.649.649-1.205.834.186.371.464-.185.742-.092-.093.648-.742.556-1.298.741-.649 1.205-2.502 1.39-3.151 2.595-.649 0-.834.464-1.298.556.093.371-.37.279-.37.65-2.318 1.39-4.079 3.336-5.469 5.746.185.092.093.37.093.556 1.76 1.854 6.21.37 8.156-.093-.185.37.37-.185 0 0 0-.185.185-.185.185-.37.371.092 0 .278.186.463.741-.556 2.132-1.298 3.058-1.483.742-.556 1.761-1.205 2.596-1.483 2.41-1.761 4.634-3.893 6.766-5.932.648-1.112 1.02-2.132 1.946-2.78.927-1.854 1.483-3.244 1.483-5.747-.37-3.244-2.502-4.727-3.8-6.859-.093-.185-.278.093-.37-.092-1.854-2.132-4.172-3.615-6.489-5.19-.185-.093-.278-.464-.556-.557-.093-.185-.556-.093-.834-.37-.093 0-.093-.186-.185-.279-.557-.463-1.205-.649-1.947-.927-1.854-1.297-3.985-2.687-6.024-3.8-1.483-1.39-3.522-2.224-4.357-4.17-.834-.557-1.39-1.576-1.668-2.41-1.576-5.098 1.761-9.269 4.542-11.679 0-.185.092-.37.185-.556.649-.093.649-.741 1.39-.741.278-.65 1.205-1.298 2.132-1.669.37 0-.093-.185 0-.37 1.298-.557 2.225-1.669 3.707-2.04.186-.556 1.205-1.019 1.576-.926 2.966-2.317 6.859-3.8 10.38-5.654.186 0 .094-.186.186-.186 3.708-1.483 7.322-3.058 11.308-4.263.093 0 0-.185 0-.37 1.576.092 2.966-.835 4.356-.928 2.503-1.112 7.878-2.317 10.937-.927.185.279.463.371.463.742.927.185.927 1.298 1.576 1.946.834 1.02 1.483 2.688.927 3.893-.185.186-.37.556-.556.649-1.02.185-1.668.834-2.41 1.39 0-.185-.37-.092-.649-.092.464-1.39 1.02-2.318 1.112-4.264-5.931-1.298-10.566.927-15.57 1.854-.65.556-1.762.649-2.318 1.112-.278 0-.278-.185-.463-.185v.37c-1.483.278-3.152 1.02-4.356 1.483 0 .186-.557 0-.742.093-1.02 1.39-3.244.927-4.17 2.224-.094 0-.094-.092-.094-.278-.185 0-.092.464-.37.556-.927-.185-1.02.557-1.483.65-.371.277-.742.092-1.02.277-.741.278-1.205 1.02-2.039 1.02-.093.649-1.483.927-2.224 1.483-.464.463-1.298.834-2.132 1.02-.278.092.093.185 0 .463-3.059 1.02-4.634 2.966-7.23 4.449 0 .092 0 .278.093.185 0 .278-.185.278-.37.093-1.205.927-2.04 2.039-3.152 2.966-.093.278.093.278.093.463-1.298 1.02-2.503 2.503-2.04 4.727.279.649.742.927.928 1.576 2.039 1.02 3.244 2.78 5.468 3.522.37.463.649.834 1.205.927v.278c.649 0 .463.185 1.02.278.092.185.185.37.185.556 1.575.093 2.78 1.76 4.541 2.317 1.576 1.761 4.264 2.78 5.84 4.912 3.244 2.503 5.56 5.932 6.766 10.381-.371-.185-.093-1.112-.464-1.39.464 2.224.464 5.098.464 7.6-.464 1.761-1.39 2.503-1.669 3.893a.708.708 0 00-.463.185c-.185.927-1.298 1.205-1.298 2.132-.37.093-.649.649-.834.093zm7.877-61.729c0-.093-.278-.093-.278 0 .093 0 .186.185.278 0zm-1.39.37c-.093.094-.278 0-.278.094.093 0 .278 0 .278-.093zm-1.576.557c-.185.093 0 .185 0 0 .186-.093.371.37.371 0 0 0-.37-.093-.37 0zm-1.39.741c.37-.185.649 0 .742-.37-.278 0-.742-.093-.742.37zm-.834.186s-.093-.093-.185-.093c-.186.278.278.37.185.093zm-.927.463h.278v-.185h-.278v.185zm-.649.278c.371 0 .65 0 .556-.278-.278 0-.463.093-.556.278zm-1.39.464c-.093.463-.834.37-1.02.741.093 0 .093.186.279.186.185-.557 1.853-.557 1.297-1.113.093.278-.37.371-.556.186zm-1.205.834c0 .093-.093 0 0 0zm-.185 0c-.093.093-.186 0-.186.093.093 0 .186 0 .186-.093zm5.932.093c.092 0 0 0 0 0zm-6.581 0c.185.556.649 0 0 0zm2.502.278c0 .092-.092 0 0 0zm-3.892.278c-.093.463.463.278.834.278-.278-.278.093-.464-.278-.556 0 .278-.278.278-.556.278zm1.02-.093zm.463.742c.185.185.185-.464.092-.464 0 .185-.092.185-.092.464zm-.742.37c0-.185.278 0 .278-.278-.092-.092-.649.186-.278.278zm3.615.186c.37.092.278-.186.463-.371-.278.093-.463.185-.463.37zm-6.58.185c.37.093 1.111-.093 1.297-.463-.556.092-.927.092-1.298.463zm5.004 0c.093 0-.092 0 0 0zm-5.468.185h.278c0-.185-.093-.185-.278-.185v.185zm5.19-.092c.093 0 0-.093 0 0zm-3.151.092c-.37 0-.742.093-.834.464.37-.093.649-.186.834-.464.37.093 0-.278 0 0zm-3.337.742c.186.185.742.185.834-.186-.185-.37-.648 0-.834.186zm4.078-.278c-.092 0-.463-.186-.463.092.093.186.37.093.463-.092zm1.39.185c.186 0 .186.093.371.093.186-.093.371-.186.464-.278-.464.092-.649-.093-.834.185zm-3.336.093c.093 0 .185-.093.278-.186-.185 0-.278 0-.278.186zm2.317-.093c.093.093 0 0 0 0zm-4.727.093v.278c.186.093.278-.37.093-.37 0 .092 0 .185-.093.092zm-.834.463c0 .186.37.093.463.278-.278.186-.834-.185-.926.278.741.278 1.204-.37.648-.741 0 .185-.185.185-.185.185zm.834 0c0-.092-.093-.185-.278-.185-.093.185-.093.37.278.185zm.649.371c-.278 0-.463.093-.556.185.185.278.37-.092.556-.185.37 0 .463-.278.649-.37-.278-.186-.371.277-.649.37zm2.132-.185c.092 0 0-.093 0 0zm1.205.092c.092 0 .37 0 .278-.278h-.186c0 .186-.092.186-.092.278zm-7.137 1.113c0 .092.093.37.278.463.093-.278.185-.185.093-.463.463 0 .834-.278 1.112-.371-.093-.37.185-.278.278-.556-.649.185-.927.741-1.761.927zm5.283-.557h.185v-.278h-.185v.278zm-2.503.186c0-.093.186-.186 0-.278v.278zm2.04-.186c.092.093-.093-.092 0 0zm.926.093c-.092.278.093.37.371.37-.093-.37-.185-.555-.37-.37zm-3.429.37c.093 0 .093.094.185.094 0-.186 0-.371-.185-.371v.278zm1.761 0c.093 0 0-.092 0 0zm.278-.184c0 .092-.093.092-.093.185.093-.093.093 0 .093-.185zm-2.502.278c-.371.092-.65.278-.835.648.278-.092.65-.37.835-.648.463 0 0-.371 0 0zm3.058 0c.186 0 .37 0 .464-.093-.278-.093-.464 0-.464.093zm-1.946.278c.185 0 .278.092.463.092.093-.278-.37-.37-.463-.092zm2.224-.186c.093.371.278-.185 0 0zm-6.488.927c.464-.185.834-.093 1.112-.185 0-.278-.278-.65-.463-.371.37.463-.927-.093-.649.556zm4.82-.37c.463 0 .741 0 .834-.279-.278.093-.741 0-.834.278zm1.483-.279c-.093 0-.185 0-.185.093.092 0 .185 0 .185-.093zm-3.708.556zm1.298.464c.185 0 .649-.186.278-.37 0 .092-.093.092-.093.092v-.186c0 .185-.092.371-.185.464zm-4.17-.37c-.279.092-.557.092-.557.463.185-.093.185 0 .185.092h.464c.093-.278-.278-.278-.093-.556.186-.093 0-.093 0 0zm1.297.463c.092-.093.37-.093.278-.371-.186.092-.37.092-.278.37zm2.039-.093c.37-.278-.278.185 0 0zm-.464.185c.279.186.279-.278.093-.185 0 .093-.093.185-.093.185zm.927 0h-.278.278zm-2.966 0c-.556.186-.834.371-1.205.742.371.092.835-.371 1.205-.742.093 0-.092 0 0 0zm-1.946.371c-.093-.093-.185-.185-.278-.185 0 .463-.37-.186-.464.278.464.37 1.205 0 1.39-.464h-.463c0 .278-.092.371-.185.371zm3.707-.185c.186.37.186-.278 0 0zm-.463.185c.093.093 0 0 0 0zm-.278.37c.093 0-.093-.092 0 0zm-3.986.279c.186-.093.186-.093.464 0-.093-.093 0-.278-.186-.278.093.278-.463-.093-.278.278zm3.615-.278c-.093 0-.093 0-.093.092 0 0 .093 0 .093-.092zm-3.337.927c.557-.186 1.205-.278 1.483-.835-.648.186-1.02.557-1.483.835zm-.834-.278c.278.37.093-.279 0 0zm3.337 0h-.185c.092 0 .185.185.185 0zm-3.8.278h.185v-.186h-.185v.186zm4.449-.093s-.093 0 0 0zm-1.39.185c.092.093-.093-.092 0 0zm-2.781.649c.463-.093.834-.37 1.02-.649h-.557c.093.464-.463.186-.463.649zm-1.205-.185c.185.463-.741.37-.463.556.463 0 1.297-.742 1.112.092.278 0 .37-.185.463-.37-.37 0-.278-.464-.556-.556 0 .556-.185.185-.556.278zm3.43-.186c-.093.093-.279.093-.279.186.093-.093.186 0 .278-.186zm.556.278c.092.186.463.186.463-.092-.37 0-.37-.278-.463.092zm-.093-.092c-.093 0-.186 0-.186.092 0 0 .093 0 .186-.092zm-.927.37c.093.093-.093 0 0 0zm.556.278c.093 0-.093-.092 0 0zm-1.298.093h.279v-.093h-.279v.093zm-3.243.186h.185c0-.093.093-.093.093-.186-.093 0-.093-.093-.278-.093v.279zm1.575-.279s-.185 0-.278.093c.185 0 .278 0 .278-.093zm-1.112.186c0 .093-.093 0 0 0zm3.244.093h.278v-.186h-.278v.186zm-1.298.092c.186 0 .556.093.371-.185-.185 0-.37.093-.37.185zm.834-.092c-.278-.279-.185.37 0 0zm-4.82 1.297c.094.37.094-.278 0 0zm.835.093c-.278.37.278-.186 0 0zm-.093.185c-.092 0-.185 0-.185.093 0 0 .185 0 .185-.093zm.835.464c-.093 0-.093-.186-.279-.186-.185.278.279.371.279.186zm-.279 1.112c.093-.278-.185-.186-.278-.37 0 .277.093.37.278.37zm-.556.37c-.092 0-.185 0-.185.093 0 0 .185 0 .185-.092zm-.556.371c.186.278.278-.37 0 0zm-2.224 1.761c.278.186.37-.278.185-.37 0 .092-.093.185-.185.37zm.834-.092c.093.092 0-.093 0 0zm-.927.463c.278.278.185-.37 0 0zm.278.927c-.185 0-.185-.185-.37-.185-.186.278.37.37.37.185zm5.654 11.771h.278v-.185h-.278v.185zm5.746 1.761h.186v-.093h-.186v.093zm.65.185c.092-.185-.186-.185-.279-.185-.092.185.093.278.278.185zm-2.133.278h.093v-.278h-.093v.278zm.371.186s-.092 0 0 0zm.834.37c0-.277-.185-.37-.463-.37-.093.37.37.185.463.37zm2.225.186c.093.093-.093 0 0 0zm.649.37h.185v-.092h-.185v.093zm-1.854.371c.093.093 0-.092 0 0zm.834.371c.093-.185.185-.278.093-.37h-.186c0 .092 0 .277.093.37zm-.834-.185c-.093.092-.185.092-.185.185.092-.093.185 0 .185-.185zm1.205.741c-.093-.278.37-.092.278-.463-.093 0-.185-.093-.278-.093.093.278-.37.464 0 .556zm2.41-.278c-.093-.092-.278.093-.278.093-.186.463.463.093.278-.093zm.185.464h.093v-.186h-.093v.186zm-1.668 0c.092.463.556.092 0 0zm-.464.463c.093.37.093-.37 0 0zm1.298.093c.093.092 0 0 0 0zm.556.556h.185v-.185h-.185v.185zm.927.649c-.093-.278-.464-.371-.649-.65.093.464.278.557.649.65zm.278.185h.185c0-.093.093-.093.093-.185h-.37c-.093.092 0 .092.092.185zm1.668 1.298c.649 1.02 1.576 1.575 2.41 2.317-.37-.742-1.39-1.761-2.41-2.317-.37-.186-.927-1.39-1.39-.927.649.185.741.927 1.39.927zm3.244 3.058c-.092-.278-.37-.463-.556-.556.093.278.185.464.556.556zm1.112 1.854c.186.37.186-.37 0 0zm-9.453 7.97c.278 0 .556 0 .556-.184-.278 0-.464.092-.556.185zm-.742.557c-.278.093-.741 0-.741.463.278-.185.648-.185.741-.463h.185c-.092-.093 0-.093 0-.093v-.278c-.185 0-.185.186-.185.371zm-1.112.556h.278v-.278h-.278v.278zm-1.02.556c.464-.092.742-.185.834-.37-.092 0-.092-.186-.37-.093.185.37-.556.185-.464.463zm-.463 0c.185.464.185-.278 0 0zm-.278.278c.37.093 0-.37 0 0-.186-.278-.278 0-.649 0-.093 0 0 .371-.185.371-.371-.185-.371.37-.835 0 .093.37-.185.278-.185.464.185 0 .185.092.556.092.093-.278 1.02-.37 1.298-.927zm-2.873.927c-.093.186-.186.834-.464.37-.093.279-.649.65-.37.928 0-.278.463-.278.463-.093.278-.834.741-.741 1.39-1.02-.185 0-.093-.185-.278-.185-.093.278-.463 0-.741 0zm1.668.834c-.927.278-1.761.742-2.225 1.483-.463.371-1.483.556-1.297 1.02.649-.464 1.668-.742 2.224-1.576 0 .186.093.186.278.093.464-.649 1.947-.37 2.04-1.761h-.279c-.185.649-.463.37-.741.741zm-6.117 2.78c.927-.463 2.039-1.575 3.151-2.038 0-.093.093-.37 0-.37-1.02.74-2.41 1.39-3.151 2.409zm2.131-.092c.186 0 .371 0 .371-.278h-.278c0 .093-.093.186-.093.278zm16.128.278c-.093-.185-.093-.37-.278-.463-.093.185-.093.463.278.463zm-16.776-.092c-.186-.371-.371.37 0 0-.186.648-.927.556-1.02 1.02.464-.279 1.205-.464 1.39-1.113-.185-.278-.185 0-.37.093zm-1.854.37c0-.185.185-.092.278-.278-.185 0-.185-.185-.37-.185 0 .185-.093.37.092.463zm20.669-.278c0 .093-.093 0 0 0zm-2.78.278c.092.186.37.093.463-.185-.278 0-.464-.185-.464.185zm-18.445.186c-.093 0-.093-.093-.186-.093-.278.556-1.204.556-1.39 1.112.278-.185.556-.556 1.112-.556 0-.093 0-.278.186-.37.092.092.092.185.278.185v-.278h.278c.093-.278-.464-.278-.278 0zm19.186 0a.2.2 0 00.185-.186c-.185 0-.278 0-.185.186zm-.927.092c-.186.093-.37 0-.37.186.184 0 .37 0 .37-.186zm.556.371h-.093a.724.724 0 00-.37.37c.185.279.37 0 .37-.37.093.093.093 0 .093 0 .185-.093 0-.093 0 0zm-.556 0c-.093.093-.278 0-.278.093.092 0 .278 0 .278-.093zm-17.61.649c.092.093 0 0 0 0zm17.517.278c-.185.093-.556.093-.463.37.37.093.37-.185.463-.37h.093c.093-.093.185-.278 0-.37-.093.092-.186.185-.093.37zm-18.074.093c.279.092.371 0 .464-.186-.278 0-.278.186-.464.186zm16.777.278c0-.186-.093-.278-.186-.278 0 .092-.092.278.186.278zm-19.372-.186c.093.464.093-.278 0 0zm.464.278c.092.093-.093-.092 0 0zm19.649.093c-.185.278.37-.278 0 0zm-.927 1.02c-.278 0-.37.185-.463.37.185-.092.463-.092.463-.37.278.092.464-.371.278-.464 0 .278-.37.278-.278.464zm-1.297 0c-.093.092-.186 0-.186.092 0 0 .186 0 .186-.092zm-16.313.37c-.093 0-.185 0-.185.093.092 0 .185 0 .185-.093zm16.869.464c.092-.186.463-.37.092-.464 0 .093-.463.278-.092.464zm-1.298-.186c-.185 0-.278 0-.278.093.093 0 .185 0 .278-.093zm-.741.186c.185.37.278-.37 0 0zm.463.093c-.185.37.278-.279 0 0zm.37.926c.464-.185.742-.556 1.02-.926-.556.092-.741.463-1.02.926zm-.926-.463c-.185 0-.185-.185-.37-.093-.093.278.185.278.463.186-.093-.093.092-.464-.093-.464v.37zm3.059-.278v.278c.185.093.185-.37.092-.37 0 .092 0 .185-.092.092zm-3.893.649c-.186 0 .092.463 0 0 .185-.093.185.092.37.092 0-.278-.092-.37-.37-.37v.278zm1.39.37c.093 0 .278.093.278-.185h-.185c0 .093-.093.185-.093.185zm-1.761 0c.093.278.185-.37 0 0zm1.576.093c-.186.37.278-.185 0 0zm1.483-.093c-.093.093-.186.093-.186.093.093 0 .093 0 .186-.093zm-3.8.65c-1.39.185-2.688 1.39-3.986 2.038.37-.185.742.278.834-.092-.278 0-.278-.093-.278-.278.927.185 1.02-.65 1.39-.464.557-1.02 1.483-.37 2.04-1.205.092-.185.556 0 .463-.463-.37-.093-.556.092-.463.463zm1.853 0c.278-.279.464 0 .556-.186-.092-.186-.648-.37-.556.185zm1.02 0c.37.092.834-.093.463-.279-.092.278-.556.093-.463.278zm-.649.555c.278-.092.463-.185.556-.556-.278 0-.463.278-.556.556zm-1.298-.092c-.185-.093-.556.278-.278.37.093-.185.371 0 .278-.37.093 0 .186-.093.186-.278-.093 0-.186.092-.186.278zm.186.556c.278.185.741 0 .834-.186-.278.093-.649.093-.834.186zm-4.82 0zm3.151.463s-.092-.092 0 0zm-1.112.278v.464c.186-.186.464-.278.649-.556-.37-.093-.37.185-.649.092zm1.576.371c.278.185.278-.463 0-.37v.37zm-6.21-.093c.278.464.185-.37 0 0zm1.205 0c0 .093-.093-.092 0 0zm3.058.093c.279.463.186-.37 0 0zm-4.82.185c0-.092-.277-.092-.555-.092-.186.37.556.278.556.092zm2.781-.092c-.092.092-.278 0-.278.092.093 0 .186 0 .278-.092zm1.669.37h.185v-.37h-.278c0 .185 0 .278.093.37zm-2.503 0c-.278 0-.37.186-.37.371.37.093.185-.278.37-.37.186 0 .37 0 .464-.279-.371 0-.464.186-.464.278zm4.356 0c.278.278.186-.37 0 0zm-9.453.557c.092.37.092.926.463.648-.185 0-.185-.092-.185-.278.556 0 1.112.093 1.39-.37-.093 0-.278.092-.37-.093.277-.186.648 0 .833-.278-.834-.186-1.575.556-2.131.37zm2.41-.279h.185c.185-.185-.371-.278-.371-.092a.287.287 0 00.185.092zm4.726.186c.093-.186.371-.278 0-.37.093.184-.278.277 0 .37zm-3.244-.093c-.092.186-.185.278-.185.556.278-.185.649-.463.927-.649-.371 0-.556.093-.742.093-.092-.093-.185 0 0 0zm2.688.093c.093 0 .186.093.278.093-.092-.186 0-.279-.278-.279v.186zm-4.356.093h.185v-.186h-.185v.186zm5.654 0h.092v-.186h-.092v.186zm-8.157.092c-1.112.093-1.76.186-2.131.742.278 0 .278-.186.556-.186.092.186.092 0 0 0 .092-.185.834-.37.927 0-.186.093-.186-.092-.371-.092.093.556 1.02.278 1.298 0-.093-.093-.371 0-.371-.186.092 0 .092-.185.092-.278.186 0 0-.092 0 0zm8.25.186c.185.37 0-.371 0 0zm-6.674.741c.649-.185 1.854 0 2.132-.741-.834.185-1.668.278-2.132.741zm5.932-.649c.093.093 0-.092 0 0zm-.278.093c.093.093-.093 0 0 0zm-5.932.556c.093.093-.093 0 0 0zm-1.02.185c-.463-.185-.37.371 0 0zm.65-.092c-.186 0-.464 0-.464.092.185.093.463.093.463-.092zm21.41-20.854c.185 0 .185.092.185.278h-.185v-.278zm0 .37c.37 0 .185.556.278.65-.278 0-.278-.186-.278-.65zm.278 1.02c.37-.278-.186.37 0 0zm-.093.556c.37.185.556 1.39 0 1.483v-1.483zm0 2.039c.278.093 0 .463 0 .463-.185 0 0-.37 0-.463zm0 1.205s-.093-.093 0 0zm-12.976.093c-.185.092-.37.278-.649.37 0-.37.464-.463.65-.37zm5.005 11.122c.093 0-.093-.093 0 0zm-.093.185s0-.092.093-.185c-.093 0-.093.093-.093.185zm0 0c-.092 0 0 0 0 0zm38.836-20.298h-.093c0 .185.093.093.093 0 .185.093.37-.093.185-.185.463-.556 2.966-1.02 3.893-2.225.092.186.278.464.556.093 2.039-1.483 4.634-2.503 6.951-3.986.742-.092 1.483-.741 2.132-1.204-.37-.093-.927.556-1.576.648.557-.648 1.483-.926 2.318-1.39 0 1.483-1.854 2.132-2.596 3.244-4.727 1.946-8.434 4.912-13.161 6.766-.093.093-.093.185-.093.37-1.575.186-4.356.835-6.21 1.577.927-.093 1.947.092 2.874-.371.185.556-1.298.463-1.483 1.02.648-.186 1.297-.371 1.76-.65 0 .464-1.482.835-1.853 1.02.649.37 1.298-.649 1.761-.37-.093.185-.278.185-.093.463 1.02 0 1.483-.927 2.225-.834.649-.927 3.893-1.205 4.541-2.596 1.113-.185 1.761-1.02 2.874-1.39 0-.093-.093-.093-.278-.093 1.946-1.112 3.892-2.317 6.117-3.244-.927.742-2.04 1.298-3.059 2.04.093.092.093.278.278.185-.092.185-.649.37-.37 0-3.986 3.244-9.084 5.19-13.996 7.785-3.43 1.02-8.712 2.874-12.142.464-.649-.649-.927-1.761-1.575-2.41-1.298 6.395-1.205 13.903-2.41 19.835-.927.649-.834 2.224-2.132 2.502-.649-.37-1.298-.278-1.946-.834-.65-4.263 1.112-8.712.834-12.883.741-3.986 1.297-8.25 1.76-12.79-.555.277-1.019 0-1.853-.093.185-1.854 1.668-2.318 2.41-3.523.463-4.448 1.297-8.341 2.039-12.141.185-.186.556-.093.649-.278.092-.464.185-.835.278-1.298.463-1.02.37-2.132.741-3.707-.556.834-.834 2.78-.741 3.707-.37.185-.464.649-.464 1.112-.556-.278-.092-1.483.186-1.853.37-2.781.834-5.562 1.946-7.786-.093.649-.463 1.483-.463 2.317 1.112-3.522 1.76-6.951 2.966-10.473-.927 1.297-1.02 2.966-1.669 4.634 0-1.854.927-4.727 2.04-6.395-.093.556-.279.926-.371 1.575.556-.834.741-2.502 1.112-3.8-.556.278-.093 1.576-.834 1.761.37-.834.278-2.224 1.112-2.688 0 .093-.093.186-.185.278.741-.834 1.112-1.946 1.39-3.151-.37.278-.464.742-.556 1.205-.371-.834.278-1.668.741-2.132.093.37-.278.278-.185.742.834-1.205 1.02-2.966 1.854-4.171 0-.186-.186-.186-.278-.093-.186-.37.926-.556.278-.741.556-.278.648-1.02 1.02-1.483-.464-.093-.186.556-.65.556.186-.649.464-1.298 1.02-1.669-.093.279-.278.464-.278.742 1.483-2.873 3.893-6.951 6.024-9.732 1.39-1.854 3.708-3.43 6.303-2.132 0 .556.834.37 1.112.556 1.39 1.854 1.483 6.118.927 8.342 0 .834.463 2.595-.463 2.966.556 1.02-.371 2.224-.65 3.522 0 .185.279 0 .372.185-1.113 4.635-1.669 9.732-4.171 12.698-.186.65.185.834.092 1.205 0 .37-.185.649-.648.649-.093 2.502-1.02 4.264-2.225 5.84.278.463 0 .833 0 1.39-.37.834-1.76 1.76-1.39 2.595-1.39 2.317-2.595 4.263-4.078 6.395-.093.278 0 .741-.186.927-.278.092-.278-.186-.556-.093.093.278.093.464 0 .742-.463 0-.649.556-.927.37-1.02 2.966-3.8 4.542-5.375 7.415-1.298.37-1.761 1.576-2.596 2.503 1.298.278 2.225-1.576 3.522-1.947 1.113-.834 2.41-1.575 3.615-2.317 2.317-1.575 4.45-3.43 7.693-4.078.556.185.834.649.927 1.298-.278.556-.649 1.02-.742 1.76-5.375 2.689-9.732 6.396-14.551 9.547-.186 1.02.741.927.834 1.576 5.376 1.576 11.03-1.112 15.757-3.244.185 0 .185.093.092.278.649-.834 1.39-.37 1.854-1.112.093 0 .185.092.093.185zm-5.562-29.66c3.06-9.175 6.767-17.795 6.025-28.64-.093 0-.093-.092-.278-.092-4.82 4.634-7.508 11.586-10.566 17.61-1.947 6.118-3.893 12.698-5.747 19.186-.556 3.337-1.297 8.527-2.039 12.698 5.376-5.468 9.176-12.976 12.605-20.761zm6.674-21.132c.37.371.185-.37 0 0zm0 .278c.185.464.185-.37 0 0zm.556.742c0-.185-.093-.278-.185-.37 0 .185 0 .37.185.37zm-1.761 9.083c.185-1.297 1.02-3.058.834-4.449 0 .186-.093.371.185.371-.37-.742.093-.556.186-1.298-.278-.092-.37.556-.556.186.37-1.298.556-2.688 1.02-3.615-1.484 2.595-1.576 6.025-1.67 8.805zm1.112-6.117c.37-.093.37-.649.093-.742.093.371-.093.371-.093.742zm-11.03-.185c.186.37.186-.464 0 0zm-.185 2.039c.093.092 0 0 0 0zm-8.249 37.723c.093.463-.278.556-.185 1.02 8.712-8.528 14.366-21.782 17.517-34.573-4.078 12.791-8.805 24.47-17.332 33.553zm18.074-32.255c0-.278.37-.741.093-1.02.092.464-.464.742-.093 1.02zm-13.532 3.151c.37.186.37-.463.185-.463-.093.185-.185.185-.185.463zm-.093.742c.093-.093.278-.37 0-.464 0 .093-.278.464 0 .464zm-.278.463c.278.464.093-.37 0 0zm-.278.65c.278 0 .37-.094.37-.279-.277-.093-.277.185-.37.278zm.093.926c0-.185-.093-.278-.186-.37 0 .185 0 .37.186.37zm-.556.278c.185.463.185-.37 0 0zm10.566 5.561c.185.464.185-.37 0 0zm-11.864.464c0-.186-.093-.279-.185-.279 0 .093-.093.371.185.279zm-.649 1.76c-.093-.37.464-.834.093-1.204-.093.556-.464.927-.093 1.205zm11.4 0c.093.093 0 0 0 0zm-.278.927c.371.371.186-.37 0 0zm-.278 1.113c.464-.093.464-.835-.092-.742.092.37.37.37.092.742zm-13.346 1.02c.37.092.278-.279.37-.372-.278 0-.37.093-.37.371zm12.976.185c0 .092-.093 0 0 0zm-13.069 1.483c0-.464.463-1.113.093-1.483 0 .463-.464 1.297-.093 1.483zm12.698-1.39c.093.463.093-.371 0 0zm-11.122 1.668c.092 0 .278-.464-.093-.371 0 .093-.093.37.093.37zm10.01.834c.37.185.37-.556 0-.371v.37zm-10.752 1.668c.464-.185.649-1.39.278-1.483 0 .464-.185.927-.278 1.483zm10.196-.649c-.186.464.278-.556 0 0zm-.371.65c.37.184.37-.557 0-.372v.371zm-1.112 1.853a.836.836 0 00.556-.556c-.464-.093-.742.278-.556.556zm-.835 2.039c.371-.278-.37-.464 0-.834-.556 0-.278.741 0 .834zm.093-.556c.093.092 0-.093 0 0zm-.741 1.39s0-.093.092-.093c0-.092-.092-.278-.278-.185.093.093 0 .278.186.278zm-10.288 2.41c.278.556.278-.464 0 0zm7.785.649c.093-.371.185-.186.464-.093-.093-.37.185-.37.092-.556-.278 0-.741.463-.556.649zm-7.785 0c.185.463.185-.464 0 0zm35.59 2.688c.186 0 .279-.093.372-.278-.186 0-.279.092-.371.278zm-32.161 2.317c.278 0 .37-.186.556 0-.093-.464.37-.371.37-.834-.463.185-.74.37-.926.834zm30.308-.278c0-.093.278-.093.185-.278-.185-.093-.463.278-.185.278zm-.463.37c0-.092.185-.278 0-.37 0 .185-.186.278 0 .37zm-.927.371c.185 0 .278-.093.37-.278-.185 0-.278.093-.37.278zm-34.757 4.264h.463v-.278c-.278 0-.37.185-.463.278zm17.425 5.005c.185 0 .278-.093.37-.186-.185 0-.37 0-.37.186zm-.278 0c.092.463.092-.371 0 0zm.648.927c.464-.371 1.669 0 1.576-.927-.556.37-1.39.37-1.576.927zm-1.205.463c.557-.093.835 0 .927-.556-.37.093-.927.093-.927.556zm-.185.093c0-.186-.093-.278-.185-.371-.186.185-.186.463.185.37zm-1.205.092c-.278.371.37-.278 0 0zm-3.058-51.81c-.093.184 0 .37-.279.37v-.278c.093 0 .186 0 .093-.093h.186zm-6.118 17.331c.186.556-.185 1.39-.37 1.761-.186-.648.185-1.205.37-1.76zm29.752 22.06c-.278-.093.093-.371.093-.464.37.093-.093.278-.093.463zm-3.8 1.946c.093-.278.464.185 0 0zm3.152 0c-.186.37-.65.556-1.113.741.278-.37.65-.556 1.113-.741zm-4.542.834c.093.093-.093-.093 0 0zm4.449.185c.185-.092 0-.092 0 0zm-1.947.093c.278-.37.186.37 0 0zm-.556.185h.278v.186h-.278v-.186zm-.278.186c.371-.093.093.37.464.37-.093.186-.65 0-.464-.37zm-3.43.556c-.277 0-.184-.463.094-.37 0 .185-.186.185-.093.37zm2.781.093c0 .092-.092 0 0 0zm1.854.092h.186v.278h-.186v-.278zm-6.024.278c0-.37.463.093 0 0zm5.005.556c.092-.185.185-.278.463-.278 0 .278-.185.278-.463.278zm-2.132.093c.278-.463.185.37 0 0zm2.039 0c0-.093 0-.093.093-.093 0 .093 0 .093-.093.093zm-2.225.093c.093-.464.093.463 0 0zm2.132 0c0-.093 0-.093.093-.093 0 .093 0 .093-.093.093zm-3.8.834c0 .185-.278.093-.37.278-.279-.093.185-.37.37-.278zm.464.185c0 .371-.464-.092 0 0zm-.557.371c.093 0-.092-.093 0 0zm-1.02.093c.094.093 0-.093 0 0zm-.926.463c.093-.37.464.093 0 0zm-.185.093c.092.093 0-.093 0 0zm-.556.093h.185v.185h-.185v-.185zm.648.37c-.278-.092.093-.463 0 0zm-1.02 0c.094 0 0-.092 0 0zm-.277.093c.092-.463.092.463 0 0zm-.37.093c.184-.464.184.463 0 0zm-.464.37c.185-.463.185.371 0 0zm-.278.093c.092.093-.093-.093 0 0zm-.927.464c0 .092-.093.185-.278.185-.093-.278.092-.185.278-.185zm-2.688.092c.37.093-.093.186-.093.278-.37-.092.186-.185.093-.278zm.37.464a.708.708 0 01-.463.185c.093-.185.278-.463.464-.185zm.742.092c.278-.463.185.371 0 0zm-2.873.186c.278-.371.185.37 0 0zm1.205-.093h.278v.185h-.278v-.185zm.927.185c.092.371-.278.279-.464.279.093-.186.278-.186.464-.279zm.092.464c.093-.185.371-.278.65-.278-.094.185-.372.278-.65.278zm.834 0c0 .093-.092 0 0 0zm-.834 0c-.278.185-.556.37-.834.463 0-.37.464-.463.834-.463zm32.626 3.707c5.746-4.82 11.4-9.639 17.24-14.273 1.111.185 2.224.556 2.409 1.853-6.21 6.581-13.718 11.864-20.206 18.167 0 3.058-.37 5.56-.37 8.434-1.576 13.347-3.43 26.138-7.786 37.352-.927 4.264-2.78 8.157-4.727 11.308-3.43 5.932-7.6 12.327-16.59 12.05-.65-.279-1.576-.65-2.225-.742-.093-.186-.278-.278-.185-.65-3.8-1.39-5.283-5.838-6.581-9.916-1.02-6.581 1.576-11.957 3.707-17.055 2.503-5.931 5.376-11.77 9.084-16.405 5.375-9.083 12.512-16.313 19.185-24.005 1.39-.927 2.41-2.225 3.523-3.337.278-4.727.463-9.64.926-14.274-4.17 3.244-7.6 8.157-12.79 10.66-7.6-1.113-2.41-10.474-1.298-14.923 5.005 1.39 1.205 7.785.37 10.844 5.284-3.151 9.826-7.786 14.274-12.142 1.113-.834 2.41-.185 2.874.927.092 4.82-.927 11.03-.834 16.127zm15.756-12.049c.37-.278 1.39-.927 1.112-1.205-.37.464-1.02.556-1.112 1.205zm1.761.186c-.093-.371.37-.186.278-.557-.37-.278-.37.186-.649.371-5.746 4.45-11.585 9.64-17.332 14.46 0 .555 0 1.111-.092 1.575 1.204-.834 2.317-1.576 3.058-2.78 1.02-.279 2.04-1.391 2.595-2.503 1.761.278 2.41-2.966 4.264-2.966 2.224-3.059 6.58-5.561 8.99-8.342-.092.185-.185 0-.37 0-.093.37-.278.649-.742.742zm-3.43 1.297c.372-.556 1.391-.927 1.298-1.483-.278.649-1.297.556-1.297 1.483zm-.833.649c.185.37.278-.463 0 0zm-1.39 1.576c.092-.278.648-.65.185-.835-.093.186-.556.557-.186.835zm.555-.742c0 .093-.092 0 0 0zm-2.131 1.947c.278-.464.927-.557 1.112-1.02-.556.185-1.02.37-1.112 1.02zm-.464.185c.371.185.371-.464 0-.278v.278zm-2.132 1.668c.65-.37 1.854-.834 1.761-1.575-.556.556-1.204 1.02-1.76 1.575zm0 .371c-1.76.185-3.429 3.151-5.283 3.615-.278 1.483-2.502 1.575-2.41 3.058 1.113-.463 1.484-2.131 2.596-2.131.092-.464.278-.927.741-.557 1.205-1.668 2.873-2.687 4.356-3.985zm-12.697 10.195c.278.742-.65.835-.742 1.483-.278.093-.278-.185-.556-.092-.742.648-1.39 1.39-2.225 2.039.742.092 1.483-.834 2.04-1.39.092.092 0 .37.278.278 1.112-.371 1.39-2.41 2.131-2.225.186-.185.65-.741.371-1.112-.463.37-.834.741-1.297 1.02zm-17.796 24.47c0 .555-.37.555-.37 1.112-.279.092-.835.556-.372.648.093-.185.371-.278.371-.648.556-.464 1.112-1.02 1.298-1.854-.556 0-.464.649-.927.741a13.576 13.576 0 011.576-2.224c0 .556-.464.649-.557 1.112 2.688-2.595 4.357-6.024 7.045-8.527-.371-.556.37-.556.092-.927-.463.556-.927 1.205-1.483 1.669 1.113-1.669 2.317-3.244 3.708-4.635 0 .278-.278.278-.186.65.371-.094.927-.65.742-1.02-.093.185-.186.37-.556.37 1.02-1.39 2.317-2.966 3.43-3.8-.094.464-.557.556-.65 1.02.65-.278.834-1.02 1.483-.927-.834-.37 1.576-1.668.649-1.854.463-.278.556-.834 1.112-1.02-.092.186-.37.186-.278.557.927-.556 1.669-1.205 2.132-2.225-.742.186-.927 1.39-1.576 1.298.371-1.483 2.966-1.947 2.132-3.43-.37.65-1.39 1.113-1.39 1.762-1.02.648-2.688 2.131-3.059 3.336-9.917 10.01-17.703 21.596-24.376 34.757-.649 2.317-1.298 3.244-1.854 5.19 2.317-4.448 4.634-9.731 7.322-14.088v.464c1.483-1.576 2.132-3.151 3.244-5.005-1.02.463-1.02 2.039-2.039 2.502.927-1.668 2.04-3.522 3.337-5.005zm17.147-23.357c0-.186.185-.557-.186-.464 0 .278 0 .464.186.464zm-1.02 1.483c.093.092 0-.093 0 0zm-1.112 1.204c.556-.185.834-.556 1.02-1.02-.464.186-.65.65-1.02 1.02zm-10.659 16.684c0 .37-.185.463-.185.927-3.615 3.893-6.21 8.99-9.176 13.346-3.244 7.6-7.23 13.718-7.878 23.728-.464.185-.093 1.39-.556 1.946-.186-.185.185-1.02-.279-1.02-.278 1.391.279 2.689.65 3.894 1.853 2.78 6.58 3.707 10.102 1.853 9.176-5.19 12.327-15.57 15.942-25.952 2.317-10.288 5.283-22.151 5.84-35.406 0-.092 0-.092-.094-.092-4.912 5.376-9.639 11.122-14.366 16.776zm8.713-15.479c.463 0 1.297-.741.741-1.02-.185.464-.741.464-.741 1.02zm1.204-.834c.093 0 0-.092 0 0zm-.185.927c-.185-.278.464-.37.093-.556 0 .185-.464.463-.093.556zm1.761.37c0-.185.464-.37.093-.463 0 .186-.464.371-.093.464zm-3.985.928c.463 0 .278-.742.927-.464.092-.278.463-.556 0-.649-.093.464-.927.371-.927 1.113zm1.483-.927c.092.093 0-.093 0 0zm-.186.37c.464.093 0-.37 0 0zm2.317.279c.464.092.093-.278 0 0zm-4.078.648c.371 0 .464.278.556-.092-.185-.186-.463-.093-.556.092zm.834 0c.278 0 .371-.092.371-.185-.185 0-.278.093-.37.185zm-.278.278v.186c.278.185.278-.37.093-.278 0 0 0 .092-.093.092zm-1.39.557c.37 0 .742-.093.742-.464-.371.093-.557.186-.742.464zm1.02 0c-.278.37.37-.278 0 0zm-1.39.648h-.186c-.093.093-.093.557.185.557v-.557c.278 0 .556 0 .556-.185-.278-.278-.556-.093-.556.185zm.926-.185c-.092.649.093-.463 0 0zm1.947.649v.093c.278.092.463-.279.092-.186v-.37c-.278.185-.649.277-.649.74.371.186.371-.184.557-.277zm-3.615.556c-.464 0 0 .37 0 0 .093 0 .185.093.278.093 0-.278.278-.65-.093-.65-.092.094-.185.279-.185.557zm.834 0c.185.093.463-.278.185-.37 0 .185-.278.092-.185.37zm-.278 0c.185.37.185-.463 0 0zm1.112 1.205c.37-.278 1.298-.556 1.112-.927a.2.2 0 01-.185.185c0-.278-.093-.37-.185-.37-.278.37-.464.741-.742 1.112zm-2.78-.093c-.556.37-1.39 1.205-1.298 1.854.742-.278.834-1.205 1.483-1.668-.093-.093-.185-.093-.185-.186h.556c.185-.278.278-.463.278-.927-.464.093-.464.278-.37.65-.186.092-.557-.094-.464.277zm.741.278c.278-.185.927-.556.649-.927-.093.371-.742.371-.649.927zm-.463.464c.278.463.185-.371 0 0zm-.464.927c0-.186.464-.65 0-.557.093.186-.278.464 0 .557zm-1.205 1.39c.186-.371 1.298-1.02.742-1.39 0 .648-1.02.834-.742 1.39zm2.503-1.205c.185.37.278-.464 0 0zm-.927 1.39c-.185 0 0 .093 0 0 .37-.278.834-.556.927-1.02-.649 0-.649.65-.927 1.02zm-4.449 2.04c1.112-.093 1.576-1.947 2.503-2.781-1.02.278-1.854 1.853-2.503 2.78zm1.668-.928c.278 0 .65-.556.371-.741-.093.278-.37.37-.37.741zm-2.502 1.947c.463.37 1.205-.649.463-.742-.092.278-.37.464-.463.742zm1.483-.556h-.093c-.092.092-.185.185-.185.37-.278 0 .185.464 0 0 .185-.092.278-.185.278-.37.463.092 0-.278 0 0zm-2.04 1.205c.372 0 .65 0 .65-.371-.278-.278-.557.093-.65.37zm1.484-.371c.092.37.092-.464 0 0zm-1.483.649c-.093 0-.093-.093-.186-.093-.278.093.186.37.186.093zm.834.092c0 .093-.093-.092 0 0zm-.278.371c.463.093.093-.37 0 0zm-7.137 8.898h-.093c-1.02 1.668-1.946 2.78-2.78 4.634-.464.556-1.02 1.668-1.02 2.41.464-.742.742-1.576 1.02-2.41 1.39-.927 1.576-3.058 2.873-3.985v-.65c1.112-.555.834-1.853 1.947-2.409 0-.185 0-.37-.093-.556 1.76-1.483 3.058-3.8 4.541-5.932-2.502 2.503-4.634 5.561-6.395 8.898zm22.06-8.62c.092.093 0 0 0 0zm-15.387.278c.093 0 0-.093 0 0zm15.942 1.761c-.092.649.093-.463 0 0zm-.926.093c.185.37.278-.464 0 0zm.926.556c-.278.37.371-.278 0 0zm-.092.556c.092.093-.093-.093 0 0zm-1.669 3.708h.464c-.186-.835.556-1.854.092-2.688-.278.834-.185 1.853-.556 2.688zm1.298-1.298c0-.185.37-.649 0-.742.185.371-.278.65 0 .742zm-1.668.927c.185.463.185-.464 0 0zm-.093.37c.093 0 0-.092 0 0zm.463.835c.371 0 .464-.742.093-.742-.185.278 0 .371-.093.742zm.835-.186c.37.186.37-.463.185-.463 0 .185-.185.278-.185.463zm-1.298.278c.093.093 0 0 0 0zm-17.796.278v.186c.186.37.371-.186.464-.278-.186-.093-.278.092-.464.092zm17.61 0c-.092.65 0-.463 0 0zm-.834 6.952h-.092c-.093.741-.371.927-.65 1.112 0 .464.372-.185.279.185-.834 3.337-1.576 6.86-2.78 9.825h-.371c.092-.463-.371 0 0 0 0 .37-.65-.093-.464.37.093.372.649 0 .742.186-.371.742-.464 1.761-1.02 2.41-.185-.37-.185.463-.649.093 0 .185-.463.649-.185.834.093-.649.556-.464.834-.834.093.37 0 .927-.37.649.556.834-.557 1.204-.464 2.224-.278 0-.37 0-.37.185-.279.278 0 1.205-.557 1.483-.278-.092-.37-.463-.649-.556.186.464-.463.649-.092.927.185-.649.278 0 .741-.278-.927.649 0 1.946-1.39 2.595 0 .371.37-.278.278.093-1.668 1.112-1.946 3.615-3.337 5.098.278.092.371-.278.464 0-.186.278-.278.463-.65.278-.648 1.02-1.482 1.76-2.13 2.78-.557.186-.835.556-1.02 1.205.741.093.741-.556 1.204-.649.093-.37-.278-.278-.185-.556.278-.092.278 0 .464.093-.093-.37.37-1.112.648-1.02 0 .186-.278.093-.185.464-.185 0 0 .092 0 0 .37-.186.649-.464.741-.927-.185-.093-.37.37-.463 0 .834-.093 1.576-.927 1.761-1.946h.278c.185-.557 1.112-1.298.556-1.854.371 0 .186-.649.556-.742.186.278-.278.556 0 .65 2.503-4.264 4.079-8.899 6.025-13.904 0 .093.093.186.185.278.278-.37.093-.37.371-.741-.37 0-.37.37-.556.463.649-3.151 1.946-6.951 2.502-10.473.742-2.317 1.113-4.449 1.576-7.044-.741.37 0 2.224-1.02 2.41.65 1.204-.556 2.966-.556 4.634zm2.225-6.488c.37.093.37-.742 0-.556v.556zm-.464 1.76c.464.094.093-.37 0 0zm-.092.65c.37 0 .463-.464.092-.464 0 .186-.092.186-.092.464zm-23.357 0c.37.37.185-.371 0 0zm21.596 1.483c.278 0 .37-.186.37-.464-.278-.092-.37.093-.37.464zm1.112 1.39c.37.093.278-.278.463-.463-.185 0-.185-.093-.37-.093.092.278 0 .463-.093.556zm-1.298.278h.186v-.278h-.186v.278zm.927-.185c.093.092 0 0 0 0zm-1.205.185c.186.37.186-.463 0 0zm-20.02.278h.371c0-.185-.093-.278-.37-.185v.185zm21.596-.093c.093.464.093-.463 0 0zm-1.668.093c.092.093 0 0 0 0zm-20.206 1.112c0-.278.742-.834.186-1.02 0 .371-.464.742-.186 1.02zm20.02-.463c.278.185.278-.464.093-.37 0 .184-.093.184-.093.37zm-19.464-.186c.093.464.093-.463 0 0zm-3.614 1.298c.37.093.463-.185.463-.37-.37-.093-.278.277-.463.37zm2.502.278c0-.185.463-.649 0-.649.093.278-.37.464 0 .65zm22.06-.556c.185.37.277-.463 0 0zm-1.762.093c.186.463.186-.464 0 0zm1.669.463c.092.093 0-.093 0 0zm-22.338.186c.093.463.093-.464 0 0zm20.762.37c.093.093 0-.092 0 0zm1.483.093c.093.463.093-.463 0 0zm-22.8.556c.092 0 .185.093.185.093 0-.186.092-.371-.186-.278v.185zm-2.133 0c.093.093 0-.093 0 0zm24.377 0c.092.093 0-.093 0 0zm-1.298.093c0 .092-.093 0 0 0zm-.278.278v.185c.278.186.37-.37.093-.37 0 .092 0 .185-.093.185zm-23.45 1.112c0-.278.557-.556.186-.741 0 .185-.556.463-.185.741zm23.265 0c.37.093.185-.37.278-.463-.278-.093-.278.185-.278.463zm1.76-.185c.093.463.093-.371 0 0zm-.092.556c.093.463.093-.371 0 0zm-.37 1.297c.185.371.185-.463 0 0zm-1.762.093v.093c-.278.649.556-.65 0-.093zm1.298.185h-.093c.093.093 0 .093-.093.093v.278c.279 0 .186-.185.186-.37.185-.093 0-.093 0 0zm-1.39.464h.185v-.186h-.185v.186zm1.668-.093c.093.093-.093-.093 0 0zm-.556 1.112c-.093-.278.37-.463-.093-.463 0 .185-.093.37.093.463zm.278-.37c.185.463.185-.464 0 0zm-1.761.648c.37 0 .463-.648.093-.648-.093.185-.093.37-.093.648zm1.575 0c.093.464.093-.37 0 0zm-.463.278c-.37.464.278-.37 0 0zm-1.298.186c-.278.37.371-.278 0 0zm1.669 0c.092.093-.093 0 0 0zm-1.761.556c.092.463.092-.463 0 0zm-.186.37c-.185.371.464-.277 0 0zm-.278 1.02c.093.371.093-.463 0 0zm1.02 1.298c0-.093 0-.093.093-.093 0-.185 0-.278-.278-.278.092.185 0 .37.185.37zm-.464.927c.371.092.464-.65.186-.742-.093.278-.186.464-.186.742zm-1.204-.464c0 .093-.093-.092 0 0zm.278.093c.092.093 0-.093 0 0zm-.093.556c.093.093 0-.093 0 0zm-23.728 1.298c0-.464.65-1.113.186-1.298-.093.37-.464.927-.186 1.298zm23.357-.834c.093.092 0-.093 0 0zm1.483.092h.186v-.185h-.186v.185zm-.556.742c-.185.185-.463.741-.185.927.092-.279.278-.464.185-.927h.093c.092 0 .278-.464 0-.556.092.278-.186.278-.093.556zm-24.84 1.297c-.278 0 .186.464 0 0 .278-.185.371-.556.371-.927-.37 0-.278.464-.37.927zm23.264.093c.093.093 0-.093 0 0zm-.741.741c.278.093.463-.648.185-.741 0 .278-.092.463-.185.741zm.649-.185c0-.093.278-.463 0-.463.092.185-.371.37 0 .463zm1.02-.278c.092.463.092-.37 0 0zm-.093.37c-.093.65 0-.463 0 0zm-2.132 1.854c.185-.37.278-.741.463-1.112-.463.093-.927.927-.463 1.112zm-1.112 2.41h-.093c-.093 0-.278.371 0 .371.093-.093.093-.185.093-.37.185-.279.834-.742.278-.928.185.557-.371.371-.278.927zm-.65 1.113c.186 0 .464-.464.186-.464-.093.185-.185.278-.185.464zm-.74 1.39c.092-.093.463-.37.185-.556.092.278-.464.37-.186.556zm-.279.649c.186.092.464-.278.186-.278 0 .092-.186.185-.186.278zm-.649 1.112c.278.093.65-.556.186-.556 0 .278-.186.37-.186.556zm-.37.463h.185v-.185h-.185v.185zm-.186.927c0-.278.093-.278.186-.649-.371-.092-.65.556-.186.65zm-.463.185c.185.371.278-.463 0 0zm-.556 1.205c.092-.278.278-.37.463-.648-.185 0-.278-.186-.463-.093.092.37-.556.556 0 .741zm1.853-.556c.093.093 0 0 0 0zm-3.058 1.947c.185-.464 1.02-.742.741-1.205-.185.37-1.02.741-.741 1.205zm1.297.463c.186.37.279-.463 0 0zm-5.097 2.966h-.278v.185c.278.093.278-.092.278-.185.741-.37 1.39-.834 1.668-1.668-.649.463-1.112 1.112-1.668 1.668zm-3.708.742c-2.41 1.02-4.263.185-6.395-.279 1.02 1.39 4.634 1.576 6.395.279zm44.767-83.232c-.092.37-.648.278-.834.649-.185-.278.186-.834.834-.65zm-2.131 1.668c.278-.37.834-1.02 1.112-.927-.278.464-.649.742-1.112.927zm0 0c-.093.278-.371.464-.65.556.186-.278.186-.556.65-.556zm-9.454 8.342h.185v.185c-.093 0-.093 0-.093.093h-.185v-.185c.093 0 .093-.093.093-.093zm-12.05 8.712c.093-.278.464.186 0 0zm-.185 2.596c0-.186 0-.371.186-.371 0 .185-.093.278-.186.37zm-1.39 1.297c.278-.37.185.37 0 0zm-.185.278c0 .556-.557.464-.65 1.02-.277-.37.279-.927.65-1.02zm-1.761 2.78c.092 0 .092 0 .092-.092-.092-.093-.092 0-.092.093zm-6.396 6.86c.093.278-.092.37-.278.463 0-.278.186-.37.278-.463zm-.37.556c0-.093 0-.093.092-.093 0 .093 0 .093-.092.093zm0 0c0 .185-.186.092 0 0zm-.371.278c.092.463-.556 1.112-1.02 1.39.278-.556.742-.927 1.02-1.39zm-4.356 5.839c.926-1.39 2.131-3.151 3.15-4.078-.926 1.483-1.853 2.966-3.15 4.078zM326.646 99c.092.093 0-.093 0 0zm-2.317 4.078c.556.185 0 .556-.093.834-.37-.278.093-.556.093-.834zm-.557.834c.371.278-.185.556-.185.834-.556-.185.093-.556.185-.834zm13.903 20.298c.186 0 .093.186 0 0zm-2.873 5.932c.278-.463.185.371 0 0zm-1.483 3.152c-.185 0-.185-.093-.093-.279.093 0 .186.093.093.279zm-1.112 1.39c.185-.093 0-.093 0 0zm0 0c0 .463-.464 0 0 0z" fill="#364F6B"/>
  <path d="M109.96 125.56c.168 0 .147.526 0 .59a3.56 3.56 0 01-4.076-1.198l-3.278-4.203c-.882-1.134-2.038-1.344-3.572-1.365v4.118c0 1.47.967 1.723 2.375 1.89.147.022.042.652-.126.652H95.21c-.168 0-.294-.63-.126-.651 1.03-.147 1.765-.525 1.765-1.891v-9.497c0-1.387-.735-1.786-1.765-2.06-.168-.042-.063-.672.126-.65.84.104 1.765.125 2.396.125 1.407 0 2.752-.126 3.719-.126 3.004 0 5.21 1.26 5.21 3.887 0 2.5-2.08 3.698-3.677 3.803v.105c.778 0 1.303.337 2.186 1.45l3.235 4.034c.589.757 1.156.988 1.681.988zm-10.274-7.08c3.151 0 4.538-.546 4.538-2.752 0-2.29-1.513-3.425-3.446-3.425-1.281 0-1.744.504-1.744 1.702v4.475h.652zm37.86 6.892c.295.042.21.672-.041.672h-5.232c-.273 0-.315-.63-.063-.672.798-.126 1.597-.441.82-2.27l-.316-.735c-.189-.483-.651-.504-1.324-.504h-4.37c-.63 0-1.093.02-1.282.504l-.294.736c-.777 1.87.021 2.122 1.072 2.269.252.042.21.672-.063.672h-4.434c-.273 0-.336-.63-.063-.672.883-.126 1.387-.462 2.164-2.27l3.551-8.089c.82-1.849 1.072-2.773 1.072-3.572 0-.126 1.492-.462 1.555-.315l5.127 11.956c.777 1.828 1.281 2.164 2.122 2.29zm-6.156-4.58c.316 0 .673-.043.547-.316l-2.69-6.387-2.69 6.387c-.125.273.21.315.526.315h4.307zm27.986 5.588c-5.043 0-9.098-2.416-9.098-7.375 0-4.076 2.795-8.005 8.552-8.005 2.521 0 4.475.735 4.244 1.408l-.273.82c-.651 1.89-1.66-.673-5.4-.673-3.278 0-5 1.975-5 5.295 0 4.937 3.508 7.29 6.366 7.29 1.492 0 2.248-.735 2.248-2.037v-.4c0-1.596-.651-2.122-2.353-2.374-.273-.042-.084-.756.378-.756h5.148c.567 0 .294.693.063.756-.715.19-1.219.651-1.219 1.996v.757c0 .567.021.966.42 1.66-1.26.672-3.55 1.638-4.076 1.638zm17.795-.294c-.21.021-.294-.63-.126-.672 1.24-.315 2.185-.504 2.185-2.06v-9.412c0-1.408-.861-1.765-1.786-1.996-.168-.043-.084-.673.126-.652.862.105 1.744.126 2.459.126 1.47 0 2.941-.126 4.034-.126 5.19 0 7.837 3.005 7.837 7.102s-2.731 7.69-7.858 7.69c-1.009 0-2.311-.126-3.719-.126-1.135 0-2.164.021-3.152.126zm6.934-1.03c3.635 0 5.61-1.953 5.61-5.651 0-3.888-2.227-7.081-6.22-7.081-1.617 0-2.08.483-2.08 1.618v9.413c0 1.155.63 1.702 2.69 1.702zm28.406 1.324c-4.37 0-7.543-3.256-7.543-7.627 0-4.223 2.983-7.753 7.585-7.753 4.391 0 7.543 3.257 7.543 7.606 0 4.244-2.962 7.774-7.585 7.774zm.777-1.281c1.933 0 4.644-1.24 4.644-5.4 0-4.35-2.984-7.417-6.135-7.417-1.954 0-4.644 1.24-4.644 5.379 0 4.391 2.963 7.438 6.135 7.438zm19.56.987c-.21.021-.294-.63-.126-.672 1.24-.315 2.186-.504 2.186-2.06v-9.475c0-1.471-.862-1.765-1.786-1.891-.168-.021-.042-.652.105-.652h5.484c.168 0 .273.63.126.652-.904.105-1.744.42-1.744 1.89v9.477c0 1.218.546 1.618 2.353 1.618 3.404 0 4.497-1.366 5.022-2.249.168-.273.672-.21.672.19 0 1.155-.882 3.151-2.164 3.172a64.884 64.884 0 00-4.16-.126c-1.933 0-4.034-.063-5.967.126zm24.52 0c-.21.021-.295-.63-.127-.672 1.24-.315 2.185-.504 2.185-2.06v-9.475c0-1.471-.861-1.765-1.786-1.891-.168-.021-.042-.652.106-.652h5.484c.168 0 .273.63.126.652-.904.105-1.744.42-1.744 1.89v9.477c0 1.218.546 1.618 2.353 1.618 3.404 0 4.496-1.366 5.022-2.249.168-.273.672-.21.672.19 0 1.155-.882 3.151-2.164 3.172a64.884 64.884 0 00-4.16-.126c-1.933 0-4.035-.063-5.968.126zm29.099.294c-1.744 0-4.266-.798-4.035-1.68l.19-.736c.567-2.038 1.197 1.03 4.664 1.03 1.828 0 2.858-.883 2.858-2.207 0-1.092-.799-1.575-2.144-2.374l-2.353-1.429c-2.143-1.302-2.983-2.227-2.983-3.677 0-2.5 2.395-4.307 5.063-4.307 1.618 0 3.593.672 3.383 1.387l-.252.777c-.588 1.891-1.135-.798-4.013-.798-1.618 0-2.438.84-2.438 1.975 0 .924.568 1.47 1.976 2.332l2.458 1.47c2.143 1.283 3.005 2.25 3.005 3.699 0 2.563-2.564 4.538-5.38 4.538z" fill="#3FC1C9"/>
</svg>
