<svg viewBox="-2.459 -3.107 254.627 253.916" xmlns="http://www.w3.org/2000/svg"><path xmlns="http://www.w3.org/2000/svg" d="M10.555 11.703H236.12v55.301c.23 6.654.23 13.768.459 18.587s.23 2.294.23 1.835a141.121 141.121 0 00.688-15.374v-9.637c.23-15.375 0-30.978 0-46.352V9.867H10.555V1.836H245.3v55.3c.23 6.655.23 13.769.459 18.588s.23 2.294.23 1.835a141.121 141.121 0 00.688-15.374v-9.637c.229-15.375 0-30.978 0-46.352V0H9.179v10.326H0v108.078c.23 6.196.23 13.31 0 19.964v109.225h99.818l38.32-.459h25.012a148.464 148.464 0 0018.587-.688H1.607V84.214c-.23-11.932-.23-23.865-.23-36.026V11.703h7.802v96.605c-.23 6.195-.23 13.309-.23 20.193v109.225h100.047l38.32-.459h25.013a148.464 148.464 0 0018.586-.688H10.785V38.321c0-12.162-.23-17.67-.23-26.618zm236.35 122.075v-10.784l-.459-17.899c-.23-7.343-.459-8.72-.688-8.72 0 4.36-.23 8.95-.23 13.539v39.698c0 7.113 0 14.456-.23 21.11v36.027c0 7.572 0 14.456.23 21.34v8.949l-4.36-.459h-3.9q.229-5.507.229-11.932v-55.76c0-8.032.23-15.833.23-24.783V133.32l-.46-17.899c-.229-7.343-.459-8.72-.688-8.72 0 4.36-.23 8.95-.23 13.539v39.698c0 7.113 0 14.456-.229 21.11v36.026c0 7.573 0 13.31.23 19.505h-24.324c-.918.23-2.983.23-2.065.23l8.031.458h18.358v9.638l-4.36-.459h-29.142c-.918.23-2.983.23-2.066.23l8.032.458h27.765c.23.689.23.23.459-2.753s.23-4.59.23-6.884h8.49c.23.688.23.23.459-2.754s.23-12.161.459-19.963v-55.76c.229-8.72.458-16.522.229-25.242z" class="prefix__logo" stroke-width="2.00094352" stroke-miterlimit="2" stroke="#fff" fill="#FFF"/><g xmlns="http://www.w3.org/2000/svg" fill="#FFF"><path d="M124 45c-12.797 0-25.594 4.881-35.356 14.644-19.525 19.525-19.525 51.184 0 70.71C98.406 140.118 111.204 145 124 145c12.797 0 25.594-4.881 35.356-14.644 19.525-19.525 19.525-51.184 0-70.71C149.594 49.882 136.796 45 124 45zm33.147 83.147C148.29 137 136.522 141.875 124 141.875S99.71 137 90.853 128.147c-18.278-18.278-18.278-48.016 0-66.29C99.71 53 111.478 48.124 124 48.124S148.29 53 157.147 61.853c18.275 18.278 18.275 48.016 0 66.294z"/><path d="M97.385 91.146l23.22-23.22 2.21 2.21-23.22 23.22zM97.793 105.079l37.704-37.704 2.21 2.21-37.704 37.703zM97.144 120.075l51.501-51.502 2.21 2.21-51.501 51.501zM112.013 119.55l36.084-36.085 2.21 2.21-36.085 36.084zM125.49 120.415l23.094-23.093 2.21 2.21-23.094 23.093z"/></g><path d="M46.408 183.474l5.828 1.638c-.724 4.38-4 7.733-10.704 7.733-8.837 0-12.532-5.79-12.532-13.332 0-8.114 4.38-12.913 12.57-12.913 6.857 0 10.704 3.352 10.323 8.19l-6.285 1.409c.152-2.705-.8-4.304-4.19-4.304-4.38 0-5.676 2.552-5.676 7.58 0 5.561 1.714 8.075 5.638 8.075 2.476 0 4.99-1.066 5.028-4.076zm7.123-10.856v-5.485h21.407v5.485h-7.504v19.694h-6.4v-19.694h-7.503zm22.893 12.723l6.285-1.295c.038 2.666 2.095 3.504 4.19 3.504 1.98 0 3.123-.724 3.123-1.904 0-4-12.913-2.172-12.913-11.314 0-5.028 3.886-7.732 9.714-7.732 5.866 0 9.56 2.78 9.37 6.818l-6.285 1.295c-.038-1.028-.266-2.818-3.238-2.818-2.057 0-3.085.838-3.085 1.98 0 4.152 12.913 1.981 12.913 11.085 0 4.57-3.238 7.885-9.675 7.885-6.857 0-10.628-3.733-10.4-7.504zm31.501 6.97v-25.178h10.323c8.266 0 12.304 5.066 12.304 12.113 0 6.78-3.771 13.066-12.266 13.066h-10.36zm6.4-5.37h3.809c3.771 0 5.676-2.476 5.676-7.428 0-4.838-1.829-7.009-5.905-7.009h-3.58v14.437zm36.187-2.172h-11.275c.152 2.553.876 3.657 3.352 3.657 1.523 0 2.437-.419 2.704-1.79l5.219.914c-.99 3.314-3.352 5.295-8.114 5.295-5.942 0-9.37-3.086-9.37-9.218 0-4.952 2.209-9.637 9.104-9.637 5.599 0 8.38 3.085 8.38 8.837v1.942zm-8.609-6.551c-1.448 0-2.286.685-2.59 2.933h4.952v-.038c0-2.095-.8-2.895-2.362-2.895zm10.78 9.332l5.6-.876c-.153.914.533 1.752 2.399 1.752 1.105 0 1.98-.343 1.98-1.066 0-2.286-9.598-.915-9.598-7.619 0-3.466 2.552-5.751 7.58-5.751 4.57 0 8.152 1.866 7.542 5.18l-5.942 1.028c.228-.838-.267-1.79-1.676-1.79-1.143 0-1.486.572-1.486 1.067 0 2.666 9.675.952 9.675 7.542 0 4.076-3.656 5.828-8.304 5.828-4.418 0-8.151-1.676-7.77-5.295zm18.703-19.236c0-1.828 1.523-3.314 3.352-3.314 1.866 0 3.352 1.486 3.352 3.314s-1.486 3.352-3.352 3.352c-1.829 0-3.352-1.524-3.352-3.352zm.38 23.998v-17.79h5.943v17.79h-5.942zm9.523-11.733c0-4.075 3.01-6.59 8.571-6.59 1.79 0 3.314.267 4.571.8.419-.533.571-.952.571-2.095v-2.17l4.686.723c.114.686.152 1.257.152 1.638 0 1.562-.648 2.895-2.704 3.885.723.953 1.142 2.21 1.142 3.657 0 4.19-3.161 6.666-8.608 6.666-1.257 0-2.362-.114-3.352-.38-.381.304-.61.647-.61.99 0 1.447 3.619 1.333 6.438 1.523 4.723.343 7.504 1.676 7.504 5.561 0 5.295-5.105 6.743-9.714 6.743-5.104 0-9.066-1.753-9.066-4.876 0-1.943 1.448-3.124 3.086-4.114-1.905-.495-3.086-1.638-3.086-3.314 0-1.447.915-2.628 2.553-3.885-1.41-1.105-2.134-2.743-2.134-4.762zm10.666 13.37a73.871 73.871 0 01-4.304-.342c-1.333.914-1.676 1.409-1.676 1.98 0 .838.723 1.715 3.961 1.715 2.629 0 4.343-.572 4.343-1.829 0-.876-.8-1.447-2.324-1.524zm-2.21-10.78c1.563 0 2.362-.952 2.362-2.666 0-1.676-.8-2.59-2.323-2.59s-2.324.952-2.324 2.666c0 1.6.686 2.59 2.286 2.59zm12.152 9.143v-17.79h5.523v2.82c.457-1.067 1.943-3.352 5.904-3.352 2.629 0 5.676 1.066 5.676 6.627v11.695h-5.942v-10.17c0-2.096-.495-3.124-1.714-3.124-2.133 0-3.2 2.97-3.505 4.114v9.18h-5.942z" fill="#FFF"/></svg>