<?xml version="1.0" standalone="no"?>
<!DOCTYPE svg PUBLIC "-//W3C//DTD SVG 20010904//EN"
 "http://www.w3.org/TR/2001/REC-SVG-20010904/DTD/svg10.dtd">
<svg version="1.0" xmlns="http://www.w3.org/2000/svg"
 width="1280.000000pt" height="1280.000000pt" viewBox="0 0 1280.000000 1280.000000"
 preserveAspectRatio="xMidYMid meet">
<metadata>
Created by potrace 1.11, written by Peter Selinger 2001-2013
</metadata>
<g transform="translate(0.000000,1280.000000) scale(0.100000,-0.100000)"
fill="#000000" stroke="none">
<path d="M10485 9630 c-79 -39 -130 -100 -257 -304 l-68 -109 -112 -3 c-78 -1
-137 -9 -188 -23 -86 -24 -77 -21 -190 -55 -47 -14 -94 -26 -105 -26 -12 0
-26 -5 -31 -10 -6 -6 -60 -28 -120 -49 -149 -53 -208 -75 -214 -81 -3 -3 -14
-7 -25 -8 -11 -2 -24 -7 -30 -11 -5 -4 -37 -18 -70 -31 -33 -13 -62 -26 -65
-29 -3 -3 -21 -14 -40 -23 -185 -89 -316 -157 -370 -193 -36 -23 -75 -46 -87
-49 -13 -4 -29 -13 -35 -20 -7 -6 -44 -30 -82 -51 -37 -22 -77 -45 -87 -51
-10 -6 -16 -14 -13 -17 4 -3 -6 -12 -22 -19 -16 -7 -38 -22 -49 -33 -11 -11
-37 -31 -58 -45 -20 -14 -37 -28 -37 -32 0 -4 -24 -31 -54 -61 -127 -130 -186
-266 -173 -403 7 -76 27 -124 70 -175 17 -21 42 -51 55 -68 26 -35 155 -134
227 -175 28 -16 84 -52 125 -80 41 -28 95 -60 120 -71 25 -11 53 -28 62 -37
10 -10 25 -18 33 -18 8 0 15 -4 15 -8 0 -5 26 -26 58 -47 79 -54 189 -142 229
-184 18 -19 33 -32 33 -27 0 20 141 -186 160 -235 18 -45 21 -67 16 -129 -5
-80 -44 -192 -77 -222 -10 -10 -30 -39 -45 -65 -15 -27 -44 -63 -63 -82 -198
-188 -264 -239 -385 -296 -11 -5 -49 -24 -83 -42 -37 -18 -63 -27 -63 -20 0 8
-3 8 -8 -1 -5 -7 -21 -15 -35 -18 -15 -2 -37 -8 -49 -12 -13 -5 -30 -8 -38 -7
-8 1 -23 -3 -33 -8 -23 -11 -134 -12 -167 -2 -36 11 -59 34 -55 55 7 34 57
102 126 171 38 38 73 69 78 69 5 0 28 18 51 40 23 22 48 40 55 40 8 0 18 6 22
14 4 7 28 26 53 41 25 15 55 36 66 47 12 11 30 21 40 22 10 2 20 9 22 16 3 8
0 10 -9 6 -8 -4 -4 1 8 12 12 11 19 22 16 26 -3 3 0 12 6 20 7 8 9 21 5 27 -5
9 -2 10 9 6 8 -3 21 1 27 9 7 8 22 14 34 14 28 0 78 61 62 76 -55 51 -470
-155 -637 -316 -154 -148 -179 -408 -52 -539 48 -49 130 -57 275 -26 61 12
168 52 208 76 8 5 22 12 30 15 76 27 195 104 161 104 -7 0 -9 5 -5 11 5 8 8 8
14 0 8 -14 50 -1 69 23 7 9 18 16 25 16 6 0 22 11 36 24 119 114 175 176 172
187 -3 8 -1 11 3 7 10 -9 45 9 45 23 0 6 17 31 39 57 57 70 111 189 111 246 0
30 4 46 13 46 9 0 9 2 0 8 -14 9 -19 117 -7 146 6 15 4 17 -7 11 -11 -7 -11
-5 1 10 8 10 10 16 3 12 -7 -5 -12 -1 -12 10 1 64 -44 174 -117 283 -42 64
-252 280 -272 280 -6 0 -12 3 -14 8 -1 4 -32 29 -68 55 -36 26 -76 56 -90 66
-59 43 -175 111 -192 111 -10 0 -18 6 -18 14 0 8 -11 17 -24 20 -13 3 -37 18
-53 33 -17 16 -47 36 -67 46 -34 16 -133 86 -201 143 -62 51 -74 135 -29 212
14 23 28 42 32 42 4 0 16 15 26 33 24 42 145 159 157 152 5 -4 9 1 9 10 0 8 8
19 18 22 9 4 53 33 97 66 78 58 173 113 188 109 4 -1 10 5 13 13 4 9 28 25 55
36 27 12 49 25 49 28 0 4 16 13 35 21 20 8 43 22 52 32 9 10 21 18 27 18 6 0
28 11 48 25 20 14 45 25 54 25 10 0 25 7 34 15 10 9 28 18 41 20 13 3 25 9 27
15 2 6 8 7 14 4 5 -3 12 3 15 15 3 11 8 19 12 16 14 -8 136 35 151 54 3 4 28
14 55 23 152 51 180 62 183 70 2 4 8 6 12 3 5 -3 39 8 77 23 99 42 435 122
514 122 41 0 49 -9 24 -30 -8 -7 -13 -16 -10 -20 5 -8 -29 -111 -48 -145 -6
-11 -10 -24 -9 -28 1 -5 -3 -5 -9 -1 -15 9 -29 -14 -28 -46 0 -25 0 -25 9 -2
5 12 12 22 15 22 11 0 -35 -102 -60 -132 -17 -20 -25 -40 -22 -54 2 -13 0 -21
-4 -18 -5 3 -7 -10 -4 -29 4 -24 1 -38 -10 -47 -37 -31 -85 -177 -84 -255 1
-43 -4 -84 -11 -92 -3 -3 -3 -4 -14 -53 -5 -19 -18 -50 -29 -69 -14 -23 -16
-32 -6 -27 10 6 10 4 -1 -6 -19 -16 -35 -67 -61 -200 -33 -167 -33 -168 -18
-168 10 -1 8 -5 -5 -15 -10 -8 -20 -24 -21 -37 -2 -13 -7 -41 -13 -63 -6 -22
-13 -56 -16 -75 -2 -19 -7 -46 -10 -60 -12 -48 -43 -243 -48 -298 -2 -24 -17
-49 -51 -85 -46 -50 -67 -91 -52 -105 3 -4 21 -7 38 -8 32 -1 32 -1 29 -50 -1
-27 -9 -103 -18 -169 -8 -66 -17 -136 -20 -155 -2 -19 -11 -73 -18 -120 -8
-47 -17 -130 -20 -185 -3 -55 -7 -109 -10 -120 -2 -11 -7 -42 -10 -68 -4 -27
-9 -58 -11 -69 -4 -20 -8 -173 -6 -213 1 -15 14 -25 47 -38 54 -20 76 -12 100
36 9 18 22 39 29 47 21 24 42 159 60 385 3 39 8 90 10 115 3 25 7 69 10 98 8
88 15 146 20 177 2 17 7 47 10 69 9 66 20 74 40 32 42 -88 113 -121 255 -119
152 2 289 46 548 175 210 104 372 197 408 232 9 9 19 14 24 11 4 -3 10 5 14
18 5 17 8 19 15 9 6 -10 10 -8 14 8 4 16 11 21 22 16 9 -3 13 -2 10 4 -3 6 5
14 18 19 14 6 28 15 32 20 8 14 -28 -2 -119 -51 -37 -21 -73 -35 -79 -31 -5 3
-7 1 -4 -4 4 -6 -9 -18 -28 -27 -19 -9 -35 -20 -35 -25 0 -4 -29 -22 -65 -40
-36 -18 -65 -36 -65 -40 0 -8 -59 -38 -117 -61 -18 -6 -62 -27 -100 -45 -69
-35 -90 -33 -77 7 7 23 -6 28 -48 19 -20 -5 -41 -5 -48 -1 -11 7 67 31 110 35
9 0 20 4 26 8 6 3 31 9 55 13 24 4 55 15 68 26 13 10 29 18 35 18 9 0 173 87
296 157 123 70 190 103 190 95 0 -6 -6 -13 -12 -15 -10 -4 -10 -6 -1 -6 13 -1
36 33 28 41 -3 3 2 5 10 5 19 0 19 2 -9 -89 -13 -43 -23 -78 -21 -78 2 0 -3
-19 -10 -43 -18 -60 -12 -179 10 -214 33 -52 84 -88 135 -94 52 -7 184 81 320
211 200 193 272 260 280 260 4 0 6 -12 4 -27 -3 -26 -10 -118 -19 -263 -3 -48
-15 -241 -19 -322 -1 -27 -41 -73 -142 -168 -27 -25 -65 -64 -84 -85 -257
-290 -350 -397 -435 -499 -22 -27 -47 -57 -55 -66 -26 -31 -44 -55 -70 -91
-13 -19 -28 -38 -32 -44 -32 -39 -111 -152 -147 -210 -54 -86 -70 -110 -96
-145 -34 -45 -131 -193 -151 -230 -10 -19 -21 -37 -25 -40 -20 -19 -229 -471
-229 -496 0 -8 -3 -14 -8 -14 -8 0 -11 -7 -81 -210 -57 -169 -66 -214 -65
-370 0 -103 3 -124 32 -208 62 -178 135 -292 220 -343 20 -12 44 -30 52 -39
24 -27 113 -52 177 -49 162 8 303 71 425 191 111 110 141 149 247 327 95 159
145 264 191 406 24 72 64 195 91 275 47 146 114 380 124 442 3 18 10 49 15 68
8 32 34 156 46 220 2 14 7 41 10 60 11 57 12 63 18 105 2 22 9 69 15 105 6 36
13 83 16 105 4 22 8 51 10 65 16 102 47 368 50 425 2 39 7 122 11 185 4 63 6
125 6 138 -3 35 85 116 513 477 110 93 210 184 317 287 89 86 91 88 79 117
-18 43 -93 69 -121 41 -9 -8 -31 -26 -49 -40 -19 -14 -43 -33 -55 -43 -11 -10
-36 -31 -55 -45 -18 -15 -42 -34 -53 -44 -10 -9 -38 -31 -60 -50 -93 -75 -415
-345 -448 -375 -39 -36 -48 -29 -44 31 1 17 5 83 8 146 4 63 8 129 10 145 8
60 18 212 19 299 2 86 1 89 -27 113 -50 42 -83 29 -186 -75 -76 -76 -210 -201
-286 -267 -57 -49 -103 -84 -186 -143 -101 -70 -98 -76 -43 78 53 150 60 228
26 286 -12 20 -15 36 -10 46 7 13 1 15 -38 13 -48 -2 -49 -3 -68 -60 -5 -16
-8 -17 -15 -5 -8 13 -10 13 -10 -1 0 -10 -43 -39 -117 -79 -65 -34 -137 -75
-161 -91 -23 -15 -49 -26 -57 -23 -8 4 -15 2 -15 -4 0 -11 -201 -112 -265
-132 -22 -7 -67 -26 -100 -42 -33 -16 -67 -30 -75 -31 -8 -2 -24 -8 -35 -14
-21 -11 -130 -46 -176 -57 -151 -35 -302 -25 -346 22 -13 14 -23 30 -23 37 0
7 30 32 68 57 62 42 254 177 277 195 24 19 205 133 254 159 67 36 107 99 89
139 -30 67 -114 34 -396 -154 -83 -56 -154 -101 -158 -101 -4 0 -25 -15 -48
-33 -48 -39 -85 -61 -93 -53 -9 8 56 84 87 103 16 9 33 26 38 37 5 12 47 64
93 116 46 53 95 117 109 142 13 26 35 52 47 59 13 7 23 18 23 25 0 6 7 14 15
18 8 3 15 12 15 21 0 16 49 97 63 103 4 2 7 8 7 12 0 5 24 47 53 92 30 46 57
96 61 112 4 17 21 47 37 68 17 21 28 42 25 47 -4 5 -2 12 3 16 6 3 8 12 5 20
-3 8 3 29 14 47 36 58 62 108 57 108 -2 0 0 12 6 28 6 15 12 42 14 61 2 19 11
38 20 44 13 7 15 17 11 41 -5 24 -1 40 14 59 11 14 20 29 20 33 0 4 6 15 14
23 13 16 63 147 70 186 2 11 11 50 20 88 9 37 18 79 21 95 3 15 11 53 19 84 7
32 9 55 5 52 -14 -8 -11 23 6 62 8 20 16 50 17 68 1 17 5 38 9 47 5 9 11 72
15 140 9 182 6 225 -20 298 -20 55 -33 71 -57 71 -11 0 -19 4 -19 9 0 13 -57
31 -99 31 -20 0 -54 -9 -76 -20z m117 -201 c0 -286 -39 -479 -184 -914 -93
-277 -113 -326 -223 -550 -129 -259 -274 -487 -390 -610 -38 -39 -65 -60 -52
-37 3 4 8 25 11 47 4 22 13 78 21 125 8 47 17 105 20 130 5 37 21 137 38 235
2 11 9 40 16 65 7 25 15 52 17 60 7 32 124 425 190 635 40 130 159 389 174
380 5 -3 7 -11 5 -18 -2 -7 -7 -25 -9 -40 -3 -16 -12 -51 -22 -79 -19 -58 -13
-69 24 -45 15 9 46 26 69 37 53 26 62 42 58 104 -2 36 -12 61 -41 103 l-38 55
25 46 c94 180 260 403 282 382 5 -4 8 -54 9 -111z m9 -419 c-6 -20 -7 -30 0
-30 6 0 8 -17 4 -42 -10 -76 -27 -138 -36 -133 -4 3 -6 11 -4 18 2 7 6 37 9
67 12 113 26 182 33 162 3 -7 0 -26 -6 -42z m-1444 -106 c-3 -3 -12 -4 -19 -1
-8 3 -5 6 6 6 11 1 17 -2 13 -5z m-199 -88 c-16 -8 -34 -18 -40 -21 -7 -4 -2
3 12 14 14 11 32 21 40 21 8 0 3 -7 -12 -14z m-128 -56 c0 -5 -7 -10 -16 -10
-8 0 -12 5 -9 10 3 6 10 10 16 10 5 0 9 -4 9 -10z m-90 -50 c-20 -13 -33 -13
-25 0 3 6 14 10 23 10 15 0 15 -2 2 -10z m20 -24 c0 -2 -7 -7 -16 -10 -8 -3
-12 -2 -9 4 6 10 25 14 25 6z m-110 -24 c0 -5 -7 -9 -15 -9 -8 0 -15 4 -15 9
0 4 7 8 15 8 8 0 15 -4 15 -8z m1837 -34 c-3 -8 -6 -5 -6 6 -1 11 2 17 5 13 3
-3 4 -12 1 -19z m-1912 -7 c-8 -14 -25 -14 -25 0 0 5 5 7 10 4 6 -3 10 -1 10
6 0 7 3 10 6 6 3 -3 3 -10 -1 -16z m-49 -26 c-8 -8 -21 -15 -28 -15 -8 1 -6 6
6 15 26 20 42 19 22 0z m1930 -70 c-154 -524 -402 -999 -670 -1280 -53 -57
-64 -64 -56 -41 6 17 28 48 48 71 20 22 51 57 67 78 17 21 35 44 41 51 6 6 46
64 88 126 42 63 81 121 87 128 5 6 7 12 3 12 -4 0 0 8 10 18 17 20 167 312
203 398 40 94 140 359 168 442 15 46 29 82 31 80 1 -2 -8 -39 -20 -83z m-1976
45 c0 -5 -4 -10 -10 -10 -5 0 -10 5 -10 10 0 6 5 10 10 10 6 0 10 -4 10 -10z
m165 -20 c-3 -5 -12 -10 -18 -10 -7 0 -6 4 3 10 19 12 23 12 15 0z m-200 -10
c-3 -5 -16 -10 -28 -10 -18 0 -19 2 -7 10 20 13 43 13 35 0z m-55 -30 c0 -5
-6 -10 -14 -10 -7 0 -19 -7 -26 -15 -7 -9 -15 -13 -18 -10 -3 3 -11 0 -19 -7
-11 -8 -12 -7 -7 6 3 9 14 16 24 16 10 0 23 7 30 15 14 17 30 20 30 5z m20
-24 c0 -2 -7 -7 -16 -10 -8 -3 -12 -2 -9 4 6 10 25 14 25 6z m-50 -36 c0 -5
-5 -10 -11 -10 -5 0 -7 5 -4 10 3 6 8 10 11 10 2 0 4 -4 4 -10z m-60 -35 c0
-2 -10 -10 -22 -16 -21 -11 -22 -11 -9 4 13 16 31 23 31 12z m-50 -40 c0 -5
-4 -4 -9 4 -5 8 -16 11 -25 8 -9 -4 -16 -2 -16 3 0 5 8 10 18 12 17 4 32 -8
32 -27z m1545 -70 c-13 -44 -24 -74 -24 -66 -1 18 39 154 44 149 2 -2 -7 -39
-20 -83z m9 -230 c-4 -8 -8 -15 -10 -15 -2 0 -4 7 -4 15 0 8 4 15 10 15 5 0 7
-7 4 -15z m501 -95 c3 -5 1 -10 -4 -10 -6 0 -11 5 -11 10 0 6 2 10 4 10 3 0 8
-4 11 -10z m-623 -122 c-8 -8 -9 -4 -5 13 4 13 8 18 11 10 2 -7 -1 -18 -6 -23z
m-23 -123 c-6 -32 -13 -62 -16 -65 -7 -6 4 92 13 114 11 30 12 12 3 -49z m72
-2 c-9 -15 -10 -14 -7 7 6 35 7 37 12 23 3 -7 1 -20 -5 -30z m-94 -98 c0 -8
-4 -15 -9 -15 -10 0 -11 14 -1 23 9 10 10 9 10 -8z m493 5 c0 -5 -4 -10 -10
-10 -5 0 -10 5 -10 10 0 6 5 10 10 10 6 0 10 -4 10 -10z m-55 -90 c3 -5 1 -10
-4 -10 -6 0 -11 5 -11 10 0 6 2 10 4 10 3 0 8 -4 11 -10z m-125 -180 c0 -5 -2
-10 -4 -10 -3 0 -8 5 -11 10 -3 6 -1 10 4 10 6 0 11 -4 11 -10z m-1126 -206
c7 -19 2 -18 -19 6 -16 17 -16 20 -3 15 9 -4 19 -13 22 -21z m940 -19 c-6 -16
-24 -21 -24 -7 0 11 11 22 21 22 5 0 6 -7 3 -15z m2886 -20 c-7 -8 -18 -15
-24 -15 -6 0 -2 7 8 15 25 19 32 19 16 0z m-3754 -21 c14 -9 30 -26 35 -37 8
-14 -1 -10 -30 13 -23 18 -41 35 -41 37 0 7 12 2 36 -13z m3799 -4 c-3 -5 1
-10 10 -10 9 0 -11 -23 -47 -55 -60 -52 -88 -69 -72 -43 4 7 3 8 -5 4 -6 -4
-9 -11 -6 -16 3 -4 -17 -25 -43 -46 -26 -21 -52 -43 -58 -49 -72 -65 -105 -98
-120 -117 -11 -13 -34 -30 -51 -37 -18 -7 -33 -16 -33 -20 0 -13 -91 -101 -99
-96 -5 2 -15 -3 -24 -13 -51 -56 -110 -111 -116 -108 -4 3 -15 -7 -25 -22 -10
-15 -40 -44 -67 -65 l-49 -38 0 35 c0 37 -7 29 198 201 14 11 37 31 52 45 15
14 39 34 51 44 32 26 153 130 159 136 3 3 52 44 110 90 58 47 111 91 119 98
25 24 60 44 68 39 5 -3 17 2 28 10 19 15 19 15 -5 10 l-25 -6 24 20 c25 21 36
25 26 9z m-117 -35 c-15 -14 -31 -25 -35 -25 -8 1 48 50 57 50 3 0 -7 -11 -22
-25z m-136 -127 c-7 -7 -12 -8 -12 -2 0 14 12 26 19 19 2 -3 -1 -11 -7 -17z
m-42 -38 c-8 -5 -19 -10 -25 -10 -5 0 -3 5 5 10 8 5 20 10 25 10 6 0 3 -5 -5
-10z m-80 -59 c0 -5 -15 -20 -32 -32 l-33 -22 29 31 c32 34 36 37 36 23z
m-100 -88 c0 -5 -15 -18 -34 -31 -18 -12 -57 -47 -87 -77 -30 -30 -60 -55 -66
-55 -7 0 -13 -5 -13 -10 0 -6 -8 -14 -17 -17 -10 -4 -37 -27 -60 -52 -23 -26
-43 -40 -43 -32 0 15 126 141 141 141 4 0 14 6 21 13 121 113 158 142 158 120z
m-1893 -39 c-3 -4 1 -13 10 -22 14 -14 14 -17 -3 -29 -10 -7 -27 -12 -38 -12
-18 1 -18 2 -3 6 15 4 16 7 5 21 -8 10 -9 13 -1 9 6 -4 14 -3 18 3 3 5 1 10
-5 10 -6 0 -8 5 -5 10 3 6 11 10 17 10 6 0 9 -3 5 -6z m-77 -84 c-8 -5 -17 -7
-19 -4 -3 3 1 9 9 14 8 5 17 7 19 4 3 -3 -1 -9 -9 -14z m-1670 -104 c0 -2 -7
-7 -16 -10 -8 -3 -12 -2 -9 4 6 10 25 14 25 6z m-140 -64 c0 -5 -16 -16 -35
-25 -19 -9 -35 -12 -35 -7 0 5 11 12 25 16 14 3 25 10 25 15 0 5 5 9 10 9 6 0
10 -4 10 -8z m73 -9 c-7 -2 -13 -13 -13 -24 0 -11 -6 -19 -12 -18 -33 4 -58
-2 -58 -14 0 -8 -23 -24 -51 -37 -28 -14 -60 -32 -72 -42 -11 -10 -22 -16 -24
-14 -9 8 47 54 91 74 25 12 46 27 46 32 0 6 7 10 16 10 9 0 27 9 41 20 14 11
31 20 37 19 7 0 6 -3 -1 -6z m-163 -40 c-8 -3 -25 -15 -37 -26 -29 -26 -39
-18 -15 11 10 12 28 21 42 21 15 0 19 -3 10 -6z m-96 -58 c-4 -8 -10 -15 -15
-15 -5 0 -33 -17 -61 -37 -29 -20 -46 -29 -37 -19 12 13 107 83 116 85 1 1 0
-6 -3 -14z m3476 -23 c0 -4 -12 -19 -27 -33 -16 -14 -41 -42 -56 -62 -16 -21
-33 -35 -38 -31 -15 9 -37 -15 -32 -35 3 -11 -2 -21 -14 -25 -14 -6 -16 -5 -5
5 22 23 13 30 -15 12 -21 -12 -16 -5 17 30 24 26 53 47 63 47 13 0 17 5 13 15
-3 8 0 14 6 12 6 -1 16 7 22 18 6 12 18 28 26 37 16 18 40 24 40 10z m-3460
-36 c0 -2 -7 -6 -15 -10 -8 -3 -15 -1 -15 4 0 6 7 10 15 10 8 0 15 -2 15 -4z
m656 -54 c-17 -16 -18 -16 -5 5 7 12 15 20 18 17 3 -2 -3 -12 -13 -22z m2752
-46 c-24 -22 -53 -52 -63 -65 l-20 -25 33 23 c17 12 32 26 32 31 0 4 7 11 16
14 15 6 15 4 3 -11 -35 -45 -57 -65 -75 -67 -10 -2 -18 -9 -16 -16 1 -6 -1 -9
-6 -6 -4 2 -14 1 -22 -5 -11 -6 -11 -9 -2 -9 9 0 10 -4 1 -19 -7 -10 -20 -16
-29 -14 -10 3 -20 -2 -23 -11 -4 -9 -2 -16 2 -16 5 0 12 6 14 13 4 9 6 9 6 0
1 -18 -49 -65 -63 -60 -7 3 -28 -13 -47 -35 -19 -22 -44 -52 -56 -67 -24 -27
-31 -47 -12 -36 6 4 5 -2 -3 -14 -7 -11 -16 -17 -21 -12 -5 5 -26 -10 -47 -33
-40 -43 -46 -63 -9 -30 22 19 22 19 10 -3 -6 -13 -20 -23 -30 -23 -10 0 -32
-21 -50 -47 -25 -36 -26 -41 -7 -20 29 32 38 34 28 8 -11 -30 -84 -104 -91
-93 -3 5 -14 -2 -25 -17 l-20 -26 24 20 c25 22 24 16 -5 -33 -11 -17 -25 -30
-32 -28 -6 3 -26 -13 -45 -36 -18 -22 -38 -45 -43 -51 -24 -28 -44 -66 -33
-61 7 2 35 36 62 74 28 38 52 67 54 65 13 -13 -125 -178 -140 -169 -7 5 -9 1
-5 -9 3 -9 3 -16 -1 -14 -7 2 -52 -39 -52 -48 0 -2 7 -2 16 2 14 5 14 3 5 -13
-27 -47 -64 -78 -41 -34 33 62 -43 -38 -98 -129 -21 -36 -30 -61 -26 -74 5
-15 3 -19 -9 -14 -9 3 -18 -1 -21 -10 -5 -11 -2 -14 10 -9 20 8 -12 -37 -56
-78 -24 -22 -28 -31 -18 -37 10 -7 9 -9 -4 -9 -10 0 -18 -5 -18 -11 0 -5 4 -7
10 -4 6 3 7 -1 3 -10 -4 -12 -8 -13 -13 -5 -8 14 -34 -33 -170 -309 -50 -101
-93 -181 -96 -178 -3 3 2 19 11 37 9 17 24 57 34 88 19 60 80 180 189 372 89
158 255 426 272 440 4 3 9 12 12 20 4 8 40 62 82 120 41 58 81 113 88 124 7
10 21 27 32 37 10 9 15 22 11 28 -3 7 -2 10 3 9 11 -3 147 160 140 168 -3 2
-11 -2 -18 -11 -7 -8 -17 -15 -23 -15 -6 0 0 8 13 17 14 10 29 17 33 15 4 -1
20 12 35 30 32 38 41 48 157 173 50 54 99 112 110 129 11 17 58 69 105 116 66
66 86 81 88 66 3 -11 -12 -33 -40 -60z m-3478 61 c0 -2 -10 -12 -21 -23 -22
-19 -22 -19 -8 4 12 19 29 30 29 19z m3515 -145 c-2 -10 -6 -63 -10 -118 -7
-109 -12 -168 -20 -229 -2 -22 -7 -60 -10 -85 -3 -25 -8 -56 -10 -70 -2 -14
-7 -45 -10 -70 -3 -25 -13 -83 -21 -130 -8 -47 -17 -97 -19 -112 -2 -15 -6
-35 -9 -45 -3 -10 -7 -34 -10 -53 -3 -19 -15 -80 -27 -135 -28 -135 -27 -130
-29 -130 -1 0 -3 -9 -5 -20 -3 -24 -4 -30 -50 -230 -19 -88 -52 -205 -71 -260
-20 -55 -37 -107 -39 -115 -4 -18 -81 -221 -100 -265 -47 -107 -64 -146 -66
-153 -5 -15 -75 -130 -126 -208 -68 -102 -200 -240 -280 -291 -15 -9 -30 -20
-33 -23 -3 -3 -31 -19 -63 -34 -111 -54 -274 -43 -371 23 -65 45 -93 101 -101
198 -4 40 -2 45 8 28 10 -18 12 -17 18 15 4 19 10 46 12 60 3 14 8 51 11 82 3
31 8 67 10 80 3 13 7 37 9 53 11 82 92 332 142 440 7 17 32 71 55 120 73 157
99 213 113 248 36 84 350 559 414 625 8 8 20 29 28 48 8 19 21 42 30 50 8 9
28 32 43 52 15 21 30 39 33 42 6 5 114 132 177 210 20 25 49 58 65 73 15 16
27 31 27 33 0 3 6 11 13 18 6 7 33 37 59 67 130 152 201 229 209 229 4 0 6 -8
4 -18z m-231 -16 c-6 -16 -24 -23 -24 -8 0 10 22 33 27 28 2 -2 1 -11 -3 -20z
m-34 -43 c0 -5 -11 -13 -25 -20 -29 -13 -31 -11 -9 11 16 17 34 21 34 9z
m-2670 -7 c0 -2 -8 -10 -17 -17 -16 -13 -17 -12 -4 4 13 16 21 21 21 13z
m2620 -46 c0 -5 -2 -10 -4 -10 -3 0 -8 5 -11 10 -3 6 -1 10 4 10 6 0 11 -4 11
-10z m-2770 -20 c0 -5 -2 -10 -4 -10 -3 0 -8 5 -11 10 -3 6 -1 10 4 10 6 0 11
-4 11 -10z m2735 -10 c-3 -5 -11 -10 -16 -10 -6 0 -7 5 -4 10 3 6 11 10 16 10
6 0 7 -4 4 -10z m-2765 -9 c0 -5 -11 -11 -25 -13 -14 -3 -25 -3 -25 -1 0 3 34
19 48 22 1 1 2 -3 2 -8z m133 -6 c-3 -9 -8 -14 -10 -11 -3 3 -2 9 2 15 9 16
15 13 8 -4z m2607 -15 c0 -5 -5 -10 -11 -10 -5 0 -7 5 -4 10 3 6 8 10 11 10 2
0 4 -4 4 -10z m-2820 -20 c-8 -6 -24 -15 -35 -21 -16 -8 -15 -6 4 10 13 12 28
21 35 21 6 0 4 -5 -4 -10z m2939 -11 c-22 -14 -33 -10 -19 6 7 8 17 12 22 9 6
-4 5 -10 -3 -15z m-154 -9 c3 -5 1 -10 -4 -10 -6 0 -11 5 -11 10 0 6 2 10 4
10 3 0 8 -4 11 -10z m-2745 -14 c0 -3 -4 -8 -10 -11 -5 -3 -10 -1 -10 4 0 6 5
11 10 11 6 0 10 -2 10 -4z m2840 -36 c-18 -11 -22 -7 -14 14 5 13 10 14 18 6
8 -8 7 -13 -4 -20z m-3100 16 c0 -3 -4 -8 -10 -11 -5 -3 -10 -1 -10 4 0 6 5
11 10 11 6 0 10 -2 10 -4z m2976 -11 c-6 -17 9 -21 17 -5 3 6 4 5 3 -2 -2 -7
-12 -13 -24 -13 -13 0 -32 -16 -52 -43 -17 -24 -34 -42 -37 -39 -7 8 9 34 48
77 36 40 55 51 45 25z m-3056 -29 c0 -8 -13 -16 -30 -18 -21 -3 -30 0 -30 9 0
8 4 12 8 9 4 -2 14 -1 22 5 21 12 30 11 30 -5z m130 -1 c-7 -9 -15 -13 -19
-10 -3 3 1 10 9 15 21 14 24 12 10 -5z m-206 -20 c6 -17 -29 -22 -39 -5 -3 5
-13 7 -23 4 -11 -4 -13 -3 -5 3 20 15 61 13 67 -2z m156 -5 c0 -5 -6 -10 -12
-11 -7 0 -21 -2 -30 -4 -10 -2 -18 1 -18 5 0 8 21 16 48 19 6 0 12 -3 12 -9z
m2840 -102 c-6 -7 -24 -32 -40 -55 -17 -24 -35 -43 -41 -43 -11 0 19 48 54 88
21 23 46 32 27 10z m-9 -51 c-10 -9 -11 -8 -5 6 3 10 9 15 12 12 3 -3 0 -11
-7 -18z m-102 -98 c-19 -12 -24 -2 -8 17 9 11 14 13 17 4 3 -7 -2 -16 -9 -21z
m-24 -19 c3 -5 1 -10 -4 -10 -6 0 -11 5 -11 10 0 6 2 10 4 10 3 0 8 -4 11 -10z
m-136 -196 c-77 -101 -127 -144 -69 -58 19 27 36 51 39 54 4 3 26 29 50 58 72
88 58 50 -20 -54z m785 -131 c-4 -32 -7 -61 -6 -65 1 -5 -3 -8 -8 -8 -6 0 -8
13 -4 33 7 38 11 65 13 91 0 11 4 17 7 13 4 -3 3 -32 -2 -64z m-908 -36 c-14
-19 -26 -39 -26 -44 0 -6 -7 -17 -17 -24 -15 -13 -15 -12 -3 11 27 54 65 109
68 100 2 -5 -8 -25 -22 -43z m-74 -126 c-6 -3 -28 -37 -50 -76 -21 -38 -44
-71 -51 -73 -7 -2 14 39 46 91 33 54 60 89 61 80 2 -9 -1 -18 -6 -22z m116 12
c-9 -10 -23 -33 -33 -51 -9 -19 -19 -32 -21 -29 -6 5 36 79 51 89 17 13 19 9
3 -9z m835 -8 c-3 -9 -8 -14 -10 -11 -3 3 -2 9 2 15 9 16 15 13 8 -4z m-7 -47
c-3 -13 -5 -32 -6 -43 -2 -17 -3 -16 -9 5 -4 14 -3 33 3 43 14 23 17 22 12 -5z
m-35 -141 c-10 -9 -11 -8 -5 6 3 10 9 15 12 12 3 -3 0 -11 -7 -18z m-1048 -42
c-9 -19 -18 -33 -21 -31 -4 5 26 66 33 66 3 0 -3 -16 -12 -35z m1024 -65 c-1
-11 -7 -20 -14 -20 -11 0 -11 4 -1 20 7 11 14 20 15 20 1 0 1 -9 0 -20z m-14
-67 c-3 -18 -9 -33 -13 -33 -5 0 -4 15 1 32 5 18 9 35 9 37 0 2 2 2 4 0 2 -2
1 -19 -1 -36z m-16 -63 c-1 -11 -5 -20 -9 -20 -10 0 -10 4 -2 24 8 22 13 20
11 -4z m-39 -150 c-16 -63 -31 -128 -33 -145 -1 -16 -3 -32 -5 -35 -1 -3 -2
-9 -1 -13 1 -5 -4 -5 -10 -1 -8 4 -9 -3 -5 -27 4 -23 3 -28 -3 -14 -7 18 -9
16 -15 -12 -4 -18 -12 -36 -18 -39 -11 -7 -7 22 8 60 5 12 2 15 -10 10 -9 -3
-16 -1 -16 4 0 6 9 13 20 17 15 5 28 31 51 106 17 55 32 106 33 112 7 34 28
99 31 95 2 -2 -10 -55 -27 -118z m-41 -32 c-3 -8 -6 -5 -6 6 -1 11 2 17 5 13
3 -3 4 -12 1 -19z m-57 -287 c-5 -11 -15 -32 -20 -47 -6 -15 -13 -24 -16 -21
-3 3 0 15 6 27 11 20 10 21 -9 15 -13 -4 -21 -2 -21 5 0 6 4 9 9 6 4 -3 17 3
27 14 25 25 37 25 24 1z m-1103 -43 c-3 -8 -6 -5 -6 6 -1 11 2 17 5 13 3 -3 4
-12 1 -19z m1061 -64 c-7 -15 -14 -21 -16 -15 -2 7 2 18 8 26 18 22 21 18 8
-11z m-58 -45 c-7 -11 -14 -19 -16 -16 -7 7 7 37 17 37 6 0 5 -9 -1 -21z m36
-6 c-20 -55 -52 -123 -58 -123 -4 0 -5 14 -1 32 4 22 3 29 -5 24 -7 -4 -12 -3
-12 2 0 16 13 22 26 11 14 -12 26 2 29 35 4 35 5 36 16 36 6 0 8 -8 5 -17z
m-96 -213 c-22 -44 -45 -80 -51 -80 -5 0 -7 -5 -3 -12 4 -7 3 -8 -4 -4 -7 4
-13 2 -13 -3 -1 -6 -3 -15 -4 -21 -1 -5 -3 -16 -4 -23 0 -7 -10 -22 -20 -34
-10 -11 -26 -34 -35 -51 -9 -17 -26 -36 -37 -43 -11 -6 -18 -13 -15 -16 9 -10
-14 -32 -28 -27 -7 3 -18 -10 -25 -29 -13 -32 -47 -64 -58 -53 -3 2 7 16 21
31 14 14 30 35 37 46 6 12 17 18 25 15 9 -3 12 -1 9 4 -4 6 5 24 20 41 14 18
23 34 20 37 -3 4 -10 0 -15 -8 -11 -17 -13 -9 -4 14 5 13 9 14 21 5 10 -9 17
-9 25 -1 7 7 8 12 2 12 -5 0 -4 4 1 8 18 12 66 123 59 134 -4 7 -2 8 4 4 7 -4
12 -2 12 4 0 6 5 8 12 4 7 -5 8 -3 3 5 -4 8 3 23 18 39 13 15 32 39 42 55 32
50 26 28 -15 -53z m-130 -155 c0 -8 -4 -15 -10 -15 -5 0 -7 7 -4 15 4 8 8 15
10 15 2 0 4 -7 4 -15z m-80 -116 c-7 -11 -14 -18 -17 -15 -3 3 0 12 7 21 18
21 23 19 10 -6z m-150 -149 c-28 -28 -36 -20 -9 9 12 12 23 20 26 17 2 -2 -5
-14 -17 -26z m-420 -78 c14 -3 57 -6 97 -6 85 -1 71 -19 -17 -21 -62 -2 -115
10 -145 32 -22 16 -26 17 65 -5z"/>
<path d="M12622 7028 c-7 -7 -12 -16 -12 -21 0 -5 7 -1 16 8 9 9 14 18 12 20
-2 3 -10 -1 -16 -7z"/>
<path d="M10325 6680 c-3 -5 -1 -10 4 -10 6 0 11 5 11 10 0 6 -2 10 -4 10 -3
0 -8 -4 -11 -10z"/>
<path d="M10675 4909 c-11 -17 1 -21 15 -4 8 9 8 15 2 15 -6 0 -14 -5 -17 -11z"/>
<path d="M1910 9028 c-51 -61 -102 -120 -124 -143 -10 -11 -25 -34 -32 -52 -8
-17 -18 -35 -24 -38 -6 -4 -21 -24 -35 -44 -13 -21 -31 -45 -40 -55 -9 -9 -18
-23 -19 -32 -1 -9 -7 -19 -13 -22 -5 -4 -22 -29 -37 -57 -16 -27 -39 -64 -52
-81 -13 -17 -20 -35 -16 -39 4 -5 -1 -5 -10 -2 -12 4 -15 2 -12 -8 3 -7 -20
-53 -50 -101 -31 -48 -56 -93 -56 -100 0 -6 -8 -22 -18 -35 -10 -13 -32 -49
-47 -79 -16 -30 -41 -73 -56 -95 -14 -22 -32 -57 -38 -77 -7 -20 -16 -38 -20
-40 -4 -2 -34 -57 -66 -123 -32 -66 -71 -140 -87 -164 -15 -25 -28 -50 -28
-57 0 -12 -52 -125 -73 -159 -6 -11 -13 -22 -14 -24 -4 -6 -89 -22 -138 -26
-46 -4 -59 -7 -99 -24 -16 -6 -31 -9 -33 -7 -3 3 -16 1 -29 -4 -13 -5 -41 -10
-61 -11 -21 -1 -42 -6 -48 -9 -5 -4 -32 -11 -60 -15 -27 -5 -52 -9 -55 -10 -3
0 -23 -5 -45 -10 -22 -4 -47 -10 -55 -12 -8 -2 -51 -6 -96 -10 -63 -4 -87 -2
-112 11 -17 9 -47 16 -67 16 -33 0 -35 -2 -35 -33 0 -40 35 -89 96 -136 47
-36 101 -45 180 -30 27 5 63 12 79 15 17 3 48 10 70 16 22 5 51 12 64 15 14 2
57 13 97 24 40 11 82 22 94 24 11 3 30 7 43 10 56 14 107 22 110 18 4 -3 -91
-225 -148 -350 -8 -17 -15 -37 -15 -45 0 -8 -4 -18 -8 -24 -5 -5 -40 -83 -78
-174 -37 -91 -72 -166 -76 -168 -4 -2 -4 -10 -1 -18 3 -8 -1 -22 -8 -32 -21
-26 -45 -80 -68 -152 -11 -36 -35 -110 -55 -165 -19 -55 -38 -120 -41 -145 -4
-25 -11 -50 -16 -56 -19 -23 -17 -51 4 -89 17 -29 32 -41 65 -51 23 -6 50 -11
60 -9 9 2 20 4 24 4 12 1 42 64 46 96 2 17 21 84 42 150 22 66 40 123 40 127
0 8 34 101 53 148 6 14 11 27 12 30 1 3 13 41 27 85 14 44 29 96 33 115 3 19
15 54 26 78 20 43 218 514 224 532 1 3 7 18 13 33 7 16 12 31 12 34 0 3 12 32
28 64 29 61 31 63 124 63 9 0 15 3 12 7 -3 5 5 11 18 13 13 3 55 12 93 20 39
8 86 18 105 21 19 3 46 8 60 10 64 13 80 15 149 21 41 4 71 3 68 -2 -3 -5 -8
-33 -12 -63 -4 -30 -9 -63 -11 -75 -2 -12 -6 -43 -9 -71 -4 -27 -8 -61 -10
-75 -3 -22 -10 -76 -21 -165 -11 -93 -13 -125 -5 -125 5 0 12 26 16 58 3 31
10 67 15 80 6 14 6 22 -1 22 -6 0 -8 4 -5 8 7 11 14 53 21 127 8 89 11 111 17
121 3 5 9 42 12 83 4 41 11 80 17 87 11 13 42 8 34 -6 -4 -7 -9 -34 -21 -130
-3 -25 -10 -64 -14 -88 -6 -34 -4 -44 9 -52 14 -8 14 -9 -1 -10 -10 0 -18 -8
-19 -17 0 -10 -2 -27 -5 -38 -2 -11 -5 -48 -6 -82 -2 -35 -6 -63 -9 -63 -12 0
-3 -45 11 -52 12 -5 12 -7 -2 -7 -14 -1 -18 -10 -19 -38 0 -21 -2 -47 -4 -58
-7 -35 -18 -149 -19 -192 0 -31 -5 -43 -16 -43 -13 -1 -13 -2 0 -9 11 -7 14
-23 12 -58 -1 -26 -4 -97 -7 -157 -2 -60 -9 -122 -14 -138 -6 -17 -6 -28 0
-28 5 0 9 -14 9 -31 0 -17 -4 -28 -10 -24 -5 3 -10 -1 -10 -9 0 -9 4 -16 9
-16 5 0 11 -9 14 -20 3 -11 1 -20 -4 -20 -4 0 -6 -7 -3 -15 4 -8 1 -15 -5 -15
-13 0 -13 -6 -16 157 -2 76 1 130 6 127 5 -3 9 0 9 5 0 6 -4 11 -9 11 -5 0 -9
27 -9 60 1 34 4 56 8 49 5 -7 10 -8 14 -1 4 6 -2 15 -11 21 -17 9 -17 11 1 24
15 11 16 15 4 19 -10 4 -14 20 -13 54 3 92 17 199 26 202 12 5 12 32 0 32 -5
0 -9 6 -8 13 0 6 -1 21 -1 31 -3 34 -16 7 -18 -37 -1 -23 -5 -96 -10 -162 -9
-125 -9 -554 0 -615 2 -19 5 -46 5 -59 1 -22 14 -22 17 0 1 5 2 15 3 22 4 30
21 -25 24 -77 3 -46 1 -56 -12 -55 -10 0 -12 2 -4 6 15 5 -1 43 -18 43 -6 0
-8 -3 -6 -7 5 -8 11 -41 23 -123 21 -143 98 -294 193 -377 26 -23 75 -31 86
-13 3 5 -8 33 -24 62 -47 84 -80 220 -97 393 -3 33 -9 87 -13 120 -10 70 -2
600 9 600 0 0 3 43 5 95 7 140 13 222 20 250 5 24 10 70 20 184 3 27 7 51 10
54 2 3 0 11 -6 18 -7 9 -6 19 5 36 8 13 15 32 15 43 1 18 4 44 15 115 2 14 7
33 10 42 8 18 14 45 15 69 1 12 13 16 49 18 26 1 65 4 87 7 178 20 324 28 475
26 218 -3 293 -7 307 -15 6 -4 18 -4 27 -1 34 13 9 107 -34 129 -15 8 -56 15
-91 15 -94 2 -145 6 -158 14 -6 4 -11 4 -11 -1 0 -4 -41 -9 -92 -11 -50 -1
-95 -5 -99 -8 -5 -3 -18 0 -30 7 -15 8 -19 8 -15 0 5 -7 -9 -11 -41 -12 -87
-2 -251 -15 -314 -25 l-42 -7 6 49 c3 27 12 78 21 114 10 42 12 66 5 71 -6 3
-4 11 6 19 9 7 14 18 12 24 -3 6 0 22 6 36 13 32 16 47 21 90 3 30 19 109 67
321 6 25 9 50 8 55 -1 5 3 22 10 39 18 43 70 336 77 430 11 141 10 142 -38
187 -23 21 -47 38 -55 38 -7 0 -13 4 -13 9 0 7 -60 42 -72 41 -1 0 -19 -19
-38 -42z m38 -43 c-7 -9 -20 -24 -28 -33 -9 -9 -29 -35 -44 -57 -16 -22 -34
-44 -40 -50 -6 -5 -45 -60 -86 -122 -41 -61 -76 -110 -78 -108 -4 4 28 68 37
75 4 3 13 20 20 38 8 17 17 32 21 32 4 0 14 13 21 29 8 16 37 54 64 84 28 30
63 71 78 91 15 20 32 36 38 36 5 0 4 -7 -3 -15z m-14 -85 c-10 -12 -29 -30
-41 -42 -13 -12 -23 -27 -23 -33 0 -7 -9 -20 -20 -30 -11 -10 -20 -24 -20 -31
0 -6 -16 -28 -36 -48 -19 -19 -33 -40 -29 -45 3 -6 -3 -15 -14 -21 -11 -6 -23
-25 -27 -44 -4 -23 -10 -33 -19 -30 -7 3 -18 -8 -26 -25 -8 -17 -17 -31 -21
-31 -5 0 -8 -7 -8 -16 0 -9 -10 -24 -22 -34 -20 -16 -21 -21 -10 -40 12 -20
11 -21 -6 -16 -16 6 -22 -1 -33 -39 -7 -25 -19 -45 -27 -45 -9 0 -11 -7 -7
-20 4 -13 2 -20 -8 -20 -7 0 -26 -19 -41 -42 -21 -32 -24 -43 -14 -51 9 -6 8
-7 -6 -3 -13 5 -17 2 -13 -9 4 -8 2 -17 -2 -20 -5 -2 -12 -21 -15 -40 -4 -19
-13 -35 -20 -35 -7 0 -27 -22 -44 -50 -17 -27 -26 -50 -20 -50 7 0 3 -7 -8
-16 -10 -8 -14 -13 -7 -10 11 6 -28 -76 -49 -101 -12 -14 -7 -16 16 -7 9 3 16
14 17 23 0 11 2 12 6 3 7 -17 -25 -52 -49 -52 -11 0 -18 -7 -18 -20 0 -11 -6
-20 -14 -20 -9 0 -12 -8 -8 -27 4 -23 6 -24 17 -10 7 9 14 14 17 12 3 -3 10 0
16 7 18 22 72 129 72 143 0 7 3 15 8 17 4 2 15 19 25 38 33 66 65 120 81 136
9 9 29 44 45 78 28 61 134 235 165 269 9 9 16 19 16 21 0 10 59 92 79 110 12
11 21 25 21 33 0 7 16 29 35 47 19 19 35 38 35 43 1 4 12 22 25 38 24 29 25
29 19 5 -3 -14 -6 -41 -8 -60 -2 -19 -11 -64 -20 -100 -29 -121 -44 -195 -51
-250 -4 -30 -12 -61 -18 -69 -6 -7 -12 -19 -13 -26 -1 -8 -5 -33 -8 -57 -3
-24 -17 -99 -31 -168 -13 -69 -26 -136 -29 -150 -2 -14 -12 -56 -21 -95 -9
-38 -16 -90 -16 -115 -1 -25 -4 -49 -9 -55 -5 -6 -10 -25 -12 -44 -4 -37 0
-35 -103 -46 -33 -4 -62 -8 -65 -10 -3 -2 -29 -6 -59 -10 -30 -4 -63 -9 -75
-11 -12 -3 -30 -7 -41 -8 -11 -2 -51 -9 -90 -16 -141 -24 -130 -24 -116 -6 8
9 11 16 7 16 -3 0 4 17 17 38 13 20 36 64 52 97 15 33 34 74 43 90 14 28 14
29 -1 16 -10 -7 -17 -20 -17 -27 0 -8 -5 -14 -10 -14 -7 0 -7 7 0 21 7 11 9
23 6 26 -3 3 -19 -22 -35 -56 -16 -33 -34 -67 -40 -75 -10 -11 -8 -17 6 -26
11 -7 12 -10 3 -7 -19 5 -31 -8 -53 -58 -10 -22 -31 -48 -47 -57 -17 -9 -30
-15 -30 -12 0 14 32 64 41 64 6 0 8 7 5 16 -4 10 2 23 14 34 11 9 18 19 15 21
-2 3 8 30 23 61 28 56 16 72 -14 19 -36 -63 0 26 56 136 32 63 56 123 53 132
-4 12 -3 13 5 3 7 -11 11 -10 16 5 11 30 209 383 213 379 7 -7 -35 -93 -79
-161 -49 -76 -183 -333 -212 -404 -31 -79 6 -28 54 73 25 52 49 96 53 96 5 0
5 -6 1 -12 -4 -7 -3 -10 1 -6 5 5 10 19 11 33 1 14 9 38 16 53 20 39 42 76 49
82 3 3 13 23 23 45 11 22 22 42 25 45 7 6 19 26 73 125 22 38 45 76 52 85 8 8
17 26 21 39 4 13 17 34 29 46 33 35 50 58 66 90 14 29 109 175 120 185 3 3 17
21 30 40 13 19 27 37 30 40 3 3 23 29 44 57 32 46 59 72 75 73 3 0 -4 -9 -15
-20z m-274 -304 c0 -2 -8 -10 -17 -17 -16 -13 -17 -12 -4 4 13 16 21 21 21 13z
m-46 -78 c-9 -18 -30 -52 -45 -75 -16 -23 -29 -44 -29 -48 0 -6 -6 -14 -45
-60 l-26 -30 25 42 c14 24 26 45 26 48 0 2 16 31 36 62 20 32 43 69 51 81 22
35 27 19 7 -20z m262 -283 c1 -8 -2 -15 -6 -15 -5 0 -8 9 -7 20 1 21 10 18 13
-5z m4 -29 c0 -3 -4 -8 -10 -11 -5 -3 -10 -1 -10 4 0 6 5 11 10 11 6 0 10 -2
10 -4z m-10 -38 c0 -2 -7 -24 -14 -50 -8 -25 -12 -49 -9 -52 4 -3 1 -16 -5
-29 -12 -25 -21 -66 -26 -117 -2 -20 -10 -56 -16 -80 -7 -25 -14 -63 -16 -85
-2 -22 -9 -65 -17 -96 -7 -31 -13 -63 -11 -72 1 -10 -2 -17 -8 -17 -5 0 -6 -9
-3 -20 7 -22 -7 -27 -22 -7 -10 12 -9 41 1 82 2 11 5 23 5 28 1 4 5 6 10 5 5
-2 9 2 9 7 0 6 -3 9 -7 8 -13 -3 -10 35 4 41 8 3 11 13 8 26 -3 12 -1 31 6 43
6 12 15 49 21 82 14 77 16 87 23 105 4 8 5 34 4 58 -1 23 1 42 5 42 11 0 30
49 30 78 0 12 7 22 14 22 8 0 14 -1 14 -2z m-570 -372 c0 -3 -4 -8 -10 -11 -5
-3 -10 -1 -10 4 0 6 5 11 10 11 6 0 10 -2 10 -4z m507 -38 c-3 -7 -5 -2 -5 12
0 14 2 19 5 13 2 -7 2 -19 0 -25z m50 -93 c0 -8 -4 -12 -9 -9 -5 3 -6 10 -3
15 9 13 12 11 12 -6z m-803 -174 c-16 -34 -35 -63 -42 -66 -9 -3 -3 13 12 39
14 25 26 51 26 58 0 15 21 40 28 33 2 -2 -9 -31 -24 -64z m1611 45 c17 -2 39
-4 50 -5 46 -5 -20 -19 -70 -15 -28 2 -72 5 -100 7 -27 2 -56 -1 -64 -7 -11
-8 -13 -8 -7 1 9 16 -111 10 -143 -6 -11 -7 -22 -7 -25 -2 -5 7 -41 8 -41 1 0
-1 -10 -3 -22 -6 -14 -2 -23 1 -23 9 0 8 -4 7 -10 -3 -5 -8 -10 -11 -10 -6 0
5 -7 3 -15 -4 -9 -8 -28 -10 -49 -6 -21 4 -37 2 -41 -4 -5 -8 -11 -8 -21 1 -8
6 -14 8 -14 3 0 -5 -19 -9 -42 -9 -24 0 -67 -4 -95 -8 -48 -7 -53 -6 -53 12 0
26 16 30 147 37 63 3 134 9 157 13 40 7 432 5 491 -3z m-932 -66 c-3 -13 -13
-20 -27 -19 -11 0 -15 3 -8 6 6 2 9 9 6 15 -7 11 15 30 27 22 4 -2 5 -13 2
-24z m-53 5 c0 -17 -21 -34 -36 -28 -8 3 -14 0 -14 -5 0 -6 -8 -11 -17 -11
-10 0 -36 -3 -58 -6 -66 -8 -122 -8 -133 -1 -6 3 -15 -1 -20 -9 -6 -12 -29
-17 -83 -20 -41 -2 -85 -6 -99 -9 -54 -13 -115 -17 -100 -6 8 5 24 10 34 10
11 0 42 6 70 14 70 20 190 44 256 51 30 3 77 11 104 18 61 16 96 16 96 2z
m-635 -115 c-3 -4 -14 -10 -25 -13 -16 -4 -19 -2 -11 7 11 13 43 18 36 6z
m685 -47 c-11 -17 -11 -17 -6 0 3 10 7 26 7 35 1 15 2 15 6 0 2 -10 -1 -25 -7
-35z m-824 10 c-10 -11 -37 -12 -30 -2 3 5 12 9 21 9 9 0 13 -3 9 -7z m88 -80
c-9 -36 -49 -95 -58 -86 -4 4 -4 0 -1 -8 3 -9 -3 -23 -15 -34 -11 -10 -20 -31
-20 -46 0 -40 -14 -72 -50 -112 -21 -25 -27 -38 -19 -43 9 -5 8 -10 -2 -18 -8
-6 -21 -20 -29 -30 -14 -18 -13 -19 5 -13 16 6 14 3 -7 -15 -14 -13 -29 -30
-32 -38 -3 -8 -3 -1 0 15 3 17 11 44 18 60 31 72 36 88 32 93 -3 3 -13 -10
-21 -29 -15 -32 -16 -32 -10 -5 3 16 12 38 19 48 13 18 14 18 20 -7 6 -24 26
-27 26 -4 0 6 -4 7 -10 4 -11 -7 -12 -3 -4 19 3 8 13 12 22 9 12 -3 13 -2 4 4
-16 12 4 77 21 66 5 -3 7 -2 4 4 -7 11 32 114 48 125 5 4 13 2 17 -5 4 -7 8
-8 8 -1 0 5 -5 15 -10 20 -17 17 -1 43 22 36 14 -3 19 -1 14 6 -4 7 -2 12 4
12 6 0 8 -10 4 -27z m-98 -77 c-34 -79 -71 -134 -40 -61 30 74 66 146 70 142
2 -2 -11 -38 -30 -81z m864 -81 c0 -8 -4 -15 -10 -15 -5 0 -7 7 -4 15 4 8 8
15 10 15 2 0 4 -7 4 -15z m2 -200 c-2 -14 -8 -28 -13 -30 -4 -3 -4 8 1 24 4
16 5 33 2 37 -4 4 -2 4 4 1 6 -4 9 -18 6 -32z m-992 -8 c0 -7 -7 -22 -15 -33
-13 -17 -14 -16 -4 14 11 33 19 41 19 19z m-14 -127 c-1 -16 -7 -32 -13 -34
-7 -3 -10 -12 -7 -21 4 -10 0 -15 -11 -15 -18 0 -15 21 12 73 17 34 20 34 19
-3z m977 -102 c-3 -35 -7 -65 -10 -68 -3 -3 -2 24 0 60 7 75 6 70 11 70 3 0 2
-28 -1 -62z m-13 -283 c0 -19 -4 -35 -8 -35 -4 0 -6 16 -4 35 2 19 6 35 8 35
2 0 4 -16 4 -35z m-43 -87 c-3 -7 -5 -2 -5 12 0 14 2 19 5 13 2 -7 2 -19 0
-25z m36 -73 c-3 -9 -8 -14 -10 -11 -3 3 -2 9 2 15 9 16 15 13 8 -4z m-6 -87
c-3 -7 -5 -2 -5 12 0 14 2 19 5 13 2 -7 2 -19 0 -25z m0 -75 c-3 -10 -5 -2 -5
17 0 19 2 27 5 18 2 -10 2 -26 0 -35z m-97 -83 c0 -5 -4 -10 -10 -10 -5 0 -10
5 -10 10 0 6 5 10 10 10 6 0 10 -4 10 -10z m25 -201 c2 -13 8 -49 14 -79 20
-95 22 -141 3 -65 -30 113 -40 176 -29 172 6 -2 11 -14 12 -28z"/>
<path d="M9743 8158 c-10 -18 -13 -39 -3 -33 8 5 21 45 15 45 -2 0 -7 -6 -12
-12z"/>
<path d="M1040 7648 c-12 -22 -12 -22 6 -6 10 10 15 20 12 24 -4 3 -12 -5 -18
-18z"/>
<path d="M1000 7580 c0 -5 5 -10 11 -10 5 0 7 5 4 10 -3 6 -8 10 -11 10 -2 0
-4 -4 -4 -10z"/>
<path d="M6265 7484 c-19 -6 -37 -9 -40 -6 -3 3 -5 0 -5 -6 0 -7 -5 -12 -12
-12 -19 0 -120 -80 -181 -144 -72 -75 -156 -199 -197 -291 -17 -39 -36 -78
-42 -89 -12 -22 -19 -51 -23 -94 -1 -18 -5 -35 -8 -38 -3 -3 -4 -11 -1 -17 2
-7 6 -37 8 -67 6 -93 26 -140 81 -195 28 -29 66 -55 87 -62 41 -12 143 -8 198
8 98 29 179 65 184 83 2 10 9 15 15 12 10 -7 44 9 69 32 7 6 20 12 29 12 10 0
13 6 9 16 -4 11 -2 15 7 11 8 -3 14 3 14 15 1 14 -2 17 -10 10 -14 -12 -89
-23 -82 -12 2 4 26 15 52 25 109 40 275 141 306 186 8 11 36 34 63 51 95 60
26 37 -142 -48 -169 -86 -391 -179 -494 -208 -77 -22 -166 -26 -217 -11 -64
19 -72 29 -62 73 4 20 10 48 13 62 12 60 16 72 32 98 16 28 18 28 52 16 20 -6
46 -10 57 -8 11 2 36 7 55 10 19 3 40 9 45 12 6 4 19 8 30 9 11 2 27 9 36 16
138 102 213 172 242 225 11 18 32 47 48 63 16 16 29 40 30 52 1 12 2 36 4 52
2 22 -6 38 -27 60 -16 16 -31 39 -34 50 -11 45 -119 73 -189 49z m106 -122
c-16 -30 -113 -125 -161 -157 -25 -16 -47 -32 -50 -35 -3 -3 -30 -18 -60 -34
-53 -28 -54 -28 -35 -6 25 30 77 81 130 128 22 19 31 32 21 28 -19 -7 -19 -6
-2 13 17 19 78 53 103 57 6 1 19 7 30 13 27 16 35 13 24 -7z m-106 -744 c-16
-5 -40 -14 -52 -20 -21 -10 -81 -3 -70 9 4 3 32 9 64 13 81 10 93 10 58 -2z"/>
<path d="M5673 7414 c-115 -23 -205 -78 -316 -189 -55 -55 -135 -145 -179
-200 -44 -55 -84 -104 -89 -109 -8 -9 -6 6 6 64 11 49 17 143 11 176 -8 42
-47 89 -86 103 -28 9 -31 8 -45 -19 -8 -16 -17 -39 -19 -52 -3 -13 -5 -23 -6
-23 -1 0 -3 -8 -5 -18 -4 -21 -97 -117 -113 -117 -5 0 -30 -19 -54 -43 -23
-24 -68 -58 -98 -77 -30 -19 -57 -37 -60 -40 -23 -25 -160 -116 -210 -138 -64
-30 -161 -41 -189 -23 -14 9 -18 140 -6 219 5 38 4 41 -51 88 -73 64 -83 69
-97 52 -7 -8 -41 -38 -77 -68 -36 -30 -69 -59 -75 -65 -23 -26 -254 -220 -295
-248 -25 -17 -47 -33 -50 -36 -26 -30 -207 -124 -221 -115 -11 6 -5 71 12 139
6 22 40 120 75 217 64 178 104 319 104 371 0 26 -32 63 -76 90 -27 16 -69 -50
-104 -161 -18 -59 -56 -174 -84 -257 -48 -144 -50 -154 -50 -262 0 -62 5 -121
11 -135 6 -12 16 -37 22 -53 25 -66 94 -117 160 -118 43 0 130 38 214 95 80
54 96 68 232 192 143 132 194 171 208 157 6 -6 8 -11 5 -11 -12 0 41 -134 70
-175 45 -64 98 -96 171 -102 110 -10 231 49 436 214 l118 96 -6 -44 c-4 -24
-9 -55 -12 -69 -4 -14 -8 -69 -10 -124 -3 -79 0 -108 15 -149 20 -52 61 -103
91 -112 47 -15 120 57 145 142 16 54 111 232 147 273 9 11 17 23 17 25 0 5 57
89 155 227 22 31 50 62 62 69 12 6 24 22 27 35 4 14 28 36 64 58 53 32 89 57
162 116 44 35 140 82 140 69 0 -7 3 -9 7 -6 3 4 12 2 20 -4 25 -21 13 7 -14
33 -52 50 -113 62 -210 42z m-29 -47 c-28 -12 -77 -42 -110 -67 -65 -49 -219
-200 -274 -269 -19 -24 -39 -48 -45 -55 -5 -6 -29 -37 -53 -68 -65 -89 -60
-69 11 35 80 117 92 132 207 247 122 123 231 200 279 200 l36 -1 -51 -22z
m111 -17 c-3 -5 -11 -10 -16 -10 -6 0 -7 5 -4 10 3 6 11 10 16 10 6 0 7 -4 4
-10z m-45 -20 c0 -5 -4 -10 -10 -10 -5 0 -10 5 -10 10 0 6 5 10 10 10 6 0 10
-4 10 -10z m-40 -9 c0 -4 -18 -20 -40 -35 -22 -14 -40 -22 -40 -16 0 5 4 10 8
10 5 0 22 11 38 25 32 28 34 29 34 16z m-105 -81 c-3 -5 -12 -10 -18 -10 -7 0
-6 4 3 10 19 12 23 12 15 0z m-62 -70 c-10 -11 -19 -20 -21 -20 -1 0 2 9 8 20
6 11 15 20 20 20 6 0 2 -9 -7 -20z m-593 -150 c-8 -5 -19 -10 -25 -10 -5 0 -3
5 5 10 8 5 20 10 25 10 6 0 3 -5 -5 -10z m-6 -34 c-11 -28 -55 -31 -53 -3 0 9
2 9 6 0 4 -10 10 -10 26 2 26 18 28 19 21 1z m-864 -64 c0 -6 -44 -41 -53 -42
-5 0 -5 10 -1 22 6 20 5 21 -10 9 -14 -12 -16 -12 -11 1 5 13 75 23 75 10z
m-90 -26 c0 -3 -4 -8 -10 -11 -5 -3 -10 -1 -10 4 0 6 5 11 10 11 6 0 10 -2 10
-4z m810 -11 c-7 -8 -19 -15 -27 -15 -13 0 -13 3 -3 15 7 8 19 15 27 15 13 0
13 -3 3 -15z m-861 -44 c-13 -28 -25 -41 -35 -37 -7 3 -13 2 -11 -2 1 -4 -2
-9 -7 -12 -5 -3 -10 5 -11 18 -1 17 10 31 39 52 23 15 42 27 43 26 2 -2 -6
-22 -18 -45z m64 29 c-5 -19 -23 -29 -23 -12 0 7 20 32 26 32 1 0 0 -9 -3 -20z
m-145 -97 c-10 -2 -18 -11 -18 -19 0 -8 -5 -12 -10 -9 -15 9 8 35 29 34 13 -1
13 -2 -1 -6z m-58 -47 c0 -3 -15 -15 -32 -27 l-33 -23 24 27 c22 24 41 35 41
23z"/>
<path d="M2220 7253 c-11 -14 -21 -33 -21 -42 -1 -9 -3 -32 -5 -51 -4 -43 12
-96 29 -98 6 0 26 -3 42 -7 42 -9 176 -10 265 -1 41 4 104 10 139 12 35 3 76
6 90 8 14 1 36 0 49 -3 19 -5 7 -16 -79 -71 -55 -36 -164 -107 -241 -157 -78
-51 -145 -93 -149 -93 -5 0 -23 -13 -41 -28 -18 -15 -58 -43 -88 -62 -160 -99
-210 -173 -186 -276 8 -34 6 -33 151 -50 22 -3 51 -7 65 -9 14 -3 45 -7 70
-10 25 -3 59 -8 75 -10 17 -3 50 -7 75 -10 25 -3 56 -8 70 -10 14 -2 48 -7 75
-10 147 -19 218 -63 270 -170 30 -60 35 -89 39 -200 3 -104 -19 -187 -91 -332
-93 -192 -208 -330 -378 -452 -146 -105 -240 -148 -331 -152 -77 -2 -82 -1
-115 33 -27 29 -30 37 -25 77 9 77 57 193 96 232 20 20 57 78 84 130 50 98
139 221 288 401 49 59 90 110 91 115 4 15 -32 14 -65 -1 -18 -9 -49 -31 -68
-50 -20 -18 -46 -36 -57 -40 -12 -4 -20 -12 -17 -19 2 -7 -17 -27 -43 -45 -66
-45 -141 -117 -193 -182 -46 -60 -94 -155 -85 -170 6 -9 -56 -132 -80 -160
-33 -38 -46 -266 -20 -341 8 -22 12 -39 10 -39 -8 0 27 -75 43 -93 46 -52 158
-62 234 -22 26 14 54 25 63 25 50 0 202 91 294 175 87 80 100 95 95 113 -5 14
-4 14 4 2 9 -11 18 -6 49 29 140 160 265 381 289 516 28 158 24 222 -22 395
-48 176 -102 267 -195 326 -44 28 -147 63 -204 71 -65 8 -69 9 -95 15 -14 4
-60 12 -103 19 -43 6 -80 16 -83 20 -3 5 1 9 9 9 8 0 17 6 20 14 5 12 112 80
254 162 145 84 287 185 382 271 64 59 77 107 42 164 -12 19 -21 46 -21 60 0
53 -71 86 -180 82 -221 -7 -479 -5 -512 5 -35 10 -39 8 -58 -15z m758 -1298
c-3 -3 -9 2 -12 12 -6 14 -5 15 5 6 7 -7 10 -15 7 -18z m-928 -475 c0 -5 -7
-10 -15 -10 -8 0 -15 5 -15 10 0 6 7 10 15 10 8 0 15 -4 15 -10z"/>
<path d="M10400 6715 c-7 -9 -8 -15 -2 -15 5 0 12 7 16 15 3 8 4 15 2 15 -2 0
-9 -7 -16 -15z"/>
<path d="M9180 6598 c0 -23 3 -29 9 -19 8 12 4 51 -5 51 -2 0 -4 -15 -4 -32z"/>
<path d="M4640 4412 c-173 -24 -275 -183 -221 -345 24 -70 102 -127 198 -145
66 -12 103 -7 161 20 l47 23 -3 56 c-3 51 -1 59 25 83 15 14 23 27 18 27 -6 1
-49 3 -97 3 -60 2 -89 -2 -92 -10 -3 -7 6 -15 19 -18 37 -9 55 -34 55 -74 0
-47 -9 -60 -46 -70 -83 -23 -188 47 -216 144 -19 65 -14 146 11 187 18 30 81
77 81 61 0 -5 5 -3 10 2 14 14 113 0 163 -22 38 -17 40 -17 53 1 8 10 14 25
14 32 0 15 -36 36 -70 40 -58 7 -86 9 -110 5z"/>
<path d="M6385 4410 c-70 -11 -129 -50 -169 -111 -20 -31 -27 -58 -33 -120
-22 -226 259 -354 417 -191 48 50 69 100 71 173 5 157 -128 273 -286 249z m95
-60 c73 -37 113 -109 116 -209 3 -106 -34 -163 -117 -180 -76 -16 -170 42
-205 124 -18 45 -25 135 -13 179 10 36 51 83 84 97 36 14 95 9 135 -11z"/>
<path d="M8838 4410 c-56 -10 -110 -49 -122 -87 -27 -84 -6 -115 127 -194 82
-49 106 -74 103 -106 -5 -42 -31 -58 -95 -58 -47 0 -64 5 -93 27 -26 20 -38
24 -47 15 -15 -15 -14 -52 2 -64 30 -25 111 -35 162 -22 112 30 163 139 98
211 -10 11 -49 39 -88 61 -70 41 -125 88 -125 106 0 6 5 21 11 35 18 39 78 45
140 13 48 -26 49 -26 60 -6 14 27 5 47 -26 59 -38 15 -66 17 -107 10z"/>
<path d="M2612 4396 c-3 -6 0 -12 7 -14 8 -3 22 -13 32 -23 16 -16 18 -37 17
-196 0 -145 -3 -181 -16 -195 -8 -10 -22 -18 -29 -18 -8 0 -13 -6 -11 -12 6
-16 191 -18 196 -3 2 6 -5 12 -15 14 -42 8 -53 31 -53 113 0 73 1 78 21 78 43
0 86 -33 154 -120 78 -99 95 -109 173 -101 19 2 14 18 -7 24 -10 2 -47 40 -82
83 -35 43 -75 89 -89 102 -23 22 -23 24 -7 33 85 48 106 142 45 202 -30 30
-82 40 -205 41 -69 1 -128 -3 -131 -8z m264 -57 c25 -26 37 -81 23 -116 -11
-29 -42 -44 -104 -50 l-52 -5 -2 81 c-3 107 7 124 66 118 30 -3 53 -12 69 -28z"/>
<path d="M3711 4396 c-7 -8 -14 -25 -16 -39 -5 -22 -25 -73 -75 -182 -10 -22
-32 -74 -50 -115 -36 -82 -56 -110 -77 -110 -8 0 -13 -6 -11 -12 3 -9 29 -13
77 -13 77 -1 99 9 55 25 -24 9 -26 14 -21 46 10 60 19 64 127 64 108 0 117 -4
127 -63 4 -29 2 -37 -17 -47 -34 -18 -16 -24 75 -25 62 -1 85 2 85 11 0 7 -9
15 -19 19 -21 6 -49 61 -146 293 -70 164 -85 184 -114 148z m88 -296 c-7 -5
-112 -5 -161 -1 -7 1 31 98 67 175 l18 37 42 -103 c23 -57 38 -105 34 -108z"/>
<path d="M5287 4395 c-2 -5 9 -15 25 -22 32 -14 30 3 31 -225 0 -139 -2 -160
-18 -178 -10 -11 -27 -20 -37 -20 -11 0 -18 -5 -16 -12 7 -20 271 -17 331 4
205 72 201 398 -6 449 -62 16 -305 19 -310 4z m258 -34 c6 -3 15 -6 22 -7 28
-5 83 -69 99 -118 37 -109 11 -212 -63 -254 -61 -34 -164 -30 -181 6 -5 9 -8
95 -7 190 1 138 4 176 16 183 15 10 97 10 114 0z"/>
<path d="M7094 4398 c-3 -4 6 -13 21 -20 14 -6 28 -23 32 -37 3 -14 6 -99 6
-190 0 -159 -1 -165 -23 -183 -12 -10 -28 -18 -36 -18 -14 0 -20 -19 -6 -21
63 -6 345 -2 355 6 8 6 21 24 29 40 13 26 14 37 9 61 0 3 -17 -8 -36 -25 -19
-16 -53 -35 -75 -41 -51 -14 -120 -7 -134 12 -7 10 -11 75 -10 184 2 210 -1
192 29 206 14 6 24 16 22 22 -4 12 -176 16 -183 4z"/>
<path d="M7893 4397 c-3 -5 -3 -9 -2 -11 2 -1 16 -10 32 -19 l27 -17 0 -180
c0 -167 -1 -181 -20 -200 -11 -11 -27 -20 -35 -20 -8 0 -15 -6 -15 -12 0 -10
39 -13 168 -12 92 1 173 2 180 3 17 1 52 61 52 89 0 27 -16 29 -30 2 -17 -31
-69 -52 -137 -56 -93 -5 -92 -7 -93 203 0 151 2 179 16 195 10 10 23 18 31 18
13 0 19 19 6 21 -40 5 -176 2 -180 -4z"/>
</g>
</svg>
